<?xml version="1.0" encoding="utf-8"?>
<!-- Generator: Adobe Illustrator 22.0.1, SVG Export Plug-In . SVG Version: 6.00 Build 0)  -->
<svg version="1.1" id="Layer_1" xmlns="http://www.w3.org/2000/svg" xmlns:xlink="http://www.w3.org/1999/xlink" x="0px" y="0px"
	 viewBox="0 0 23 26" style="enable-background:new 0 0 23 26;" xml:space="preserve">
<style type="text/css">
	.st0{fill:#9D9D9D;}
	.st1{display:none;fill:#1450B0;}
</style>
<g id="Navbar">
	<g id="รฐ_x9F__xA6__x86__icon__x22_bell_x22_">
		<path id="Vector" class="st0" d="M10.9,23.2c1.7,0,3.1-1.3,3.1-2.9H7.8C7.8,21.9,9.2,23.2,10.9,23.2z M21.5,16.4
			c-0.9-0.9-2.7-2.4-2.7-7c0-3.5-2.7-6.3-6.2-7V1.4c0-0.8-0.7-1.4-1.6-1.4S9.4,0.6,9.4,1.4v0.9c-3.6,0.7-6.2,3.5-6.2,7
			c0,4.6-1.8,6-2.7,7C0.1,16.7,0,17,0,17.4c0,0.7,0.6,1.4,1.6,1.4h18.7c0.9,0,1.6-0.7,1.6-1.4C21.9,17,21.7,16.7,21.5,16.4z"/>
	</g>
	<ellipse id="Ellipse_59" class="st1" cx="18" cy="19.7" rx="5" ry="5.4"/>
</g>
</svg>
