<svg width="43" height="43" viewBox="0 0 43 43" fill="none" xmlns="http://www.w3.org/2000/svg">
<g id="Search">
<g id="Rectangle 20" filter="url(#filter0_d_602_2699)">
<rect x="4" width="35" height="35" rx="17.5" fill="white"/>
<rect x="4.5" y="0.5" width="34" height="34" rx="17" stroke="#999999" stroke-opacity="0.2"/>
</g>
<g id="&#240;&#159;&#166;&#134; icon &#34;tune&#34;">
<path id="Vector" d="M13.5613 22.0656C13.034 22.0656 12.6064 22.4931 12.6064 23.0205C12.6064 23.5479 13.034 23.9754 13.5613 23.9754H16.5666C17.0939 23.9754 17.5214 23.5479 17.5214 23.0205C17.5214 22.4931 17.0939 22.0656 16.5666 22.0656H13.5613ZM13.5613 10.607C13.034 10.607 12.6064 11.0345 12.6064 11.5619C12.6064 12.0893 13.034 12.5168 13.5613 12.5168H19.8432C20.3706 12.5168 20.7981 12.0893 20.7981 11.5619C20.7981 11.0345 20.3706 10.607 19.8432 10.607H13.5613ZM19.9789 25.8851C20.4314 25.8851 20.7981 25.5184 20.7981 25.066V24.9303C20.7981 24.4029 21.2256 23.9754 21.753 23.9754H26.3966C26.9239 23.9754 27.3514 23.5479 27.3514 23.0205C27.3514 22.4931 26.9239 22.0656 26.3966 22.0656H21.753C21.2256 22.0656 20.7981 21.6381 20.7981 21.1107V20.975C20.7981 20.5226 20.4314 20.1558 19.9789 20.1558C19.5265 20.1558 19.1598 20.5226 19.1598 20.975V25.066C19.1598 25.5184 19.5265 25.8851 19.9789 25.8851ZM16.7023 14.4266C16.2499 14.4266 15.8831 14.7933 15.8831 15.2457V15.3814C15.8831 15.9088 15.4556 16.3363 14.9282 16.3363H13.5613C13.034 16.3363 12.6064 16.7638 12.6064 17.2912C12.6064 17.8186 13.034 18.2461 13.5613 18.2461H14.9282C15.4556 18.2461 15.8831 18.6736 15.8831 19.201V19.3367C15.8831 19.7891 16.2499 20.1558 16.7023 20.1558C17.1547 20.1558 17.5214 19.7891 17.5214 19.3367V15.2457C17.5214 14.7933 17.1547 14.4266 16.7023 14.4266ZM26.3966 18.2461C26.9239 18.2461 27.3514 17.8186 27.3514 17.2912C27.3514 16.7638 26.9239 16.3363 26.3966 16.3363H20.1147C19.5873 16.3363 19.1598 16.7638 19.1598 17.2912C19.1598 17.8186 19.5873 18.2461 20.1147 18.2461H26.3966ZM22.4364 13.6074C22.4364 14.0598 22.8032 14.4266 23.2556 14.4266C23.708 14.4266 24.0748 14.0598 24.0748 13.6074V13.4717C24.0748 12.9443 24.5023 12.5168 25.0297 12.5168H26.3966C26.9239 12.5168 27.3514 12.0893 27.3514 11.5619C27.3514 11.0345 26.9239 10.607 26.3966 10.607H25.0297C24.5023 10.607 24.0748 10.1795 24.0748 9.65215V9.51643C24.0748 9.06402 23.708 8.69727 23.2556 8.69727C22.8032 8.69727 22.4364 9.06402 22.4364 9.51643V13.6074Z" fill="#999999"/>
</g>
</g>
<defs>
<filter id="filter0_d_602_2699" x="0" y="0" width="43" height="43" filterUnits="userSpaceOnUse" color-interpolation-filters="sRGB">
<feFlood flood-opacity="0" result="BackgroundImageFix"/>
<feColorMatrix in="SourceAlpha" type="matrix" values="0 0 0 0 0 0 0 0 0 0 0 0 0 0 0 0 0 0 127 0" result="hardAlpha"/>
<feOffset dy="4"/>
<feGaussianBlur stdDeviation="2"/>
<feComposite in2="hardAlpha" operator="out"/>
<feColorMatrix type="matrix" values="0 0 0 0 0 0 0 0 0 0 0 0 0 0 0 0 0 0 0.02 0"/>
<feBlend mode="normal" in2="BackgroundImageFix" result="effect1_dropShadow_602_2699"/>
<feBlend mode="normal" in="SourceGraphic" in2="effect1_dropShadow_602_2699" result="shape"/>
</filter>
</defs>
</svg>
