<?xml version="1.0" encoding="utf-8"?>
<!-- Generator: Adobe Illustrator 22.0.1, SVG Export Plug-In . SVG Version: 6.00 Build 0)  -->
<svg version="1.1" id="Layer_1" xmlns="http://www.w3.org/2000/svg" xmlns:xlink="http://www.w3.org/1999/xlink" x="0px" y="0px"
	 viewBox="0 0 283.5 187.4" style="enable-background:new 0 0 283.5 187.4;" xml:space="preserve">
<style type="text/css">
	.st0{fill:#18355D;}
	.st1{fill:none;stroke:#CCDDE2;stroke-width:4.52;stroke-miterlimit:10;}
	.st2{fill:#000662;}
	.st3{fill:none;stroke:#000000;stroke-width:4.52;stroke-miterlimit:10;}
	.st4{fill:#D7E8F0;}
	.st5{fill:#FFFFFF;}
	.st6{opacity:0.53;fill:#FFFFFF;enable-background:new    ;}
</style>
<g>
	<path class="st0" d="M225,112.5l-0.5,5.2c-1.4,3.4-2.9,6.8-4.3,10.2c-0.5,1.2-1,2.4-1.5,3.6c-0.2,0.6-0.6,1.1-1,1.5
		c0,0,0,0.1-0.1,0.1c0,0-0.1,0-0.1,0c-0.1,0-0.2-0.2-0.2-0.3c-0.1-1.3-0.2-2.6-0.5-3.8c-1.3-6.1-8.5-8.4-14.1-8.3
		c-2.2,0-4.4,0.5-6.5,1.5c-2.9,1.4-4.1,5.3-4.2,5.5l-0.1,0.5l-2,8.3c-0.4,1.9-0.7,2.8-2.5,3.3c-0.1,0-1.8,0.9-1.8,0.9
		c-0.7,0.2,1.2-0.2,0.4-0.3l-2.3-0.4l-1-0.2l-14.2-3.4c0.5,0.1,1.1,0.2,1.7,0.3l3.3,0.8l-0.9-4.2c-2.3-13,1.5-24.7,7.9-31.1
		c1.7-1.7,2.5-2.1,4.5-3.2l1.1,2.6c0,0,11.3,3.4,13.9-6.9c1.1,0.1,3.1,0.1,4.2,0.3c5.5,1.2,10.5,4.1,14.2,8.4c0.3,0.4,0.6,0.8,1,1.1
		l0.2,0.2c0.2,0.2,0.4,0.5,0.6,0.7l0.1,0.2C222.2,108,223.7,110.2,225,112.5z"/>
	<path class="st1" d="M91.2,58.3c1.8-8.9,9.4-17.6,31-19.6c48.1-4.4,22.1-17.7,37.8-32.2C175.7-8,235,15.9,219.5,53.3
		s35.7-4.1,57.4,43.2c3.1,6.9,4.7,14.4,4.4,21.9c-0.3,8-2.3,15.8-6,22.8c-6.9,13.5-19.8,25.6-38.4,33c-2.7,1.1-5.6,2.1-8.6,3"/>
	<path class="st0" d="M241.2,185.1h-58.6l-1.7-0.5c0,0-0.4-19.9-2.7-25l8.7,3l8.4,2.4c0,0,11.6,0.2,18.2-11.6c0,0,1.1-2.8,2.1-7.9
		c0.9-4.4,5.4-28.7,7.4-34.1c2.1,3.6,5.3,9.9,6.9,13.7c1.7,4.1,3.1,8.2,4.3,12c1.9,6.3,3.5,12.7,4.6,19.1
		C240.3,165.8,241.2,175.4,241.2,185.1z"/>
	<path class="st2" d="M243.7,131.7c-0.4,4.4-3.3,5.1-3.3,5.1c-2.5,1.5-6.4-0.1-7.1-2.9c0,0,0-0.1,0-0.1c-0.6-2.4-1.8-5.4-3.5-8.8
		c-3.1-7.6-7.2-15.2-12.4-21.3c-3.7-4.3-8.7-7.2-14.2-8.4c0,0,0,0,0,0c-7.4-2.2-10.9-6.7-12.5-11.1c0,0,0,0,0,0
		c-0.7-2.7-1.3-5.4-1-7c0.6-2.8,0.9-5.9,0.2-6.5c-1-0.8-2.7-0.2-7.2,0.7c-3.9,0.8-5.9,0.3-6.4-2c-0.1-0.4-0.1-0.7-0.1-1.1
		c0,0.2-0.9-0.7-1-0.5c-0.3,1.2-0.9,1.7-2.1,2.2c-1.9,0.8-2.7,3.8-2.9,5.8c-0.3,2.1,0.7,5.1,1.4,7.1c-1-1.1-2.1-1-3.9-0.3
		c-0.4,0.2-1.6,0.1-2.4-0.2c0.1-0.1,0.3-0.2,0.4-0.2c0.3-0.1-1.8-1.1-1.5-1.2c3-0.7,4.7-3.2,4.3-5.3c-0.9-5.5,0.3-12,4-16.3
		c4.1-4.7,10.8-5.7,16.4-3.5c4.4,1.7,8.6,5.2,10.2,9.8c0,0,0,0,0,0.1c0.2,0.6,0.3,1.2,0.4,1.8c0.6,3.4-0.6,6.9-1.3,10.3
		c-0.2,1.2,0.4,2.6,0.5,3.5c0.7,5.8,7.5,7.5,12.8,9.9c11.2,5.2,20.3,14.1,26.5,25C242,123.5,243.5,128.4,243.7,131.7z"/>
	<path class="st3" d="M184.7,98.1c-0.1,0.1-0.2,0.1-0.4,0.2c-2,1.2-3.9,2.6-5.5,4.2c-6.4,6.4-10.1,18.2-7.9,31.1l0.9,4.1"/>
	<path class="st3" d="M241.2,185.1c0-9.7-0.8-19.3-2.5-28.9c-1.1-6.5-2.6-12.9-4.6-19.1c-1.2-3.8-2.6-7.9-4.3-12
		c-1.6-3.9-3.4-7.6-5.5-11.2c-2-3.6-4.3-6.9-7-10c-3.7-4.3-8.7-7.2-14.2-8.4c-1.1-0.2-2.1-0.4-3.2-0.5"/>
	<path class="st3" d="M126.6,100.8l-0.2,0c-1.9-0.3-3.8-0.2-5.6,0.5s-3.4,1.7-4.7,3.1L105.4,116l-1.2,1.4c-0.1,0.1-0.2,0.2-0.2,0.3"
		/>
	<path class="st3" d="M111.3,120.6l5.8-6.5l0,0"/>
	<path class="st3" d="M161.9,153.9l27.4,9.6c2.6,0.9,5.4,1.3,8.2,1c2.8-0.3,5.5-1.1,7.9-2.5c2.4-1.4,4.5-3.3,6.2-5.6
		s2.8-4.9,3.3-7.6l6.5-33.1c0.3-1.7,0.3-3.4,0-5.1c-0.4-1.7-1.1-3.3-2.1-4.7c-0.3-0.4-0.6-0.8-0.9-1.1"/>
	<path class="st3" d="M143.8,152.6c-3.5,2.4-6,9.5-7.4,14.2c-0.2,0.8-0.7,1.5-1.4,2c-0.7,0.5-1.5,0.8-2.3,0.7
		c-0.6,0-1.1-0.1-1.6-0.4c-0.8-0.4-1.4-1-1.8-1.7c-0.4-0.8-0.5-1.6-0.3-2.5c2.3-11.1,10.3-33.1,37.9-28.3c0.6,0.1,1.1,0.2,1.7,0.3
		l3.3,0.8l9.2,2.2l2.5,0.6c0.9,0.2,1.9,0.2,2.8-0.1c0.1,0,0.1,0,0.2,0c0.8-0.3,1.6-0.8,2.2-1.5c0.6-0.7,1-1.5,1.2-2.3l2.1-8.7
		l0.1-0.5l2.7-11.4"/>
	<path class="st3" d="M130.3,116.9h-9.4c-1.1,0-2.1-0.4-2.9-1.2c-0.8-0.8-1.2-1.8-1.2-2.8s0.4-2.1,1.2-2.8c0.8-0.8,1.8-1.2,2.9-1.2
		h13.3"/>
	<path class="st3" d="M123.1,116.9c-0.1,1.6-0.8,2.9-1.7,3.7c-2.4,2.2-6.7,1.9-9.8,0.4"/>
	<path class="st3" d="M105.4,116c-2.7-3.2-2.1-7.7-0.1-11.1c5.9-9.7,19.4-7.8,28.2-3.8c7.1,3.2,13.3,8.1,19.4,13
		c3,2.4,5.9,4.8,8.7,7.4c0.5,0.5,1.1,0.8,1.8,1c0.7,0.2,1.4,0.2,2.1,0.1c0.7-0.1,1.3-0.4,1.9-0.8c0.6-0.4,1-0.9,1.4-1.5
		c1.6-2.9,3.2-6,3.5-6.8"/>
	<path class="st3" d="M121.4,120.6c0,0,14,7.6,24.4,18.5"/>
	<path class="st3" d="M140.3,156.7c-1.6,2.6-0.2,6.5,2.7,7.5c3.7,1.2,7.7,1.6,11.6,1.2c4.3-0.5,7.1-4,9-8c0.1-0.3,0.2-0.6,0.2-1
		c0-0.3-0.1-0.7-0.2-1c-0.1-0.3-0.3-0.6-0.6-0.8c-0.2-0.2-0.5-0.4-0.8-0.5c-0.6-0.2-1.2-0.2-1.7,0.1c-0.5,0.2-1,0.7-1.2,1.2
		c-0.6,1.4-1.6,3.2-2.8,4"/>
	<path class="st3" d="M147.6,156.2c0,0-3.8,4.1-0.8,8.5c0.1,0.2,0.3,0.3,0.5,0.5"/>
	<path class="st3" d="M152.7,156.9c0,0-3.5,8,1,8.5"/>
	<path class="st3" d="M278.4,185.1H59.1"/>
	<path class="st3" d="M145.4,170.1h-21.9c-0.2,2.1-1.2,4-2.7,5.4c-1.5,1.4-3.5,2.2-5.6,2.1H41.7c0,2,0.8,3.9,2.2,5.3
		c1.4,1.4,3.3,2.2,5.3,2.2h96.2c2,0,3.9-0.8,5.3-2.2c1.4-1.4,2.2-3.3,2.2-5.3v-5c0-0.7-0.3-1.3-0.7-1.8s-1.1-0.7-1.8-0.7
		L145.4,170.1z"/>
	<path class="st3" d="M111.6,121.1c0.6,0.9,1.1,1.9,1.4,3l10.4,43.2c0.2,0.9,0.3,1.9,0.2,2.9c-0.2,2.1-1.2,4-2.7,5.4
		c-1.5,1.4-3.5,2.2-5.6,2.1H40.3c-1.9,0-3.7-0.6-5.2-1.8c-1.5-1.2-2.5-2.8-3-4.6L21.8,128c-0.3-1.2-0.3-2.5,0-3.8
		c0.3-1.2,0.8-2.4,1.6-3.4c0.8-1,1.8-1.8,2.9-2.4c1.1-0.6,2.4-0.8,3.7-0.8h74.8c1.2,0,2.4,0.3,3.6,0.8c1.1,0.5,2.1,1.3,2.9,2.2
		L111.6,121.1z"/>
	<path class="st4" d="M99.9,67.3c-0.5-0.6-1-1.1-1.5-1.6c-2.9-2.9-6.4-5.3-10.3-6.9c-3.8-1.6-8-2.4-12.1-2.4H36.8
		c-4.2,0-8.3,0.8-12.1,2.4c-3.8,1.6-7.3,3.9-10.3,6.9c-2.9,2.9-5.3,6.4-6.9,10.3c-1.6,3.8-2.4,8-2.4,12.1v0.2c0,3,0.7,5.9,2.2,8.4
		c1.6,1.6,3.5,3,5.7,3.8c2.1,0.9,4.4,1.3,6.7,1.3h38.5c1.2,0,2.3,0.5,3.1,1.3c0.8,0.8,1.3,2,1.3,3.1c0,1.2,0.5,2.3,1.3,3.1
		c0.8,0.8,2,1.3,3.1,1.3h0.1l9.5-0.2c0-0.1,0-0.2,0-0.3c-0.8-0.3-1.5-0.8-2-1.5s-0.8-1.6-0.8-2.4v-0.2c0-1.2,0.5-2.3,1.3-3.1
		c0.8-0.8,2-1.3,3.1-1.3h9.4c4.6,0,9-1.8,12.3-5.1c3.3-3.3,5.1-7.7,5.1-12.3C104.9,78.3,103.2,72.4,99.9,67.3z M32,85.7
		c-1.5,0-3-0.4-4.2-1.3c-1.2-0.8-2.2-2-2.8-3.4c-0.6-1.4-0.7-2.9-0.4-4.4c0.3-1.5,1-2.8,2.1-3.9c1.1-1.1,2.4-1.8,3.9-2.1
		c1.5-0.3,3-0.1,4.4,0.4c1.4,0.6,2.6,1.5,3.4,2.8c0.8,1.2,1.3,2.7,1.3,4.2c0,2-0.8,3.9-2.2,5.4C35.9,84.9,34,85.7,32,85.7z
		 M56.7,85.7c-1.5,0-3-0.4-4.2-1.3c-1.2-0.8-2.2-2-2.8-3.4c-0.6-1.4-0.7-2.9-0.4-4.4c0.3-1.5,1-2.8,2.1-3.9c1.1-1.1,2.4-1.8,3.9-2.1
		c1.5-0.3,3-0.1,4.4,0.4c1.4,0.6,2.6,1.5,3.4,2.8c0.8,1.2,1.3,2.7,1.3,4.2c0,1-0.2,2-0.6,2.9c-0.4,0.9-0.9,1.8-1.6,2.5
		c-0.7,0.7-1.5,1.3-2.5,1.6C58.7,85.5,57.7,85.7,56.7,85.7z M80.3,85.7c-1.5,0-3-0.4-4.2-1.3c-1.2-0.8-2.2-2-2.8-3.4
		c-0.6-1.4-0.7-2.9-0.4-4.4c0.3-1.5,1-2.8,2.1-3.9c1.1-1.1,2.4-1.8,3.9-2.1c1.5-0.3,3-0.1,4.4,0.4c1.4,0.6,2.6,1.5,3.4,2.8
		c0.8,1.2,1.3,2.7,1.3,4.2c0,1-0.2,2-0.6,2.9c-0.4,0.9-0.9,1.8-1.6,2.5c-0.7,0.7-1.5,1.3-2.5,1.6C82.3,85.5,81.3,85.7,80.3,85.7z"/>
	<path class="st3" d="M104.9,84.4c0,4.6-1.8,9-5.1,12.3c-3.3,3.3-7.7,5.1-12.3,5.1h-9.4c-1.2,0-2.3,0.5-3.1,1.3
		c-0.8,0.8-1.3,2-1.3,3.1v0.2c0,0.9,0.3,1.7,0.8,2.4c0.5,0.7,1.2,1.2,2,1.5c0.4,0.1,0.9,0.2,1.3,0.2l-1.3,0l-9.5,0.2h-0.1
		c-1.2,0-2.3-0.5-3.1-1.3c-0.8-0.8-1.3-2-1.3-3.1c0-1.2-0.5-2.3-1.3-3.1c-0.8-0.8-2-1.3-3.1-1.3H19.6c-4.6,0-9-1.8-12.3-5.1
		c-3.3-3.3-5.1-7.7-5.1-12.3v-0.2c0-4.2,0.8-8.3,2.4-12.1c1.6-3.8,3.9-7.3,6.9-10.3c2.9-2.9,6.4-5.3,10.3-6.9s8-2.4,12.1-2.4h39.2
		c8.4,0,16.5,3.3,22.4,9.3C101.5,67.9,104.9,76,104.9,84.4z"/>
	<path class="st3" d="M203.1,95.4C203.1,95.4,203.1,95.4,203.1,95.4c-7.4-2.2-11-6.8-12.5-11.1c0,0,0,0,0,0
		c-1.2-3.4-1.2-6.6-0.7-8.6c0.3-1,0.4-2.1,0.5-3.2c0.1-3-2.1-2.3-8.4-1c-2.9,0.6-4.8-0.5-5.7-2.1c-0.1-0.1-0.2-0.3-0.2-0.4
		c-0.4-0.9-0.6-1.9-0.5-2.9"/>
	<path class="st3" d="M171.8,83.4c-0.1-0.2-0.2-0.3-0.3-0.4c-1-1.1-2.1-1-3.9-0.3c-0.4,0.2-1.5,0.1-2.4-0.2c-0.7-0.3-1.3-0.7-1-1.4
		c0.1-0.1,0.2-0.3,0.3-0.4c0.1-0.1,0.3-0.2,0.4-0.2c0.3-0.1,0.6-0.1,0.9-0.2c3-0.7,2.3-4.2,2-6.3c-0.9-5.5,0.3-12,4-16.3
		c4.1-4.7,10.9-5.7,16.6-3.5c5,1.9,9.8,6,10.7,11.5c0,0,0,0,0,0.1c0,0,0,0,0,0.1c0.6,3.4,0,7.2-0.7,10.6c-0.4,2-0.3,3.7,0.3,5
		c1.8,4.5,7.7,6,12.5,8.2c11.3,5.2,20.5,14.1,26.7,25c4.9,8.6,6.1,13.9,5.8,17.1c-0.4,4.4-3.3,5.1-3.3,5.1c-2.5,1.5-6.4-0.1-7.1-2.9
		c0,0,0-0.1,0-0.1c-0.6-2.4-1.8-5.4-3.5-8.8"/>
	<path class="st3" d="M175.4,66c0,1.7-0.8,3.3-2.5,4c-1.9,0.8-2.7,2.9-3,4.9c-0.4,3,0.2,6,1.8,8.5c1.4,2.4,3.8,5,7.1,5
		c6.1,0,8.7-2.9,8.7-2.9"/>
	<path d="M181.7,75.9c0.6,0,1-0.5,1-1c0-0.6-0.5-1-1-1c-0.6,0-1,0.5-1,1C180.7,75.4,181.1,75.9,181.7,75.9z"/>
	<path d="M172.6,76.5c0.6,0,1-0.5,1-1c0-0.6-0.5-1-1-1c-0.6,0-1,0.5-1,1C171.6,76,172,76.5,172.6,76.5z"/>
	<path class="st3" d="M177.1,73.9c0,0-0.5,4.1-0.3,4.6c0.2,0.6,1.5-0.1,1.5-0.1"/>
	<path class="st3" d="M179,82c2.2,0.8,4.5-0.2,5.2-2.2"/>
	<path class="st3" d="M187.1,76.3c1.5-2.1,1-5.1-1.2-6.6c-2.2-1.5-5.2-1.1-6.7,1.1c-1.5,2.1-1,5.1,1.2,6.6
		C182.6,78.9,185.6,78.5,187.1,76.3z"/>
	<path class="st3" d="M175,76.9c1.5-2.1,1-5.1-1.2-6.6c-2.2-1.5-5.2-1.1-6.7,1.1c-1.5,2.1-1,5.1,1.2,6.6
		C170.5,79.5,173.5,79.1,175,76.9z"/>
	<path class="st5" d="M170.9,70.9c0.9,0,1.7,0.3,2.3,0.9c0.6,0.6,1,1.4,1.1,2.2c0,0.4,0,0.9-0.2,1.3c-0.1,0.4-0.4,0.8-0.6,1.1
		c-0.3,0.3-0.6,0.6-1,0.8c-0.4,0.2-0.8,0.3-1.2,0.3h-0.2c-0.9,0-1.7-0.3-2.3-0.9c-0.6-0.6-1-1.4-1.1-2.2c0-0.4,0-0.9,0.2-1.3
		c0.1-0.4,0.4-0.8,0.6-1.1c0.3-0.3,0.6-0.6,1-0.8c0.4-0.2,0.8-0.3,1.2-0.3L170.9,70.9 M170.9,70.2h-0.2c-0.5,0-1,0.2-1.5,0.4
		c-0.5,0.2-0.9,0.5-1.2,0.9c-0.3,0.4-0.6,0.8-0.8,1.3c-0.2,0.5-0.2,1-0.2,1.5c0.1,1,0.6,2,1.3,2.7c0.8,0.7,1.8,1.1,2.8,1.1h0.2
		c0.5,0,1-0.2,1.5-0.4c0.5-0.2,0.9-0.5,1.2-0.9c0.3-0.4,0.6-0.8,0.8-1.3c0.2-0.5,0.2-1,0.2-1.5c-0.1-1-0.6-2-1.3-2.7
		C173,70.6,172,70.2,170.9,70.2z"/>
	<path class="st3" d="M178.4,73.8l-2.5,0.1"/>
	<path class="st6" d="M186.5,75.9c1.3-1.8,0.8-4.3-1-5.6c-1.8-1.3-4.4-0.9-5.6,0.9c-1.3,1.8-0.8,4.3,1,5.6
		C182.7,78.1,185.2,77.7,186.5,75.9z"/>
	<path class="st6" d="M174.4,76.5c1.3-1.8,0.8-4.3-1-5.6c-1.8-1.3-4.4-0.9-5.6,0.9c-1.3,1.8-0.8,4.3,1,5.6
		C170.6,78.7,173.1,78.3,174.4,76.5z"/>
	<path class="st3" d="M180.7,88.4l5.6,13.4c0,0,10.9,2.9,13.5-7.4"/>
	<path class="st4" d="M73.6,158c4.3-1.3,6.5-6.3,5-11.1c-1.5-4.8-6.2-7.6-10.5-6.2c-4.3,1.3-6.5,6.3-5,11.1
		C64.6,156.5,69.3,159.3,73.6,158z"/>
	<path class="st3" d="M179.2,185.1c-0.1-10.9-2-21.7-2.9-26.1"/>
</g>
</svg>
