<svg width="196" height="146" viewBox="0 0 196 146" fill="none" xmlns="http://www.w3.org/2000/svg">
<path d="M195.5 128.303H0.5V128.4H195.5V128.303Z" fill="#EBEBEB"/>
<path d="M92.93 110.825H17.6249C17.0349 110.824 16.4695 110.587 16.0527 110.168C15.6359 109.748 15.4019 109.18 15.4019 108.587V2.21806C15.407 1.62868 15.6433 1.06513 16.0596 0.649828C16.4758 0.234526 17.0383 0.00100964 17.6249 0H92.93C93.5206 0 94.087 0.235752 94.5046 0.655394C94.9222 1.07504 95.1569 1.64419 95.1569 2.23765V108.587C95.1569 109.18 94.9222 109.75 94.5046 110.169C94.087 110.589 93.5206 110.825 92.93 110.825ZM17.6249 0.078377C17.0608 0.0794151 16.5202 0.305303 16.1217 0.706458C15.7232 1.10761 15.4994 1.65126 15.4994 2.21806V108.587C15.4994 109.154 15.7232 109.697 16.1217 110.099C16.5202 110.5 17.0608 110.726 17.6249 110.727H92.93C93.4944 110.726 94.0354 110.5 94.4345 110.099C94.8336 109.698 95.0583 109.154 95.0594 108.587V2.21806C95.0583 1.6509 94.8336 1.10726 94.4345 0.706219C94.0354 0.305175 93.4944 0.0794129 92.93 0.078377H17.6249Z" fill="#EBEBEB"/>
<path d="M177.291 110.825H101.982C101.391 110.824 100.826 110.587 100.408 110.168C99.9909 109.749 99.7559 109.18 99.7549 108.587V2.21806C99.761 1.62832 99.9983 1.06478 100.415 0.649583C100.832 0.234389 101.395 0.000998632 101.982 0H177.291C177.877 0.00203955 178.438 0.236011 178.854 0.651203C179.269 1.0664 179.505 1.62935 179.51 2.21806V108.587C179.51 109.179 179.276 109.747 178.86 110.166C178.444 110.586 177.88 110.823 177.291 110.825ZM101.982 0.078377C101.417 0.0794129 100.876 0.305175 100.477 0.706219C100.078 1.10726 99.8534 1.6509 99.8524 2.21806V108.587C99.8534 109.154 100.078 109.698 100.477 110.099C100.876 110.5 101.417 110.726 101.982 110.727H177.291C177.855 110.726 178.396 110.5 178.795 110.099C179.194 109.698 179.419 109.154 179.42 108.587V2.21806C179.419 1.6509 179.194 1.10726 178.795 0.706219C178.396 0.305175 177.855 0.0794129 177.291 0.078377H101.982Z" fill="#EBEBEB"/>
<path d="M175.961 134.608H165.821V134.706H175.961V134.608Z" fill="#EBEBEB"/>
<path d="M139.352 135.674H121.79V135.772H139.352V135.674Z" fill="#EBEBEB"/>
<path d="M165.431 130.971H141.723V131.069H165.431V130.971Z" fill="#EBEBEB"/>
<path d="M28.4592 131.63H20.9595V131.727H28.4592V131.63Z" fill="#EBEBEB"/>
<path d="M53.4972 131.63H31.9341V131.727H53.4972V131.63Z" fill="#EBEBEB"/>
<path d="M95.7147 133.283H66.6714V133.381H95.7147V133.283Z" fill="#EBEBEB"/>
<path d="M148.15 126.296H151.27V68.2778H148.15V126.296Z" fill="#F0F0F0"/>
<path d="M133.178 128.295H150.451V126.292H133.178V128.295Z" fill="#F0F0F0"/>
<path d="M148.154 68.2739H132.351V126.292H148.154V68.2739Z" fill="#F5F5F5"/>
<path d="M146.469 98.488H134.036V108.849H146.469V98.488Z" fill="#F0F0F0"/>
<path d="M146.469 112.047H134.036V122.409H146.469V112.047Z" fill="#F0F0F0"/>
<path d="M138.595 104.378H141.906C142.16 104.378 142.366 104.171 142.366 103.916V103.418C142.366 103.162 142.16 102.955 141.906 102.955H138.595C138.341 102.955 138.135 103.162 138.135 103.418V103.916C138.135 104.171 138.341 104.378 138.595 104.378Z" fill="#F5F5F5"/>
<path d="M138.595 117.938H141.906C142.16 117.938 142.366 117.73 142.366 117.475V116.977C142.366 116.722 142.16 116.515 141.906 116.515H138.595C138.341 116.515 138.135 116.722 138.135 116.977V117.475C138.135 117.73 138.341 117.938 138.595 117.938Z" fill="#F5F5F5"/>
<path d="M146.469 71.4756H134.036V81.837H146.469V71.4756Z" fill="#F0F0F0"/>
<path d="M146.469 84.925H134.036V95.2864H146.469V84.925Z" fill="#F0F0F0"/>
<path d="M138.595 77.3657H141.906C142.16 77.3657 142.366 77.1587 142.366 76.9033V76.4056C142.366 76.1502 142.16 75.9432 141.906 75.9432H138.595C138.341 75.9432 138.135 76.1502 138.135 76.4056V76.9033C138.135 77.1587 138.341 77.3657 138.595 77.3657Z" fill="#F5F5F5"/>
<path d="M138.595 90.8188H141.906C142.16 90.8188 142.366 90.6118 142.366 90.3564V89.8587C142.366 89.6033 142.16 89.3963 141.906 89.3963H138.595C138.341 89.3963 138.135 89.6033 138.135 89.8587V90.3564C138.135 90.6118 138.341 90.8188 138.595 90.8188Z" fill="#F5F5F5"/>
<path d="M165.447 126.296H174.807V68.2778H165.447V126.296Z" fill="#F0F0F0"/>
<path d="M150.463 128.295H173.843V126.292H150.463V128.295Z" fill="#F0F0F0"/>
<path d="M165.446 68.2739H149.644V126.292H165.446V68.2739Z" fill="#F5F5F5"/>
<path d="M163.762 98.488H151.329V108.849H163.762V98.488Z" fill="#F0F0F0"/>
<path d="M163.762 112.047H151.329V122.409H163.762V112.047Z" fill="#F0F0F0"/>
<path d="M155.888 104.378H159.199C159.453 104.378 159.659 104.171 159.659 103.916V103.418C159.659 103.162 159.453 102.955 159.199 102.955H155.888C155.634 102.955 155.428 103.162 155.428 103.418V103.916C155.428 104.171 155.634 104.378 155.888 104.378Z" fill="#F5F5F5"/>
<path d="M155.888 117.938H159.199C159.453 117.938 159.659 117.73 159.659 117.475V116.977C159.659 116.722 159.453 116.515 159.199 116.515H155.888C155.634 116.515 155.428 116.722 155.428 116.977V117.475C155.428 117.73 155.634 117.938 155.888 117.938Z" fill="#F5F5F5"/>
<path d="M163.762 71.4756H151.329V81.837H163.762V71.4756Z" fill="#F0F0F0"/>
<path d="M163.762 84.925H151.329V95.2864H163.762V84.925Z" fill="#F0F0F0"/>
<path d="M155.888 77.3657H159.199C159.453 77.3657 159.659 77.1587 159.659 76.9033V76.4056C159.659 76.1502 159.453 75.9432 159.199 75.9432H155.888C155.634 75.9432 155.428 76.1502 155.428 76.4056V76.9033C155.428 77.1587 155.634 77.3657 155.888 77.3657Z" fill="#F5F5F5"/>
<path d="M155.888 90.8188H159.199C159.453 90.8188 159.659 90.6118 159.659 90.3564V89.8587C159.659 89.6033 159.453 89.3963 159.199 89.3963H155.888C155.634 89.3963 155.428 89.6033 155.428 89.8587V90.3564C155.428 90.6118 155.634 90.8188 155.888 90.8188Z" fill="#F5F5F5"/>
<path d="M114.626 56.1646L167.163 56.1646V9.82043L114.626 9.82043V56.1646Z" fill="#E6E6E6"/>
<path d="M108.994 8.01782H170.563C170.702 8.01782 170.835 8.07315 170.933 8.17163C171.031 8.27011 171.086 8.40368 171.086 8.54295C171.085 8.68154 171.029 8.8141 170.931 8.91173C170.833 9.00937 170.701 9.06415 170.563 9.06415H108.994C108.857 9.06312 108.725 9.00788 108.628 8.91036C108.531 8.81284 108.476 8.68086 108.475 8.54295C108.475 8.40435 108.53 8.27137 108.627 8.17301C108.724 8.07464 108.856 8.01886 108.994 8.01782Z" fill="#E6E6E6"/>
<path d="M112.399 56.1646L166.125 56.1646V9.82043L112.399 9.82043V56.1646Z" fill="#F0F0F0"/>
<path d="M114.625 56.1646H167.162V57.6498H113.089L114.625 56.1646Z" fill="#E6E6E6"/>
<path d="M108.682 56.1646H162.408L160.872 57.6498H107.146L108.682 56.1646Z" fill="#F0F0F0"/>
<path d="M163.001 53.0298V12.9558L115.518 12.9558V53.0298H163.001Z" fill="#FAFAFA"/>
<path d="M152.222 53.0296L133.904 12.9556H125.257L143.576 53.0296H152.222Z" fill="white"/>
<path d="M141.719 53.0296L123.401 12.9556H120.027L138.346 53.0296H141.719Z" fill="white"/>
<path d="M115.913 53.0298V12.9558H115.514V53.0298H115.913Z" fill="#E6E6E6"/>
<g opacity="0.4">
<path d="M162.962 45.3213H168.333V7.0774H162.962V45.3213Z" fill="#F0F0F0"/>
<path d="M160.872 45.3213H165.057V7.0774H160.872V45.3213Z" fill="#E6E6E6"/>
<path d="M157.596 45.3213H162.966V7.0774H157.596V45.3213Z" fill="#F0F0F0"/>
<path d="M155.501 45.3213H159.686V7.0774H155.501V45.3213Z" fill="#E6E6E6"/>
<path d="M152.222 45.3213H157.592V7.0774H152.222V45.3213Z" fill="#F0F0F0"/>
</g>
<g opacity="0.4">
<path d="M117.515 45.3213H120.612V7.0774H117.515V45.3213Z" fill="#F0F0F0"/>
<path d="M116.31 45.3213H118.72V7.0774H116.31V45.3213Z" fill="#E6E6E6"/>
<path d="M114.419 45.3213H117.515V7.0774H114.419V45.3213Z" fill="#F0F0F0"/>
<path d="M113.218 45.3213H115.628V7.0774H113.218V45.3213Z" fill="#E6E6E6"/>
<path d="M111.322 45.3213H114.418V7.0774H111.322V45.3213Z" fill="#F0F0F0"/>
</g>
<path d="M64.5459 37.8953H71.9793L71.1018 18.9517H64.5459V37.8953Z" fill="#F5F5F5"/>
<path d="M76.1791 38.9177L77.782 47.3315H76.1791L66.3472 38.9177H76.1791Z" fill="#F5F5F5"/>
<path d="M77.7821 38.9177V47.3315L67.9502 38.9177H77.7821Z" fill="#E6E6E6"/>
<path d="M37.62 38.9177L39.2229 47.3315H37.62L27.7881 38.9177H37.62Z" fill="#F5F5F5"/>
<path d="M39.223 38.9177V47.3315L29.3911 38.9177H39.223Z" fill="#E6E6E6"/>
<path d="M85.0014 37.9226H74.3076V39.1374H85.0014V37.9226Z" fill="#E6E6E6"/>
<path d="M21.1428 39.1375L74.3076 39.1375V37.9226L21.1428 37.9226V39.1375Z" fill="#F5F5F5"/>
<path d="M53.6221 37.895H69.5809L71.5543 14.9385H55.5955L53.6221 37.895Z" fill="#E6E6E6"/>
<path d="M52.7949 37.895H68.7537L70.7271 14.9385H54.7683L52.7949 37.895Z" fill="#F0F0F0"/>
<path d="M67.416 35.3516L69.2217 17.4778H56.1099L54.3042 35.3516H67.416Z" fill="white"/>
<path d="M46.4771 37.8952H51.5978L50.9933 24.8494H46.4771V37.8952Z" fill="#E0E0E0"/>
<path d="M38.9575 37.8952H49.9438L51.3049 22.0867H40.3147L38.9575 37.8952Z" fill="#F0F0F0"/>
<path d="M38.3887 37.8952H49.3789L50.7361 22.0867H39.7459L38.3887 37.8952Z" fill="#F5F5F5"/>
<path d="M48.4543 36.1435L49.6945 23.8384H40.6699L39.4258 36.1435H48.4543Z" fill="#E0E0E0"/>
<path d="M102.82 71.1033C102.857 71.5414 102.763 71.9805 102.551 72.3651C102.339 72.7496 102.018 73.0623 101.629 73.2635C101.24 73.4648 100.8 73.5455 100.365 73.4955C99.9305 73.4456 99.5203 73.2671 99.1866 72.9828C98.8528 72.6985 98.6105 72.3211 98.4903 71.8983C98.3701 71.4756 98.3775 71.0265 98.5114 70.608C98.6453 70.1894 98.8998 69.8201 99.2426 69.547C99.5854 69.2738 100.001 69.1089 100.437 69.0733C100.726 69.0491 101.018 69.0825 101.294 69.1715C101.57 69.2605 101.826 69.4033 102.048 69.5919C102.269 69.7804 102.451 70.0109 102.584 70.2703C102.716 70.5296 102.797 70.8127 102.82 71.1033Z" fill="#E0E0E0"/>
<path d="M106.927 72.2633C106.964 72.7015 106.87 73.1406 106.658 73.5252C106.446 73.9097 106.125 74.2224 105.736 74.4236C105.347 74.6249 104.907 74.7056 104.472 74.6556C104.037 74.6057 103.627 74.4272 103.294 74.1429C102.96 73.8586 102.717 73.4812 102.597 73.0584C102.477 72.6357 102.484 72.1866 102.618 71.768C102.752 71.3495 103.007 70.9802 103.35 70.7071C103.692 70.4339 104.108 70.269 104.544 70.2334C105.128 70.1857 105.707 70.3726 106.153 70.7532C106.6 71.1338 106.878 71.6769 106.927 72.2633Z" fill="#E0E0E0"/>
<path d="M109.895 70.9308C109.93 71.3688 109.836 71.8076 109.623 72.1917C109.411 72.5758 109.089 72.8879 108.7 73.0885C108.311 73.2892 107.871 73.3693 107.437 73.3189C107.002 73.2684 106.593 73.0896 106.259 72.8051C105.926 72.5205 105.684 72.143 105.564 71.7204C105.444 71.2977 105.452 70.8488 105.586 70.4304C105.72 70.0121 105.975 69.6431 106.317 69.3701C106.66 69.0971 107.076 68.9324 107.512 68.8969C108.096 68.8503 108.675 69.0381 109.121 69.4193C109.568 69.8005 109.846 70.344 109.895 70.9308Z" fill="#E0E0E0"/>
<path d="M113.026 71.7617C113.061 72.1987 112.966 72.6362 112.754 73.0191C112.541 73.4019 112.22 73.7129 111.832 73.9126C111.444 74.1124 111.005 74.1921 110.572 74.1416C110.138 74.091 109.73 73.9126 109.397 73.6288C109.064 73.345 108.823 72.9685 108.703 72.5469C108.584 72.1253 108.591 71.6776 108.724 71.2602C108.858 70.8428 109.111 70.4744 109.453 70.2017C109.794 69.929 110.209 69.7641 110.644 69.7278C110.933 69.7037 111.224 69.7372 111.501 69.8264C111.777 69.9156 112.034 70.0588 112.255 70.2478C112.476 70.4367 112.659 70.6677 112.791 70.9275C112.923 71.1873 113.003 71.4708 113.026 71.7617Z" fill="#E0E0E0"/>
<path d="M115.839 72.1064C115.839 72.1064 115.581 78.2747 105.722 78.2747C95.8628 78.2747 95.582 72.1064 95.582 72.1064H115.839Z" fill="#F0F0F0"/>
<path d="M23.8534 128.303H27.4375L27.4375 78.2867H23.8534L23.8534 128.303Z" fill="#E6E6E6"/>
<path d="M22.8979 128.303H25.0078L25.0078 78.2867H22.8979L22.8979 128.303Z" fill="#F0F0F0"/>
<path d="M73.1221 78.2866H22.2427V82.0369H73.1221V78.2866Z" fill="#F0F0F0"/>
<path d="M121.306 128.303H124.89V78.2867H121.306V128.303Z" fill="#E6E6E6"/>
<path d="M120.635 128.303H122.745V78.2867H120.635V128.303Z" fill="#F0F0F0"/>
<path d="M125.53 78.2866H74.6509V82.0369H125.53V78.2866Z" fill="#E6E6E6"/>
<path d="M73.4223 128.303H77.0063V78.2867H73.4223V128.303Z" fill="#E6E6E6"/>
<path d="M72.4668 128.303H74.5767V78.2867H72.4668V128.303Z" fill="#F0F0F0"/>
<path d="M85.1842 61.6511H58.6213L53.8867 77.4127H80.4535L85.1842 61.6511Z" fill="#E6E6E6"/>
<path d="M80.4538 77.4128L80.3485 78.2867H53.7817L53.887 77.4128H80.4538Z" fill="#E6E6E6"/>
<path d="M84.3693 61.6511H57.8025L53.0718 77.4127H79.6347L84.3693 61.6511Z" fill="#F0F0F0"/>
<path d="M79.116 76.6954L83.4138 62.3721H58.3251L54.0234 76.6954H79.116Z" fill="white"/>
<path d="M72.7161 77.4128L72.6069 78.2867H43.353L43.4583 77.4128H72.7161Z" fill="#F0F0F0"/>
<path d="M97.9999 146C139.762 146 173.617 144.014 173.617 141.564C173.617 139.114 139.762 137.128 97.9999 137.128C56.2377 137.128 22.3828 139.114 22.3828 141.564C22.3828 144.014 56.2377 146 97.9999 146Z" fill="#F5F5F5"/>
<path d="M147.744 21.2205H102.859C101.32 21.246 99.845 21.8471 98.7229 22.9065C97.6008 23.9659 96.9119 25.4075 96.7908 26.9499L89.8098 134.937C89.753 135.673 89.849 136.412 90.0919 137.108C90.3348 137.804 90.7193 138.441 91.2207 138.98C91.7222 139.518 92.3297 139.946 93.0047 140.236C93.6796 140.525 94.4072 140.671 95.1411 140.663H140.042C141.581 140.638 143.056 140.038 144.178 138.979C145.3 137.92 145.989 136.479 146.11 134.937L151.118 57.3208C151.331 57.2462 151.517 57.1115 151.656 56.9329C151.794 56.7542 151.878 56.5392 151.898 56.3137L152.795 42.4253C152.811 42.2096 152.756 41.9946 152.639 41.8128C152.522 41.6311 152.35 41.4926 152.147 41.4182L153.08 26.9499C153.136 26.2141 153.04 25.4744 152.797 24.778C152.554 24.0815 152.169 23.4436 151.668 22.9047C151.166 22.3658 150.558 21.9377 149.882 21.6478C149.207 21.3578 148.479 21.2123 147.744 21.2205Z" fill="#18355D"/>
<path d="M93.1564 49.1812H94.0378C94.3105 49.1763 94.5717 49.0697 94.7706 48.8821C94.9695 48.6946 95.092 48.4394 95.1142 48.1662L95.5042 42.3664C95.5139 42.2359 95.4966 42.1048 95.4532 41.9814C95.4099 41.858 95.3415 41.745 95.2524 41.6496C95.1633 41.5541 95.0554 41.4783 94.9356 41.427C94.8158 41.3757 94.6867 41.3499 94.5565 41.3514H93.679C93.406 41.3554 93.1443 41.4617 92.9452 41.6495C92.7461 41.8372 92.6239 42.0928 92.6026 42.3664L92.2126 48.1662C92.2029 48.2964 92.2201 48.4272 92.2632 48.5503C92.3064 48.6734 92.3744 48.7862 92.4631 48.8816C92.5518 48.9769 92.6592 49.0528 92.7785 49.1044C92.8978 49.156 93.0265 49.1821 93.1564 49.1812Z" fill="#18355D"/>
<path d="M92.4895 59.535H93.367C93.6408 59.53 93.903 59.423 94.1026 59.2347C94.3023 59.0464 94.4251 58.7903 94.4473 58.5161L94.8373 52.7201C94.8471 52.5896 94.8297 52.4585 94.7864 52.3351C94.743 52.2117 94.6746 52.0987 94.5855 52.0033C94.4964 51.9079 94.3885 51.8321 94.2688 51.7808C94.149 51.7294 94.0199 51.7037 93.8896 51.7051H93.0121C92.7387 51.7091 92.4766 51.8153 92.2768 52.0029C92.0771 52.1906 91.9541 52.4463 91.9318 52.7201L91.5418 58.5161C91.5309 58.647 91.5474 58.7788 91.5903 58.9029C91.6332 59.027 91.7015 59.1408 91.7907 59.2368C91.88 59.3328 91.9883 59.4089 92.1087 59.4603C92.2291 59.5116 92.3588 59.5371 92.4895 59.535Z" fill="#18355D"/>
<path d="M137.655 140.663H92.7701C92.0361 140.671 91.3085 140.525 90.6336 140.236C89.9586 139.946 89.3511 139.518 88.8496 138.98C88.3482 138.441 87.9637 137.804 87.7208 137.108C87.4779 136.412 87.3819 135.672 87.4388 134.937L94.4042 26.9498C94.5262 25.4071 95.2158 23.9655 96.3385 22.9061C97.4613 21.8468 98.9365 21.2458 100.476 21.2205H145.358C146.092 21.2128 146.819 21.3588 147.494 21.6489C148.169 21.9391 148.777 22.3673 149.278 22.9061C149.78 23.4449 150.164 24.0827 150.407 24.7789C150.65 25.475 150.746 26.2144 150.689 26.9498L143.724 134.937C143.602 136.479 142.913 137.92 141.791 138.979C140.669 140.038 139.194 140.638 137.655 140.663Z" fill="#263238"/>
<path opacity="0.2" d="M118.264 136.071C119.836 134.541 119.954 132.101 118.528 130.621C117.102 129.14 114.671 129.18 113.099 130.71C111.527 132.239 111.408 134.679 112.834 136.159C114.261 137.64 116.691 137.6 118.264 136.071Z" fill="white"/>
<path d="M141.711 126.645H90.6876C90.5139 126.645 90.342 126.609 90.1826 126.539C90.0232 126.47 89.8797 126.368 89.7609 126.241C89.6422 126.113 89.5506 125.963 89.492 125.798C89.4334 125.634 89.4089 125.459 89.4201 125.285L95.391 32.6752C95.4174 32.3553 95.5623 32.057 95.797 31.8393C96.0317 31.6216 96.3391 31.5004 96.6585 31.4995H147.686C147.86 31.4997 148.032 31.5356 148.191 31.6052C148.351 31.6747 148.494 31.7763 148.613 31.9037C148.732 32.0312 148.823 32.1817 148.882 32.3461C148.94 32.5104 148.965 32.6851 148.954 32.8593L142.979 125.45C142.958 125.773 142.815 126.077 142.58 126.299C142.345 126.521 142.034 126.645 141.711 126.645Z" fill="white"/>
<path opacity="0.2" d="M127.475 90.1433C133.182 84.5915 133.612 75.7343 128.434 70.36C123.257 64.9858 114.433 65.1298 108.725 70.6815C103.018 76.2333 102.588 85.0905 107.766 90.4648C112.943 95.839 121.767 95.695 127.475 90.1433Z" fill="#18355D"/>
<path opacity="0.2" d="M116.72 101.992C104.876 101.992 95.8628 92.3082 96.6311 80.4067C97.3994 68.5052 107.656 58.8218 119.505 58.8218C131.353 58.8218 140.362 68.5052 139.594 80.4067C138.825 92.3082 128.553 101.992 116.72 101.992ZM119.45 59.2137C107.82 59.2137 97.7465 68.7207 96.9938 80.4067C96.2411 92.0927 105.086 101.6 116.716 101.6C128.346 101.6 138.42 92.0927 139.176 80.4067C139.933 68.7207 131.095 59.2137 119.45 59.2137Z" fill="#18355D"/>
<path d="M114.77 87.1901L113.6 84.9211C111.065 79.9795 105.227 75.5629 103.187 74.2776L105.114 71.3815C107.528 72.9021 112.352 76.6681 115.378 81.1434C120.975 74.4813 128.884 67.6195 139.473 60.2168L141.278 62.96C129.968 70.8682 121.829 78.0984 116.416 85.0661L114.77 87.1901Z" fill="#18355D"/>
<path opacity="0.2" d="M114.217 27.385C114.853 26.7663 114.9 25.7781 114.322 25.1779C113.743 24.5776 112.759 24.5926 112.123 25.2113C111.487 25.83 111.44 26.8181 112.018 27.4184C112.597 28.0186 113.581 28.0037 114.217 27.385Z" fill="white"/>
<path opacity="0.2" d="M118.635 24.7357H131.54C131.741 24.7333 131.94 24.7732 132.124 24.8526C132.308 24.932 132.474 25.0493 132.611 25.1969C132.747 25.3445 132.852 25.5191 132.917 25.7097C132.983 25.9002 133.008 26.1024 132.991 26.3032C132.959 26.7245 132.772 27.1186 132.466 27.4085C132.16 27.6984 131.758 27.8632 131.337 27.8708H118.436C118.236 27.8725 118.037 27.8322 117.853 27.7527C117.668 27.6731 117.503 27.5559 117.366 27.4085C117.229 27.2611 117.124 27.0867 117.058 26.8964C116.992 26.7062 116.966 26.5042 116.981 26.3032C117.013 25.882 117.201 25.4879 117.506 25.198C117.812 24.9081 118.215 24.7433 118.635 24.7357Z" fill="white"/>
<path d="M70.5981 53.6879C69.939 54.3658 69.2331 55.1143 68.5818 55.8589C67.9305 56.6035 67.2792 57.3677 66.6669 58.1514C66.0546 58.9352 65.4969 59.719 64.9197 60.5458L64.5297 61.1611L64.1397 61.7842C64.011 61.9919 63.894 62.2035 63.7809 62.419L63.4689 62.9951C63.3417 63.3245 63.2693 63.6727 63.2544 64.0258C63.2232 64.4798 63.2232 64.9355 63.2544 65.3895C63.3309 66.3692 63.4611 67.3438 63.6444 68.3091C63.816 69.2966 64.0344 70.2881 64.2645 71.2756C64.4946 72.2632 64.7481 73.2625 65.0055 74.2343L63.5625 74.7791C62.6758 72.8623 61.9328 70.8817 61.3395 68.8538C61.0383 67.8086 60.8077 66.7442 60.6492 65.6678C60.5704 65.0938 60.53 64.5151 60.5283 63.9356C60.5192 63.2529 60.6342 62.5743 60.8676 61.9331C60.9573 61.7137 61.0041 61.6274 61.0665 61.4942L61.2459 61.1219C61.3629 60.875 61.4838 60.6281 61.6359 60.3891L62.0259 59.668L62.4393 58.9666C62.9902 58.0425 63.5904 57.149 64.2372 56.29C64.8768 55.4318 65.5398 54.5971 66.2379 53.7898C66.936 52.9825 67.6419 52.2222 68.4531 51.4385L70.5981 53.6879Z" fill="#B55B52"/>
<path d="M70.7659 48.9853C68.6521 49.0794 66.6436 52.6063 66.6436 52.6063L69.436 58.3317C69.436 58.3317 73.219 55.1653 73.2658 52.0616C73.297 50.0277 72.8446 48.8874 70.7659 48.9853Z" fill="#000662"/>
<path opacity="0.7" d="M70.7659 48.9853C68.6521 49.0794 66.6436 52.6063 66.6436 52.6063L69.436 58.3317C69.436 58.3317 73.219 55.1653 73.2658 52.0616C73.297 50.0277 72.8446 48.8874 70.7659 48.9853Z" fill="white"/>
<path opacity="0.2" d="M71.2694 53.1002C70.6532 54.0368 70.3568 56.4665 70.2632 57.5481C71.1937 56.6388 71.9826 55.5938 72.6032 54.4483C72.1859 53.4019 71.675 52.4849 71.2694 53.1002Z" fill="black"/>
<path d="M64.5888 73.6387L67.1589 74.4224L65.4468 76.1624C65.4468 76.1624 63.5943 75.5863 63.3369 74.3205L64.5888 73.6387Z" fill="#B55B52"/>
<path d="M68.715 76.3936L68.2821 78.0591L65.4468 76.1467L67.1589 74.4067L68.715 76.3936Z" fill="#B55B52"/>
<path d="M85.625 42.1862C85.5431 42.4174 85.6016 42.6525 85.7537 42.7074C85.9058 42.7622 86.093 42.6251 86.171 42.3939C86.249 42.1626 86.1944 41.9236 86.0423 41.8687C85.8902 41.8139 85.7069 41.951 85.625 42.1862Z" fill="#263238"/>
<path d="M85.9722 41.8569L86.5845 41.9078C86.5845 41.9078 86.1477 42.2322 85.9722 41.8569Z" fill="#263238"/>
<path d="M85.7423 42.4839C85.7653 43.0936 85.8703 43.6973 86.0543 44.2787C85.9054 44.3178 85.7499 44.3241 85.5984 44.297C85.4469 44.27 85.3031 44.2102 85.1768 44.122L85.7423 42.4839Z" fill="#A02724"/>
<path d="M86.3818 41.2808C86.3541 41.2769 86.328 41.2648 86.3072 41.2459C86.2863 41.227 86.2716 41.2023 86.2648 41.175C86.2221 40.9978 86.1399 40.8328 86.0243 40.6922C85.9088 40.5517 85.763 40.4394 85.5979 40.3638C85.5624 40.3505 85.5336 40.3238 85.5175 40.2893C85.5015 40.2549 85.4995 40.2155 85.5121 40.1796C85.5182 40.1616 85.5279 40.1451 85.5405 40.1309C85.5531 40.1168 85.5684 40.1053 85.5855 40.0973C85.6026 40.0892 85.6212 40.0847 85.6401 40.0841C85.659 40.0834 85.6778 40.0866 85.6954 40.0934C85.9077 40.1861 86.0953 40.3276 86.243 40.5067C86.3907 40.6858 86.4944 40.8972 86.5456 41.124C86.5503 41.1426 86.5513 41.1618 86.5485 41.1807C86.5457 41.1997 86.5393 41.2178 86.5295 41.2342C86.5197 41.2506 86.5068 41.2649 86.4915 41.2762C86.4762 41.2876 86.4588 41.2958 86.4403 41.3004L86.3818 41.2808Z" fill="#263238"/>
<path d="M77.6147 43.1697C77.6693 45.0233 77.4821 48.3582 76.0547 49.3026C76.0547 49.3026 76.2458 51.2072 79.5647 51.8538C83.2112 52.5631 81.6044 50.3843 81.6044 50.3843C79.6934 49.5221 79.9859 48.0565 80.5592 46.7397L77.6147 43.1697Z" fill="#B55B52"/>
<path d="M88.4528 55.855C88.7804 56.7524 89.1548 57.7243 89.5526 58.6452C89.9504 59.5661 90.3326 60.4988 90.7967 61.3884C91.2608 62.2779 91.7132 63.1714 92.2046 64.0375C92.4581 64.4647 92.7116 64.8918 92.9846 65.2994C93.1172 65.511 93.2537 65.7148 93.398 65.9068L93.6086 66.2046L93.7139 66.3575L93.7685 66.4319L93.8036 66.4711C94.0572 66.761 94.3484 67.0154 94.6694 67.2274C95.0559 67.4927 95.457 67.7361 95.8706 67.9563C96.7247 68.4188 97.6412 68.8381 98.5733 69.2339C99.5054 69.6297 100.457 70.0176 101.42 70.3586C102.384 70.6995 103.37 71.06 104.318 71.3932L103.955 72.9019C101.865 72.5508 99.8003 72.0625 97.7738 71.4402C96.7362 71.1222 95.7179 70.7441 94.724 70.3076C94.2028 70.0752 93.695 69.8135 93.203 69.5239C92.6322 69.1969 92.1152 68.7831 91.6703 68.2973L91.5767 68.1915L91.5104 68.1092L91.3817 67.9485L91.1243 67.6193C90.9488 67.4038 90.7811 67.1843 90.6251 66.961C90.2936 66.5181 89.9894 66.0635 89.6891 65.605C89.0973 64.6955 88.5519 63.7564 88.055 62.7913C87.5597 61.8312 87.0917 60.8632 86.6627 59.8757C86.2337 58.8882 85.8476 57.9163 85.4927 56.8347L88.4528 55.855Z" fill="#B55B52"/>
<path d="M103.803 71.3854L106.104 70.4919L105.991 73.1607C105.991 73.1607 104.127 73.6584 103.261 72.7139L103.803 71.3854Z" fill="#B55B52"/>
<path d="M107.839 71.4089L108.627 73.1136L105.991 73.1607L106.104 70.4919L107.839 71.4089Z" fill="#B55B52"/>
<path d="M69.6782 138.292L72.7241 138.519L73.6289 131.492L70.583 131.265L69.6782 138.292Z" fill="#B55B52"/>
<path d="M45.5527 122.397L47.5417 124.772L53.4463 120.959L51.4573 118.584L45.5527 122.397Z" fill="#B55B52"/>
<path d="M48.4699 124.466L46.867 121.37C46.8414 121.316 46.7972 121.274 46.7425 121.25C46.6879 121.227 46.6267 121.225 46.5706 121.244L44.0239 122.13C43.9599 122.156 43.9022 122.195 43.8545 122.245C43.8067 122.295 43.77 122.354 43.7468 122.42C43.7236 122.485 43.7144 122.554 43.7198 122.623C43.7252 122.692 43.7451 122.759 43.7782 122.82C44.3554 123.89 44.6869 124.387 45.3889 125.739C45.8257 126.574 46.3756 127.844 46.9723 129C47.569 130.156 48.7078 129.643 48.5596 129.106C47.8888 126.711 48.3334 126.049 48.5596 125.01C48.5917 124.824 48.5601 124.632 48.4699 124.466Z" fill="#263238"/>
<path d="M72.915 138.084H69.4908C69.4319 138.083 69.3746 138.104 69.3295 138.142C69.2844 138.18 69.2545 138.233 69.2451 138.291L68.7849 141.011C68.7754 141.079 68.7805 141.148 68.7999 141.214C68.8193 141.279 68.8525 141.34 68.8972 141.392C68.9419 141.443 68.9972 141.485 69.0593 141.513C69.1213 141.541 69.1887 141.556 69.2568 141.556C70.4541 141.536 71.0274 141.466 72.5328 141.466C73.461 141.466 75.372 141.564 76.6512 141.564C77.9304 141.564 78.0318 140.294 77.5014 140.176C75.1263 139.663 74.2059 138.95 73.4181 138.272C73.2791 138.149 73.1 138.082 72.915 138.084Z" fill="#263238"/>
<path opacity="0.2" d="M73.6286 131.492L73.1255 135.399L70.0913 135.094L70.5827 131.269L73.6286 131.492Z" fill="black"/>
<path opacity="0.2" d="M51.4574 118.584L53.4464 120.959L51.0011 122.538L48.938 120.21L51.4574 118.584Z" fill="black"/>
<path d="M69.9199 67.6195L82.1347 69.9982C87.9067 52.9238 86.5261 52.3634 86.5261 52.3634C85.6288 51.8762 84.7028 51.4444 83.7532 51.0702L83.5855 51.0075C82.8055 50.7214 82.6417 50.6783 81.5965 50.3727C79.7947 49.9455 78.1216 49.5889 76.0507 49.295L75.6607 49.2401C75.2707 49.1931 74.9119 49.1539 74.5531 49.1186C74.3113 49.0912 74.0695 49.0755 73.8394 49.0599L73.0594 49.0168C71.7256 48.9501 70.7701 48.9697 70.7701 48.9697C71.4409 59.6329 70.93 62.7013 69.9199 67.6195Z" fill="#000662"/>
<path opacity="0.7" d="M69.9199 67.6195L82.1347 69.9982C87.9067 52.9238 86.5261 52.3634 86.5261 52.3634C85.6288 51.8762 84.7028 51.4444 83.7532 51.0702L83.5855 51.0075C82.8055 50.7214 82.6417 50.6783 81.5965 50.3727C79.7947 49.9455 78.1216 49.5889 76.0507 49.295L75.6607 49.2401C75.2707 49.1931 74.9119 49.1539 74.5531 49.1186C74.3113 49.0912 74.0695 49.0755 73.8394 49.0599L73.0594 49.0168C71.7256 48.9501 70.7701 48.9697 70.7701 48.9697C71.4409 59.6329 70.93 62.7013 69.9199 67.6195Z" fill="white"/>
<path opacity="0.2" d="M84.7712 56.349L83.6675 56.1687C83.6675 57.6304 84.2213 60.1385 84.7595 61.7334C85.2158 60.1659 85.5707 58.8766 85.8398 57.7911L84.7712 56.349Z" fill="black"/>
<path d="M86.1007 52.1556C87.9064 52.7355 89.2207 56.3252 89.7121 57.8731L86.2021 62.0153C86.2021 62.0153 82.6063 56.8229 83.1796 55.2122C83.7412 53.535 85.2271 51.8695 86.1007 52.1556Z" fill="#000662"/>
<path opacity="0.7" d="M86.1007 52.1556C87.9064 52.7355 89.2207 56.3252 89.7121 57.8731L86.2021 62.0153C86.2021 62.0153 82.6063 56.8229 83.1796 55.2122C83.7412 53.535 85.2271 51.8695 86.1007 52.1556Z" fill="white"/>
<path d="M87.2708 38.9021C86.9081 39.9719 85.3208 40.3991 83.7413 39.8622C82.1618 39.3253 81.1634 38.0125 81.5261 36.9426C81.8888 35.8728 83.4761 35.4457 85.0361 35.9864C86.5961 36.5272 87.6296 37.8322 87.2708 38.9021Z" fill="#263238"/>
<path d="M78.1098 38.6082C77.2986 41.5239 76.893 42.7387 77.8212 44.7451C79.2174 47.7665 82.9536 48.2407 84.615 45.6504C86.1087 43.3226 87.1851 38.9453 84.7983 36.7546C84.2946 36.2655 83.6726 35.9168 82.9938 35.7429C82.315 35.569 81.6028 35.576 80.9275 35.7631C80.2522 35.9503 79.6371 36.3111 79.143 36.8101C78.6489 37.309 78.2927 37.9288 78.1098 38.6082Z" fill="#B55B52"/>
<path d="M82.6418 35.2029C81.4718 35.8769 78.9876 31.6563 75.9027 35.2029C73.6953 37.7462 75.1031 41.473 75.1031 41.473C75.1031 41.473 73.3442 38.3654 71.9402 39.882C70.1072 41.8414 72.0027 48.8522 78.0477 48.3701C84.0927 47.8881 83.5077 42.9582 83.5077 42.9582C83.5077 42.9582 86.3391 40.0661 86.1987 37.4719C86.0934 35.5281 84.5918 34.0938 82.6418 35.2029Z" fill="#263238"/>
<path d="M83.3751 41.1125C83.2242 41.6551 83.2433 42.2311 83.4297 42.7624C83.6793 43.5109 84.2526 43.5148 84.5568 42.9975C84.861 42.4802 85.0287 41.5828 84.5958 40.9793C84.1629 40.3758 83.5701 40.513 83.3751 41.1125Z" fill="#B55B52"/>
<path d="M78.8899 69.3633C78.8899 69.3633 77.5873 73.9013 75.9142 79.8892C74.8027 83.8786 73.5235 88.5107 72.3574 92.8723C71.6905 95.3686 71.0626 97.7748 70.5205 99.9262C67.4551 112.094 52.1671 122.554 52.1671 122.554L49.207 119.281C49.207 119.281 59.4796 110.589 62.467 99.2365C68.5003 76.1899 65.1073 72.3024 69.916 67.6194L78.8899 69.3633Z" fill="#263238"/>
<path opacity="0.2" d="M77.5715 73.4309C77.1191 75.1904 76.5497 77.4124 75.9218 79.8969C74.8103 83.8863 73.5311 88.5184 72.365 92.88C71.8658 87.3153 71.585 77.0832 75.6605 73.9011C76.4639 73.2819 77.0996 73.1526 77.5715 73.4309Z" fill="black"/>
<path d="M52.4203 123.024L48.7231 118.936L49.8424 117.808L54.3781 122.103L52.4203 123.024Z" fill="#000662"/>
<path opacity="0.7" d="M52.4203 123.024L48.7231 118.936L49.8424 117.808L54.3781 122.103L52.4203 123.024Z" fill="white"/>
<path d="M49.0276 126.128C48.9905 126.127 48.9536 126.12 48.9184 126.108C48.5557 125.975 48.3256 125.277 48.2203 124.874C48.2169 124.86 48.2177 124.845 48.2226 124.832C48.2275 124.819 48.2362 124.807 48.2476 124.799C48.259 124.791 48.2726 124.786 48.2866 124.786C48.3007 124.786 48.3143 124.791 48.3256 124.799C48.4348 124.862 49.3942 125.426 49.4137 125.822C49.417 125.865 49.4085 125.908 49.3893 125.947C49.3701 125.985 49.3408 126.018 49.3045 126.041C49.2248 126.101 49.1271 126.132 49.0276 126.128ZM48.4075 125.011C48.5674 125.54 48.7702 125.896 48.9691 125.967C49.0117 125.98 49.0568 125.982 49.1004 125.974C49.1441 125.965 49.1847 125.945 49.2187 125.916C49.2694 125.881 49.2733 125.845 49.2694 125.822C49.2499 125.618 48.7858 125.25 48.4075 125.011Z" fill="#000662"/>
<path d="M81.9399 69.9978C81.9399 69.9978 82.7199 94.2241 80.9961 103.351C79.2255 112.862 73.8201 134.416 73.8201 134.416L69.4287 133.847C69.4287 133.847 72.2055 112.035 73.3872 102.606C74.6703 92.3234 72.9972 68.2422 72.9972 68.2422L81.9399 69.9978Z" fill="#263238"/>
<path d="M74.7639 134.686L68.5044 133.875L68.5785 132.378L75.3918 132.676L74.7639 134.686Z" fill="#000662"/>
<path opacity="0.7" d="M74.7639 134.686L68.5044 133.875L68.5785 132.378L75.3918 132.676L74.7639 134.686Z" fill="white"/>
<path d="M49.1757 125.179C48.8517 125.164 48.5356 125.074 48.2514 124.917C48.2408 124.91 48.232 124.901 48.2258 124.89C48.2197 124.879 48.2164 124.866 48.2163 124.854C48.218 124.841 48.2224 124.829 48.2291 124.818C48.2358 124.808 48.2448 124.798 48.2553 124.791C48.2904 124.791 49.0353 124.38 49.4643 124.54C49.5181 124.56 49.5669 124.591 49.6074 124.632C49.6478 124.672 49.6788 124.721 49.6983 124.776C49.7239 124.828 49.7313 124.887 49.7193 124.944C49.7073 125.001 49.6765 125.052 49.632 125.089C49.4935 125.168 49.3335 125.199 49.1757 125.179ZM48.4464 124.862C48.7857 125.018 49.3785 125.105 49.5423 124.975C49.5696 124.952 49.5969 124.917 49.5423 124.826C49.5308 124.792 49.5115 124.76 49.4857 124.734C49.46 124.709 49.4286 124.689 49.3941 124.678C49.0669 124.641 48.7363 124.705 48.4464 124.862Z" fill="#000662"/>
<path d="M74.0461 138.617C73.7249 138.61 73.405 138.573 73.0906 138.507C73.0757 138.505 73.0617 138.499 73.0511 138.488C73.0405 138.477 73.0338 138.463 73.0321 138.448C73.0298 138.433 73.0323 138.418 73.0393 138.405C73.0464 138.391 73.0575 138.38 73.0711 138.374C73.2115 138.299 74.4439 137.676 74.8105 137.884C74.8455 137.903 74.8747 137.932 74.8953 137.966C74.9158 138.001 74.9269 138.04 74.9275 138.08C74.9351 138.145 74.9262 138.211 74.9017 138.272C74.8771 138.333 74.8377 138.387 74.7871 138.429C74.568 138.573 74.3071 138.639 74.0461 138.617ZM73.3324 138.405C74.0032 138.519 74.5024 138.487 74.6935 138.323C74.7263 138.294 74.7516 138.257 74.7672 138.216C74.7829 138.175 74.7883 138.131 74.7832 138.088C74.7843 138.072 74.7809 138.056 74.7733 138.042C74.7657 138.028 74.7542 138.017 74.7403 138.009C74.5414 137.9 73.8394 138.162 73.3324 138.405Z" fill="#000662"/>
<path d="M73.1061 138.511C73.092 138.515 73.0772 138.515 73.0632 138.511C73.0527 138.504 73.0443 138.494 73.0388 138.482C73.0333 138.47 73.031 138.457 73.032 138.445C73.032 138.39 73.1841 137.065 73.9212 137.143C74.1162 137.163 74.1747 137.261 74.1864 137.343C74.241 137.688 73.5039 138.354 73.1334 138.519L73.1061 138.511ZM73.8627 137.269C73.4259 137.269 73.2504 137.994 73.1958 138.307C73.5858 138.08 74.0772 137.559 74.046 137.351C74.046 137.351 74.046 137.285 73.9056 137.273L73.8627 137.269Z" fill="#000662"/>
<path d="M69.8416 66.871L69.1123 67.8546C69.0577 67.933 69.1435 68.0388 69.2839 68.0662L82.0954 70.5586C82.2046 70.5586 82.306 70.5586 82.3216 70.4763L82.6141 69.4025C82.6141 69.332 82.5478 69.2458 82.4269 69.2223L70.0561 66.8161C70.0187 66.806 69.9793 66.8058 69.9417 66.8154C69.9042 66.825 69.8697 66.8441 69.8416 66.871Z" fill="#000662"/>
<path d="M71.2771 68.5795L70.9456 68.5129C70.8793 68.5129 70.8364 68.458 70.8481 68.4188L71.2381 67.0276C71.2381 66.9884 71.3161 66.9649 71.3785 66.9767L71.71 67.0433C71.7763 67.0433 71.8231 67.0982 71.8114 67.1373L71.4214 68.5285C71.4058 68.5795 71.3434 68.5795 71.2771 68.5795Z" fill="#263238"/>
<path d="M79.6423 70.2214L79.3108 70.1587C79.2445 70.1587 79.2016 70.0999 79.2133 70.0608L79.6033 68.6735C79.6033 68.6304 79.6774 68.6069 79.7437 68.6225L80.0752 68.6853C80.1376 68.6853 80.1844 68.744 80.1727 68.7832L79.7827 70.1705C79.771 70.2136 79.7086 70.2371 79.6423 70.2214Z" fill="#263238"/>
</svg>
