<svg width="269" height="269" viewBox="0 0 269 269" fill="none" xmlns="http://www.w3.org/2000/svg">
<path d="M174.231 256.249C177.126 256.249 179.941 256.12 182.675 255.862C201.14 254.159 215.738 246.88 225.446 236.717C230.582 231.421 234.465 225.041 236.812 218.046C239.022 211.424 239.666 204.38 238.695 197.468C231.986 149.817 175.641 172.989 199.262 144.006C222.883 115.024 176.642 78.1633 158.898 86.887C141.155 95.6107 160.722 114.269 116.875 105.448C73.0283 96.6275 82.1017 135.382 82.1017 135.382" stroke="#CCDDE2" stroke-width="4.82" stroke-miterlimit="10"/>
<path d="M56.1806 215.125C56.1806 215.125 36.0997 200.725 28.3472 216.65C28.3472 216.65 36.5006 187.754 64.3098 177.419C64.3098 177.419 72.2587 172.997 72.6084 175.668C72.9581 178.339 75.2635 179.703 76.2722 179.67C77.281 179.638 85.7975 180.171 86.0934 178.898C86.3893 177.626 85.8244 173.814 90.0477 173.787C94.271 173.761 117.187 179.391 123.74 185.341C123.74 185.341 112.334 199.111 118.433 214.293L113.295 213.048C113.295 213.048 116.464 240.486 112.143 256.446H37.5228C37.5228 256.446 44.9821 257.385 52.6325 251.927L63.7422 237.67C63.7422 237.67 68.6138 230.288 78.5668 229.234C78.5668 229.234 84.2319 228.615 84.1781 225.922C84.1243 223.23 86.2198 227.647 89.0201 223.754C89.3617 223.754 96.1674 224.147 96.1674 224.147C96.1674 224.147 101.278 224.626 102.239 220.064C103.199 215.501 106.739 183.48 105.467 181.556C104.194 179.633 103.708 179.609 92.969 179.673C82.2306 179.738 72.794 177.596 71.4275 182.939C70.061 188.281 68.482 208.523 68.482 208.523C68.482 208.523 62.4295 210.108 57.8188 216.663C57.8349 216.661 56.1806 219.856 56.1806 215.125Z" fill="#2E2E2E"/>
<path d="M56.1807 205.4V218.006" stroke="black" stroke-width="4.82" stroke-miterlimit="10"/>
<path d="M112.95 211.703C124.8 217.998 157.548 230.858 158.71 181.392C158.71 181.392 157.3 168.402 160.975 166.707C164.649 165.013 170.575 159.646 162.944 146.653L167.923 141.685C168.596 140.993 168.966 140.061 168.952 139.096C168.938 138.131 168.541 137.21 167.849 136.538C167.157 135.865 166.225 135.495 165.26 135.509C164.295 135.522 163.375 135.919 162.702 136.612L152.805 147.103C152.805 147.103 151.371 144.413 148.829 145.814C146.287 147.216 136.964 153.163 141.198 165.583L130.185 197.217" stroke="black" stroke-width="4.82" stroke-miterlimit="10"/>
<path d="M152.792 147.097C152.792 147.097 155.431 151.113 149.814 155.218" stroke="black" stroke-width="4.82" stroke-miterlimit="10"/>
<path d="M164.569 149.774C164.569 149.774 166.212 154.936 159.582 158.266C157.236 159.444 154.662 156.964 155.77 154.584C155.789 154.549 155.805 154.511 155.824 154.473" stroke="black" stroke-width="4.82" stroke-miterlimit="10"/>
<path d="M166.575 156.149C166.575 156.149 165.126 161.19 161.158 161.432C157.647 161.645 158.236 158.064 158.236 158.064" stroke="black" stroke-width="4.82" stroke-miterlimit="10"/>
<path d="M98.6961 152.991C98.4271 153.061 98.2576 152.838 98.0074 152.881C94.4109 152.224 91.737 149.384 91.4358 148.017C91.538 148.762 92.9045 148.687 92.6732 149.448C92.6301 149.594 92.544 149.537 92.4741 149.677C92.3611 149.946 92.3638 149.577 92.2051 149.82C91.3228 148.515 90.8117 147.867 90.6557 147.148C90.7617 147.919 90.6993 148.704 90.4727 149.448C90.4312 149.594 90.3763 149.735 90.3087 149.871C89.7707 151.14 88.6489 152.214 86.774 152.48C86.3039 152.539 85.8293 152.555 85.3564 152.526C84.0114 152.448 82.8493 152.37 81.8594 152.327C78.5507 152.179 77.3644 152.429 77.7356 154.565C77.9402 155.531 78.2301 156.477 78.6018 157.392C79.2581 159.119 79.7154 162.11 79.0429 165.368V165.387C78.2628 169.179 75.7934 172.112 70.5022 174.866C69.5647 175.35 68.5981 175.775 67.6077 176.139C58.4268 179.544 36.4656 188.171 27.3627 219.805C26.3943 223.176 25.6706 226.242 25.1595 229.043L24.9094 228.897C18.6928 225.172 14.639 216.814 15.871 209.624C16.4843 206.054 18.8085 203.563 21.789 201.688C23.8818 200.392 26.1199 199.329 27.9948 197.728C34.2087 192.421 29.2403 184.168 32.6808 177.822C36.5598 170.683 42.6338 166.282 50.5639 165.919C52.5599 166.005 54.806 166.239 56.9849 166.134C60.1484 166.247 63.3818 165.989 65.6978 163.915C67.5217 162.301 67.901 159.67 68.5923 157.475C69.3707 155 70.0199 152.486 70.5372 149.943C71.0104 147.533 71.8929 145.221 73.1465 143.108C74.4998 140.819 76.4084 138.907 78.6959 137.55C80.6914 136.424 82.9161 135.765 85.203 135.622C87.2856 135.745 89.3113 136.349 91.121 137.386C91.739 137.752 92.3232 138.171 92.8668 138.64C96.8723 142.056 98.7902 147.84 98.6961 152.991Z" fill="#18355D"/>
<path d="M159.469 161.131C159.469 161.131 158.186 162.723 158.888 164.235C159.59 165.747 161.333 166.099 163.028 165.438" stroke="black" stroke-width="4.82" stroke-miterlimit="10"/>
<path d="M162.938 146.653L159.393 150.196" stroke="black" stroke-width="4.82" stroke-miterlimit="10"/>
<path d="M68.4956 208.176L71.382 183.294C71.4988 182.287 71.9815 181.358 72.7384 180.684C73.4952 180.01 74.4734 179.638 75.4869 179.638H101.994C102.574 179.638 103.148 179.76 103.678 179.996C104.207 180.232 104.682 180.577 105.069 181.008C105.457 181.439 105.75 181.947 105.928 182.499C106.106 183.051 106.166 183.635 106.104 184.211L102.242 220.066C102.132 221.08 101.652 222.018 100.893 222.699C100.135 223.38 99.151 223.757 98.1313 223.757H88.6464" stroke="black" stroke-width="4.82" stroke-miterlimit="10"/>
<path d="M99.826 185.976C100.423 185.976 100.907 185.492 100.907 184.894C100.907 184.297 100.423 183.813 99.826 183.813C99.2288 183.813 98.7446 184.297 98.7446 184.894C98.7446 185.492 99.2288 185.976 99.826 185.976Z" fill="black"/>
<path d="M81.9752 213.949C84.7728 214.579 85.3323 214.589 88.0466 214.993C89.7574 215.248 93.6687 215.461 93.7386 212.806C93.8032 210.474 91.1858 209.104 89.3378 208.359C87.2048 207.548 84.9729 207.026 82.7015 206.807C81.7654 206.7 80.8248 206.626 79.8797 206.587C73.3296 206.318 65.7734 207.902 61.2622 213.026C50.8116 224.884 36.915 232.507 36.915 232.507" stroke="black" stroke-width="4.82" stroke-miterlimit="10"/>
<path d="M89.4665 215.125C90.8115 215.695 93.0899 216.911 92.1565 219.24C91.7315 220.316 90.9594 220.698 89.8996 220.854C87.6104 221.185 85.1544 220.698 82.9056 220.228C82.0744 220.053 80.6002 219.733 79.7798 219.507" stroke="black" stroke-width="4.82" stroke-miterlimit="10"/>
<path d="M87.0755 220.908C87.0755 220.908 89.5207 220.879 88.9316 223.152C87.9605 226.918 80.415 225.212 76.8857 224.421" stroke="black" stroke-width="4.82" stroke-miterlimit="10"/>
<path d="M87.2261 173.992C98.7231 174.495 116.243 177.865 132.13 191.609" stroke="black" stroke-width="4.82" stroke-miterlimit="10"/>
<path d="M174.231 256.252L37.5229 256.457" stroke="black" stroke-width="4.82" stroke-miterlimit="10"/>
<path d="M112.95 206.56C112.95 206.56 115.64 231.596 112.95 256.252" stroke="black" stroke-width="4.82" stroke-miterlimit="10"/>
<path opacity="0.54" d="M231.665 195.125L255.308 134.543C255.601 133.371 255.623 132.147 255.372 130.965C255.122 129.783 254.605 128.674 253.862 127.722C253.118 126.769 252.168 125.999 251.082 125.469C249.996 124.939 248.804 124.663 247.596 124.663H153.674C151.565 124.662 149.518 125.372 147.862 126.677C146.205 127.983 145.037 129.808 144.544 131.858L118.656 192.426C118.375 193.595 118.362 194.813 118.62 195.987C118.877 197.162 119.398 198.263 120.142 199.207C120.886 200.151 121.835 200.915 122.916 201.439C123.998 201.964 125.185 202.237 126.387 202.237H222.554C224.649 202.237 226.683 201.537 228.334 200.248C229.985 198.96 231.157 197.156 231.665 195.125Z" fill="white"/>
<path d="M231.665 195.125L255.308 134.543C255.601 133.371 255.623 132.147 255.372 130.965C255.122 129.783 254.605 128.674 253.862 127.722C253.118 126.769 252.168 125.999 251.082 125.469C249.996 124.939 248.804 124.663 247.596 124.663H153.674C151.565 124.662 149.518 125.372 147.862 126.677C146.205 127.983 145.037 129.808 144.544 131.858L118.656 192.426C118.375 193.595 118.362 194.813 118.62 195.987C118.877 197.162 119.398 198.263 120.142 199.207C120.886 200.151 121.835 200.915 122.916 201.439C123.998 201.964 125.185 202.237 126.387 202.237H222.554C224.649 202.237 226.683 201.537 228.334 200.248C229.985 198.96 231.157 197.156 231.665 195.125Z" fill="#18355D"/>
<path d="M231.665 195.125L255.308 134.543C255.601 133.371 255.623 132.147 255.372 130.965C255.122 129.783 254.605 128.674 253.862 127.722C253.118 126.769 252.168 125.999 251.082 125.469C249.996 124.939 248.804 124.663 247.596 124.663H153.674C151.565 124.662 149.518 125.372 147.862 126.677C146.205 127.983 145.037 129.808 144.544 131.858L118.656 192.426C118.375 193.595 118.362 194.813 118.62 195.987C118.877 197.162 119.398 198.263 120.142 199.207C120.886 200.151 121.835 200.915 122.916 201.439C123.998 201.964 125.185 202.237 126.387 202.237H222.554C224.649 202.237 226.683 201.537 228.334 200.248C229.985 198.96 231.157 197.156 231.665 195.125Z" stroke="black" stroke-width="4.82" stroke-linecap="square" stroke-linejoin="round"/>
<path d="M228.206 192.671L250.019 136.781C250.289 135.7 250.31 134.572 250.079 133.482C249.847 132.392 249.371 131.368 248.685 130.49C248 129.611 247.123 128.901 246.122 128.412C245.121 127.923 244.021 127.668 242.907 127.667H156.254C154.308 127.667 152.419 128.322 150.891 129.526C149.363 130.73 148.286 132.414 147.832 134.306L123.947 190.183C123.688 191.261 123.677 192.385 123.914 193.468C124.152 194.552 124.632 195.567 125.319 196.438C126.006 197.309 126.881 198.013 127.879 198.497C128.877 198.981 129.972 199.232 131.081 199.232H219.803C221.734 199.231 223.61 198.585 225.132 197.397C226.655 196.208 227.737 194.545 228.206 192.671Z" fill="#18355D"/>
<path d="M162.506 137.943C163.654 136.219 165.535 135.452 166.705 136.23C167.875 137.007 167.891 139.038 166.743 140.762C166.564 141.027 166.363 141.276 166.14 141.505L174.654 159.479C175.999 158.573 177.505 158.35 178.576 159.062C179.267 159.522 179.652 160.305 179.773 161.214L185.589 159.251L190.675 157.551C191.213 157.365 191.781 157.187 192.335 157.013C192.544 156.388 192.835 155.794 193.199 155.245C194.813 152.824 197.452 151.748 199.092 152.824C200.733 153.9 200.755 156.717 199.187 159.124L208.871 172.367C210.982 170.635 213.471 170.099 215.195 171.245C217.54 172.806 217.575 176.878 215.273 180.34C215.181 180.477 215.076 180.59 214.98 180.722L221.436 189.543C221.454 189.57 221.479 189.602 221.495 189.629C221.658 189.875 221.771 190.151 221.828 190.441C221.884 190.731 221.883 191.029 221.824 191.319C221.766 191.608 221.651 191.883 221.486 192.128C221.321 192.373 221.109 192.583 220.863 192.747C220.616 192.91 220.34 193.023 220.051 193.079C219.761 193.136 219.462 193.135 219.173 193.076C218.883 193.017 218.608 192.902 218.363 192.737C218.118 192.572 217.908 192.361 217.745 192.114L212.013 183.466C210.199 184.518 208.273 184.72 206.861 183.778C204.618 182.288 204.51 178.511 206.509 175.17L197.226 161.163C195.856 162.094 194.345 162.331 193.261 161.613C192.655 161.185 192.242 160.537 192.112 159.808C191.881 159.869 191.652 159.937 191.421 160.001L186.248 161.413L179.628 163.197C179.425 163.99 179.09 164.744 178.638 165.427C177.024 167.848 174.388 168.924 172.744 167.834C171.1 166.745 171.076 163.891 172.687 161.467C172.928 161.116 173.198 160.785 173.494 160.48L165.389 142.153C164.413 142.817 163.334 142.99 162.562 142.476C161.376 141.701 161.357 139.67 162.506 137.943Z" fill="white"/>
<path d="M224.16 138.936H236.72C237.294 138.936 237.857 138.768 238.338 138.454C238.819 138.14 239.198 137.692 239.429 137.166C239.502 137.004 239.542 136.829 239.544 136.652C239.541 136.309 239.403 135.981 239.16 135.739C238.917 135.497 238.588 135.361 238.245 135.361H224.884C225.521 136.423 225.204 137.892 224.16 138.936Z" fill="#D7E8F0"/>
<path d="M216.039 137.647C216.04 137.989 216.176 138.317 216.418 138.559C216.66 138.8 216.988 138.936 217.33 138.936H224.16C225.204 137.892 225.521 136.423 224.895 135.361H218.864C218.29 135.36 217.728 135.527 217.247 135.84C216.766 136.154 216.386 136.6 216.155 137.125C216.082 137.29 216.042 137.467 216.039 137.647Z" fill="#18355D"/>
<path d="M219.181 138.936C219.217 139.005 219.258 139.07 219.305 139.132C220.201 140.356 222.143 140.477 223.655 139.369C223.834 139.237 224.003 139.092 224.16 138.936C225.204 137.892 225.522 136.423 224.895 135.361C224.859 135.293 224.818 135.228 224.771 135.167C223.883 133.935 221.941 133.822 220.429 134.922C220.248 135.056 220.076 135.203 219.916 135.361C218.88 136.407 218.563 137.868 219.181 138.936Z" fill="white"/>
<path d="M212.881 145.529C212.884 145.872 213.022 146.199 213.266 146.441C213.509 146.682 213.838 146.818 214.181 146.818H227.362C226.724 145.742 227.042 144.289 228.088 143.245H215.714C215.139 143.245 214.577 143.413 214.096 143.727C213.615 144.041 213.236 144.489 213.005 145.015C212.93 145.176 212.888 145.351 212.881 145.529Z" fill="#18355D"/>
<path d="M227.359 146.818H233.546C234.119 146.818 234.681 146.652 235.162 146.339C235.643 146.026 236.022 145.58 236.254 145.056C236.329 144.892 236.368 144.714 236.37 144.534C236.37 144.364 236.337 144.197 236.273 144.04C236.208 143.884 236.113 143.742 235.993 143.622C235.874 143.502 235.732 143.407 235.575 143.343C235.419 143.278 235.251 143.245 235.082 143.245H228.085C227.036 144.289 226.721 145.75 227.359 146.818Z" fill="#D7E8F0"/>
<path d="M227.359 146.818C227.386 146.888 227.424 146.954 227.472 147.014C228.362 148.246 230.304 148.359 231.813 147.259C231.996 147.126 232.168 146.978 232.327 146.818C233.363 145.774 233.672 144.313 233.061 143.245C233.027 143.176 232.986 143.111 232.94 143.049C232.042 141.825 230.1 141.704 228.591 142.812C228.411 142.943 228.242 143.087 228.085 143.245C227.036 144.289 226.721 145.75 227.359 146.818Z" fill="white"/>
<path d="M222.969 154.645H230.859C231.433 154.646 231.994 154.479 232.475 154.166C232.956 153.852 233.336 153.406 233.567 152.881C233.642 152.72 233.681 152.544 233.683 152.367C233.682 152.023 233.544 151.694 233.301 151.451C233.057 151.208 232.728 151.071 232.384 151.07H223.703C224.322 152.138 224.004 153.599 222.969 154.645Z" fill="#18355D"/>
<path d="M210.181 153.362C210.182 153.704 210.319 154.03 210.561 154.271C210.803 154.511 211.131 154.646 211.472 154.645H222.969C224.005 153.599 224.314 152.138 223.703 151.07H213.005C212.431 151.071 211.868 151.238 211.387 151.552C210.906 151.867 210.527 152.314 210.296 152.84C210.223 153.005 210.183 153.182 210.181 153.362Z" fill="#D7E8F0"/>
<path d="M217.989 154.645C218.025 154.714 218.066 154.778 218.113 154.839C219.001 156.071 220.943 156.184 222.455 155.084C222.636 154.95 222.808 154.803 222.969 154.645C224.004 153.599 224.314 152.138 223.703 151.07C223.668 151.001 223.626 150.936 223.579 150.874C222.683 149.65 220.741 149.545 219.229 150.637C219.051 150.769 218.882 150.914 218.724 151.07C217.68 152.114 217.352 153.583 217.989 154.645Z" fill="white"/>
<path d="M171.961 191.566H179.851C180.425 191.566 180.986 191.399 181.467 191.086C181.948 190.773 182.328 190.326 182.56 189.801C182.65 189.605 182.688 189.389 182.672 189.173C182.656 188.958 182.586 188.75 182.468 188.569C182.349 188.388 182.187 188.24 181.996 188.139C181.805 188.038 181.592 187.987 181.376 187.991H172.698C173.314 189.059 172.997 190.519 171.961 191.566Z" fill="#18355D"/>
<path d="M140.639 190.283C140.639 190.451 140.673 190.619 140.738 190.774C140.803 190.93 140.898 191.072 141.017 191.191C141.137 191.31 141.279 191.405 141.435 191.469C141.591 191.533 141.758 191.566 141.927 191.566H171.961C172.997 190.519 173.306 189.059 172.695 187.991H143.463C142.889 187.991 142.326 188.158 141.845 188.473C141.364 188.787 140.985 189.234 140.754 189.761C140.681 189.925 140.641 190.103 140.639 190.283Z" fill="#D7E8F0"/>
<path d="M166.982 191.566C167.017 191.634 167.058 191.699 167.105 191.759C167.993 192.994 169.935 193.104 171.447 192.004C171.628 191.87 171.8 191.724 171.961 191.566C172.996 190.519 173.306 189.059 172.695 187.991C172.66 187.922 172.618 187.856 172.571 187.794C171.673 186.57 169.731 186.465 168.222 187.558C168.043 187.689 167.874 187.834 167.716 187.991C166.672 189.034 166.355 190.503 166.982 191.566Z" fill="white"/>
<path d="M25.6089 230.312C24.6071 229.917 23.6384 229.443 22.7117 228.895C16.4898 225.169 12.4359 216.814 13.6707 209.621C14.2867 206.051 16.6108 203.563 19.6021 201.685C21.6922 200.389 23.9411 199.329 25.8079 197.728C32.0218 192.421 27.0507 184.165 30.4912 177.822C34.6742 170.129 41.3992 165.618 50.26 165.911C54.5129 166.051 60.0355 167.027 63.5083 163.915C65.3321 162.301 65.7141 159.67 66.4054 157.475C67.1847 155 67.8348 152.486 68.353 149.943C68.8187 147.533 69.6959 145.221 70.9461 143.108C72.2992 140.816 74.2078 138.902 76.4956 137.542C80.7996 135.06 86.801 134.831 91.1265 137.384C91.7424 137.75 92.3256 138.168 92.8696 138.635C96.8724 142.067 98.7876 147.848 98.6962 153.002" stroke="black" stroke-width="4.82" stroke-miterlimit="10"/>
<path d="M90.567 146.694C90.7903 148.211 91.7129 149.61 93.3511 150.029C95.2019 150.5 96.1837 152.302 96.7056 154.113C97.4471 156.769 97.2572 159.599 96.1676 162.132C95.1561 164.515 93.3538 167.243 90.3061 167.67C84.7297 168.477 81.9536 166.116 81.9536 166.116" stroke="black" stroke-width="4.82" stroke-miterlimit="10"/>
<path d="M85.9215 154.799C86.4504 154.799 86.8791 154.37 86.8791 153.841C86.8791 153.312 86.4504 152.883 85.9215 152.883C85.3926 152.883 84.9639 153.312 84.9639 153.841C84.9639 154.37 85.3926 154.799 85.9215 154.799Z" fill="black"/>
<path d="M94.3439 154.164C94.8728 154.164 95.3015 153.735 95.3015 153.206C95.3015 152.677 94.8728 152.249 94.3439 152.249C93.815 152.249 93.3862 152.677 93.3862 153.206C93.3862 153.735 93.815 154.164 94.3439 154.164Z" fill="black"/>
<path d="M83.6994 225.489C85.0928 226.345 83.9684 227.754 82.957 228.23C81.2192 229.037 78.9731 229.18 77.0793 229.406C62.6798 231.101 57.8727 250.867 48.8343 254.541C39.7959 258.216 15.5402 260.9 27.3708 219.803C36.4792 188.174 58.4403 179.547 67.6213 176.141C68.6095 175.778 69.5744 175.354 70.5103 174.872C75.8016 172.122 78.2791 169.179 79.0565 165.384C79.0565 165.384 79.0565 165.384 79.0565 165.368C79.729 162.11 79.2771 159.119 78.618 157.389C78.2401 156.476 77.9465 155.529 77.7411 154.562C77.2515 151.81 79.3766 152.198 85.343 152.526C88.0814 152.687 89.6309 151.45 90.298 149.873C90.3635 149.737 90.4166 149.594 90.4567 149.448C90.7374 148.556 90.7708 147.604 90.5535 146.694" stroke="black" stroke-width="4.82" stroke-miterlimit="10"/>
<path d="M90.0479 154.072C90.0479 154.072 91.054 157.75 90.9518 158.293C90.8495 158.836 89.561 158.417 89.561 158.417" stroke="black" stroke-width="4.82" stroke-miterlimit="10"/>
<path d="M89.3535 161.785C87.4248 162.823 85.1948 162.169 84.3232 160.44" stroke="black" stroke-width="4.82" stroke-miterlimit="10"/>
<path d="M87.4588 157.754C89.2554 156.058 89.37 153.262 87.7149 151.509C86.0597 149.755 83.2615 149.709 81.4649 151.405C79.6683 153.101 79.5537 155.897 81.2089 157.65C82.8641 159.404 85.6623 159.45 87.4588 157.754Z" stroke="black" stroke-width="4.82" stroke-miterlimit="10"/>
<path d="M98.6307 156.734C100.427 155.038 100.542 152.242 98.8867 150.489C97.2316 148.735 94.4334 148.689 92.6368 150.385C90.8402 152.081 90.7256 154.877 92.3808 156.63C94.0359 158.384 96.8341 158.43 98.6307 156.734Z" stroke="black" stroke-width="4.82" stroke-miterlimit="10"/>
<path d="M95.7263 150.492C96.4823 150.487 97.2115 150.772 97.7643 151.287C98.317 151.803 98.6514 152.511 98.6988 153.265C98.747 154.087 98.4745 154.895 97.9386 155.52C97.4027 156.145 96.6453 156.537 95.8259 156.614C95.7317 156.614 95.6349 156.614 95.5407 156.614C94.7891 156.62 94.0636 156.339 93.5116 155.829C92.9595 155.319 92.6222 154.618 92.5683 153.868C92.5164 153.044 92.7873 152.232 93.3236 151.605C93.8598 150.977 94.6193 150.583 95.4412 150.505C95.5354 150.505 95.6322 150.505 95.7263 150.505M95.7263 149.857C95.6134 149.857 95.4977 149.857 95.382 149.873C94.3949 149.967 93.4826 150.44 92.837 151.192C92.1913 151.945 91.8626 152.918 91.92 153.908C91.9803 154.826 92.3884 155.687 93.0612 156.314C93.7341 156.941 94.6208 157.288 95.5407 157.284C95.6537 157.284 95.7694 157.284 95.8851 157.268C96.8725 157.176 97.7853 156.703 98.4308 155.95C99.0762 155.197 99.4038 154.223 99.3444 153.233C99.2907 152.311 98.8857 151.445 98.2127 150.812C97.5397 150.18 96.6499 149.829 95.7263 149.833V149.857Z" fill="white"/>
<path d="M88.875 154.18L91.2207 153.965" stroke="black" stroke-width="4.82" stroke-miterlimit="10"/>
<path d="M84.5574 151.425C85.3363 151.418 86.0884 151.71 86.6581 152.241C87.2279 152.772 87.5717 153.502 87.6186 154.28C87.6691 155.126 87.3887 155.959 86.8366 156.603C86.2846 157.247 85.504 157.651 84.6596 157.731C84.5628 157.731 84.4632 157.731 84.3664 157.731C83.5869 157.738 82.8346 157.445 82.2644 156.914C81.6943 156.382 81.35 155.652 81.3025 154.874C81.2527 154.028 81.5334 153.195 82.0854 152.552C82.6374 151.909 83.4176 151.505 84.2615 151.425C84.3598 151.416 84.4586 151.411 84.5574 151.412M84.5574 150.764C84.439 150.764 84.3207 150.769 84.2023 150.78C83.185 150.874 82.2448 151.363 81.5824 152.141C80.9201 152.919 80.5879 153.925 80.6569 154.944C80.7185 155.885 81.1366 156.766 81.826 157.409C82.5153 158.052 83.4239 158.407 84.3664 158.403C84.4821 158.403 84.6004 158.403 84.7188 158.387C85.7314 158.292 86.6674 157.807 87.329 157.034C87.9905 156.262 88.3259 155.262 88.2642 154.247C88.2032 153.307 87.7857 152.425 87.0968 151.783C86.4079 151.14 85.4996 150.784 84.5574 150.788V150.764Z" fill="white"/>
<path d="M98.2064 156.284C99.7469 154.83 99.8441 152.431 98.4235 150.926C97.0029 149.422 94.6024 149.381 93.0619 150.835C91.5213 152.289 91.4241 154.688 92.8447 156.193C94.2653 157.698 96.6658 157.739 98.2064 156.284Z" fill="#18355D"/>
<path d="M87.8418 157.461C89.3959 155.992 89.4932 153.572 88.0591 152.054C86.625 150.537 84.2026 150.498 82.6485 151.967C81.0943 153.436 80.9971 155.857 82.4312 157.374C83.8653 158.891 86.2877 158.93 87.8418 157.461Z" fill="#18355D"/>
<path d="M74.9782 179.67C73.7946 178.436 72.767 176.62 72.0918 173.992" stroke="black" stroke-width="4.82" stroke-miterlimit="10"/>
<path d="M85.9214 179.638L87.226 173.992L88.6437 167.907" stroke="black" stroke-width="4.82" stroke-miterlimit="10"/>
<path d="M91.2544 202.12C91.7558 199.66 90.3993 197.307 88.2244 196.863C86.0496 196.42 83.88 198.055 83.3786 200.515C82.8772 202.975 84.2338 205.329 86.4086 205.772C88.5834 206.216 90.753 204.581 91.2544 202.12Z" fill="#D7E8F0"/>
<path d="M174.465 242.148L172.26 254.474C172.198 254.82 172.016 255.133 171.747 255.359C171.477 255.585 171.137 255.709 170.785 255.709H159.248C158.893 255.709 158.549 255.583 158.278 255.354C158.007 255.124 157.827 254.806 157.768 254.455L155.751 242.148H174.465Z" stroke="#CCDDE2" stroke-width="4.82" stroke-miterlimit="10"/>
<path d="M176.564 240.771C176.533 241.146 176.362 241.496 176.086 241.751C175.809 242.006 175.447 242.148 175.071 242.148H155.165C154.794 242.148 154.436 242.011 154.16 241.763C153.884 241.514 153.71 241.173 153.672 240.803C153.652 240.595 153.676 240.386 153.742 240.187C153.808 239.989 153.915 239.807 154.055 239.653C154.196 239.498 154.367 239.375 154.558 239.29C154.749 239.206 154.956 239.162 155.165 239.163H175.071C175.277 239.163 175.48 239.205 175.669 239.288C175.858 239.37 176.028 239.491 176.168 239.642C176.308 239.793 176.415 239.971 176.483 240.165C176.552 240.359 176.579 240.566 176.564 240.771Z" stroke="#CCDDE2" stroke-width="4.82" stroke-miterlimit="10"/>
<path d="M165.744 239.141C165.744 238.509 167.358 230.635 166.013 223.655C165.282 219.824 163.667 216.265 160.418 214.315" stroke="#CCDDE2" stroke-width="4.82" stroke-miterlimit="10"/>
<path d="M166.019 223.665C166.019 223.665 166.387 218.361 170.971 217.995" stroke="#CCDDE2" stroke-width="4.82" stroke-miterlimit="10"/>
<path d="M166.511 231.76C167.815 230.846 169.386 230.392 170.977 230.468" stroke="#CCDDE2" stroke-width="4.82" stroke-miterlimit="10"/>
<path d="M166.511 227.991C166.511 227.991 163.181 224.047 157.86 227.168" stroke="#CCDDE2" stroke-width="4.82" stroke-miterlimit="10"/>
<path d="M164.163 226.404C164.163 226.404 156.663 219.555 155.194 228.825C155.194 228.825 157.306 230.199 160.424 228.825C163.541 227.45 164.163 226.404 164.163 226.404Z" stroke="#CCDDE2" stroke-width="4.82" stroke-miterlimit="10"/>
<path d="M167.668 219.609C167.668 219.609 167.399 216.526 170.971 215.517C174.543 214.509 176.569 218.729 176.569 218.729C176.569 218.729 173.812 221.777 167.668 219.609Z" stroke="#CCDDE2" stroke-width="4.82" stroke-miterlimit="10"/>
<path d="M168.496 230.466C168.496 230.466 168.372 227.348 172.531 227.991C176.69 228.634 177.373 232.182 177.373 232.182C177.373 232.182 170.562 234.678 168.496 230.794" stroke="#CCDDE2" stroke-width="4.82" stroke-miterlimit="10"/>
<path d="M163.485 217.209C163.485 217.43 160.359 216.94 160.16 216.87C158.645 216.419 157.569 215.369 156.862 213.981C156.644 213.551 155.382 211.138 155.74 210.718C155.751 210.718 163.181 208.324 163.485 217.209Z" stroke="#CCDDE2" stroke-width="4.82" stroke-miterlimit="10"/>
<path d="M236.817 218.046C234.471 225.042 230.588 231.423 225.452 236.72C215.738 246.883 201.139 254.162 182.681 255.865V218.046H236.817Z" stroke="#CCDDE2" stroke-width="4.82" stroke-miterlimit="10"/>
<path d="M225.452 236.72C215.738 246.883 201.139 254.162 182.681 255.865V236.72H225.452Z" stroke="#CCDDE2" stroke-width="4.82" stroke-miterlimit="10"/>
<path d="M219.832 227.756C219.832 226.247 218.609 225.024 217.1 225.024C215.592 225.024 214.369 226.247 214.369 227.756C214.369 229.264 215.592 230.487 217.1 230.487C218.609 230.487 219.832 229.264 219.832 227.756Z" stroke="#CCDDE2" stroke-width="4.82" stroke-miterlimit="10"/>
</svg>
