<svg width="294" height="294" viewBox="0 0 294 294" fill="none" xmlns="http://www.w3.org/2000/svg">
<path d="M189.06 141.502C169.312 153.262 145.221 139.406 146.353 139.165C183.686 131.048 186.984 107.495 186.984 107.495C179.531 89.2849 159.216 95.1472 159.216 95.1472C158.628 120.99 127.87 122.445 127.87 122.445C125.894 114.06 126.003 94.4828 126.003 94.4828C116.68 87.9648 114.792 90.7313 114.792 90.7313C117.732 64.8593 129.572 56.5186 129.572 56.5186C131.545 54.6811 140.362 50.5504 144.889 50.0153L145.051 50.7326C145.051 50.7326 140.473 62.1634 149.246 62.916C156.629 63.5628 160.824 54.4753 161.968 51.5911C171.567 54.5664 180.728 61.2255 186.822 72.4269C201.24 98.9281 189.06 141.502 189.06 141.502Z" fill="#2E2E2E"/>
<path d="M191.194 130.351L239.178 162.103C248.483 168.259 247.286 182.271 237.082 186.761L180.928 211.474C175.705 213.772 169.98 214.687 164.301 214.131C158.623 213.576 153.183 211.568 148.505 208.302L126.94 193.226" stroke="black" stroke-width="4.21" stroke-miterlimit="10"/>
<path d="M191.194 140.591L189.58 139.521L239.187 172.337C248.492 178.493 247.295 192.505 237.09 196.995L180.936 221.708C175.714 224.006 169.988 224.921 164.31 224.366C158.632 223.81 153.192 221.802 148.514 218.536L121.096 199.009" stroke="black" stroke-width="4.21" stroke-miterlimit="10"/>
<path d="M232.951 185.008L181.339 207.726C176.54 209.837 171.278 210.677 166.059 210.167C160.841 209.656 155.842 207.811 151.543 204.809L131.765 190.915C134.488 188.828 137.539 187.208 140.794 186.123C148.946 183.353 156.903 180.036 164.608 176.194C170.457 173.301 175.595 169.151 179.655 164.042C183.714 158.933 186.596 152.99 188.093 146.638C189.127 142.243 190.036 137.798 190.78 133.329L236.203 163.355C244.752 169.012 242.327 180.886 232.951 185.008Z" fill="#18355D"/>
<path d="M99.96 250.847C99.96 250.847 109.009 247.095 110.744 244.267C110.744 244.267 111.07 250.688 109.377 252.881C107.683 255.074 97.5639 260.872 97.02 260.146C96.4761 259.42 99.96 250.847 99.96 250.847Z" fill="#18355D"/>
<path d="M72.1037 266.146C72.1037 266.146 73.7501 268.381 79.5919 266.146C85.4337 263.912 98.1433 255.683 98.1433 255.683C98.1433 255.683 94.5977 265.203 93.3129 266.249C92.0281 267.296 67.7555 279.185 67.7555 279.185C67.7555 279.185 56.9039 280.729 60.9935 273.011L72.1037 266.146Z" fill="#18355D"/>
<path d="M107.037 141.761C93.6598 146.968 79.5037 159.201 83.5756 193.079L84.7075 201.881" stroke="black" stroke-width="4.21" stroke-miterlimit="10"/>
<path d="M107.016 119.637C109.203 116.515 111.179 113.14 112.39 109.506C113.602 105.872 113.663 101.936 114.002 98.1137C114.901 87.8648 116.295 79.3888 120.249 69.8426C123.674 61.5812 134.02 50.9384 144.313 49.93L145.239 49.8506" stroke="black" stroke-width="4.21" stroke-miterlimit="10"/>
<path d="M132.888 141.011C132.838 140.867 132.788 140.732 132.735 140.591" stroke="black" stroke-width="4.21" stroke-miterlimit="10"/>
<path d="M127.869 121.81C127.364 118.838 126.987 115.957 126.693 113.222C126.694 113.171 126.688 113.119 126.676 113.069C125.135 97.802 126.693 86.6947 126.693 86.6947" stroke="black" stroke-width="4.21" stroke-miterlimit="10"/>
<path d="M163.828 29.1472L161.476 30.0644C161.476 30.1379 161.476 31.0552 161.376 32.34C161.267 33.8745 161.023 35.3964 160.647 36.8882C160.856 35.8709 161.159 33.4543 159.83 31.7726C159.809 31.7382 159.786 31.7057 159.759 31.6756C158.877 30.6142 157.79 31.0346 156.916 31.7638C156.313 32.274 155.787 32.868 155.352 33.5278C155.505 31.5637 155.152 29.5933 154.329 27.8036C153.792 26.5827 153.08 25.4467 152.215 24.4314C153.547 29.0178 151.839 32.0195 151.839 32.0195C147.326 33.0809 144.195 32.8545 141.861 32.4517C139.894 30.6172 140.576 24.011 140.576 24.011C138.597 25.628 139.074 31.8843 139.074 31.8843C138.821 30.2517 138.852 28.5878 139.165 26.9657C138.182 28.3556 137.614 29.9961 137.527 31.6961L137.492 31.6785C137.355 31.6435 137.221 31.6013 137.089 31.5521C136.847 31.4247 136.612 31.2833 136.386 31.1287L135.084 30.2467C137.051 20.2125 143.928 13.9033 154.553 15.7555C155.246 15.875 155.929 16.052 156.593 16.2847C163.593 19.9332 163.828 29.1472 163.828 29.1472Z" fill="#18355D"/>
<path d="M103.194 126.873L100.516 118.811C100.456 118.624 100.35 118.454 100.207 118.319C100.064 118.183 99.8889 118.087 99.6982 118.038C99.6747 118.038 99.6482 118.038 99.6218 118.02C99.5953 118.003 99.5894 118.02 99.5718 118.02C99.5101 118.016 99.4482 118.016 99.3866 118.02C99.0895 118.021 98.8038 118.135 98.5869 118.338C98.3694 118.539 98.1957 118.783 98.0769 119.054C97.958 119.325 97.8964 119.618 97.896 119.914C97.8962 120.145 97.9329 120.376 98.0048 120.596C98.5928 122.298 99.6394 125.37 100.136 126.77" fill="#18355D"/>
<path d="M102.588 126.873L99.7012 118.038C99.6776 118.038 99.6512 118.038 99.6247 118.02C99.5982 118.003 99.5924 118.02 99.5747 118.02L98.0606 117.726C97.2521 117.576 96.4436 117.415 95.6351 117.265C94.6649 117.071 93.6889 116.909 92.7216 116.677C92.4933 116.612 92.2587 116.573 92.0219 116.559C91.7239 116.558 91.4371 116.673 91.2222 116.88C91.0028 117.08 90.828 117.325 90.709 117.597C90.59 117.87 90.5294 118.164 90.5313 118.461C90.5299 118.69 90.5666 118.918 90.6401 119.135C91.2898 121.04 92.5276 124.644 92.9215 125.738L102.588 126.873Z" fill="#18355D"/>
<path d="M159.671 86.6918C159.377 89.964 159.224 93.9242 159.122 98.9016C159.122 109.486 147.42 118.25 137.022 120.255L117.953 124.562C115.433 125.05 113.202 123.477 111.449 122.433C109.647 121.36 107.801 120.081 106.501 119.132C104.632 117.765 101.03 118.864 101.768 122.125C101.927 122.745 102.227 123.319 102.645 123.804C103.062 124.289 103.586 124.671 104.176 124.921C104.508 125.069 104.85 125.195 105.199 125.297C105.329 125.33 105.445 125.404 105.528 125.509C105.611 125.614 105.658 125.744 105.66 125.878C105.662 126.012 105.619 126.143 105.539 126.251C105.459 126.358 105.346 126.436 105.217 126.473C103.564 127.043 100.539 127.381 95.6587 125.591C89.4053 123.289 88.9202 137.56 97.4697 140.044H97.5021C105.378 142.425 113.854 142.12 121.995 141.779C131.24 141.428 140.438 140.306 149.496 138.424C154.103 137.448 158.836 136.434 163.052 134.349C170.314 130.759 175.547 126.643 180.525 120.237C186.111 113.055 188.495 103.632 189.842 94.7974C191.382 84.6896 189.254 76.1548 183.835 67.4554L183.635 67.1378" stroke="black" stroke-width="4.21" stroke-miterlimit="10"/>
<path d="M103.194 126.873L100.516 118.811C100.456 118.624 100.35 118.454 100.207 118.319C100.064 118.183 99.8889 118.087 99.6982 118.038C99.6747 118.038 99.6482 118.038 99.6218 118.02C99.5953 118.003 99.5894 118.02 99.5718 118.02C99.5101 118.016 99.4482 118.016 99.3866 118.02C99.0895 118.021 98.8038 118.135 98.5869 118.338C98.3694 118.539 98.1957 118.783 98.0769 119.054C97.958 119.325 97.8964 119.618 97.896 119.914C97.8962 120.145 97.9329 120.376 98.0048 120.596C98.5928 122.298 99.6394 125.37 100.136 126.77" stroke="black" stroke-width="4.21" stroke-miterlimit="10"/>
<path d="M99.7012 118.038C99.6776 118.038 99.6512 118.038 99.6247 118.02C99.5982 118.003 99.5924 118.02 99.5747 118.02L98.0606 117.726C97.2521 117.576 96.4436 117.415 95.6351 117.265C94.6649 117.071 93.6889 116.909 92.7216 116.677C92.4933 116.612 92.2587 116.573 92.0219 116.559C91.7239 116.558 91.4371 116.673 91.2222 116.88C91.0028 117.08 90.828 117.325 90.709 117.597C90.59 117.87 90.5294 118.164 90.5313 118.461C90.5299 118.69 90.5666 118.918 90.6401 119.135C91.2898 121.04 92.5276 124.644 92.9215 125.738" stroke="black" stroke-width="4.21" stroke-miterlimit="10"/>
<path d="M136.613 31.408C136.613 35.23 137.357 38.8844 139.191 42.2596C140.661 44.9702 142.819 47.7015 145.906 48.5982C146.59 48.7956 147.299 48.8945 148.011 48.8922C153.25 48.8687 154.068 42.6623 154.068 42.6623" stroke="black" stroke-width="4.21" stroke-miterlimit="10"/>
<path d="M161.2 33.6248V33.6424C160.958 35.5388 160.54 37.4087 159.954 39.2284C159.253 41.399 159.088 43.7068 159.472 45.9551L160.286 50.6915C160.323 50.9025 160.419 51.0988 160.562 51.2579C160.706 51.417 160.891 51.5325 161.097 51.5911C171.434 54.5929 180.61 61.2167 185.949 70.7805C192.608 82.7228 193.823 97.1053 193.285 110.512C192.811 122.133 190.933 133.688 188.266 144.998C186.636 151.91 183.5 158.378 179.081 163.938C174.663 169.499 169.071 174.015 162.706 177.164C154.329 181.347 145.678 184.957 136.813 187.969C132.12 189.523 127.832 192.104 124.262 195.523C120.691 198.942 117.927 203.113 116.171 207.735L95.3385 263.13C94.5728 265.175 93.0627 266.855 91.1107 267.834L71.1481 277.862C68.6273 279.124 65.7517 279.489 62.9955 278.897C62.2809 278.743 61.6293 278.377 61.1256 277.847C60.6218 277.318 60.2893 276.648 60.1713 275.927C60.0533 275.206 60.1552 274.465 60.4639 273.803C60.7726 273.14 61.2736 272.586 61.9018 272.212L72.0978 266.146L86.1186 194.669C87.1053 188.292 89.4613 182.205 93.0245 176.825C96.5878 171.446 101.274 166.901 106.76 163.505C107.492 163.059 108.254 162.666 109.042 162.329L139.436 149.131" stroke="black" stroke-width="4.21" stroke-miterlimit="10"/>
<path d="M152.845 15.0646C151.22 14.6773 149.538 14.5916 147.882 14.8117C147.814 14.8132 147.746 14.8191 147.679 14.8294" stroke="black" stroke-width="4.21" stroke-miterlimit="10"/>
<path d="M145.483 50.0241C145.483 50.0241 140.106 62.3515 149.723 62.9601C158.351 63.5128 161.518 51.7881 161.518 51.7881" stroke="black" stroke-width="4.21" stroke-miterlimit="10"/>
<path d="M160.524 37.338C160.585 37.1116 161.512 33.7688 159.742 31.6638C157.972 29.5588 155.573 33.1691 155.332 33.5307C155.802 28.3475 152.201 24.4167 152.201 24.4167C153.529 29.006 151.818 32.0048 151.818 32.0048C145.242 33.5454 141.622 32.3723 139.056 31.8667C138.804 30.2349 138.835 28.5718 139.15 26.951C138.165 28.3373 137.596 29.9767 137.512 31.6756H137.471C136.494 31.4159 135.568 30.9935 134.731 30.4261L133.429 29.5441C135.399 19.5128 142.272 13.1977 152.897 15.0499C163.523 16.9021 163.819 29.1207 163.819 29.1207L161.453 30.0409C161.453 30.0409 161.473 34.0746 160.524 37.338Z" stroke="black" stroke-width="4.21" stroke-miterlimit="10"/>
<path d="M140.735 36.8147V41.6921C140.735 41.7515 140.75 41.81 140.777 41.8628C140.804 41.9156 140.843 41.9613 140.891 41.9962C140.939 42.0311 140.995 42.0542 141.054 42.0637C141.112 42.0732 141.172 42.0688 141.229 42.0508C141.612 41.9238 141.965 41.7175 142.264 41.4452" stroke="black" stroke-width="4.21" stroke-miterlimit="10"/>
<path d="M137.818 40.5175C139.357 39.9176 139.928 37.6973 139.094 35.5582C138.26 33.4191 136.336 32.1713 134.798 32.7711C133.259 33.371 132.688 35.5913 133.522 37.7304C134.356 39.8695 136.28 41.1173 137.818 40.5175Z" stroke="black" stroke-width="4.21" stroke-miterlimit="10"/>
<path d="M147.076 41.9122C148.615 41.3123 149.186 39.092 148.352 36.9529C147.518 34.8137 145.595 33.5659 144.056 34.1658C142.518 34.7656 141.947 36.986 142.781 39.1251C143.615 41.2642 145.538 42.512 147.076 41.9122Z" stroke="black" stroke-width="4.21" stroke-miterlimit="10"/>
<path d="M139.441 37.0675C139.441 37.0675 140.353 36.0268 142.264 37.2469" stroke="black" stroke-width="4.21" stroke-miterlimit="10"/>
<path d="M145.051 48.2895C145.051 48.2895 145.712 50.5298 147.659 57.7916" stroke="black" stroke-width="4.21" stroke-miterlimit="10"/>
<path d="M96.3232 260.513L107.789 254.325C108.446 253.968 109.007 253.457 109.421 252.835C109.836 252.213 110.092 251.499 110.168 250.756C112.073 232.042 111.491 220.212 111.491 220.212" stroke="black" stroke-width="4.21" stroke-miterlimit="10"/>
<path d="M85.9155 164.546L41.7891 133.708" stroke="black" stroke-width="4.21" stroke-miterlimit="10"/>
<path d="M83.4165 173.043L41.7891 143.948" stroke="black" stroke-width="4.21" stroke-miterlimit="10"/>
<path d="M252.211 114.428V139.674C252.211 140.831 251.875 141.964 251.243 142.934C250.612 143.904 249.712 144.67 248.653 145.139L217.342 159.004L207.77 173.551C207.523 173.912 207.169 174.185 206.757 174.331C206.345 174.476 205.898 174.487 205.479 174.362C205.061 174.237 204.693 173.981 204.43 173.633C204.166 173.285 204.02 172.862 204.012 172.425V164.91L200.802 166.33C200.088 166.643 199.307 166.773 198.531 166.709C197.754 166.645 197.005 166.388 196.352 165.963C195.699 165.538 195.161 164.958 194.788 164.274C194.415 163.589 194.217 162.823 194.213 162.044V140.961C194.214 138.332 194.983 135.76 196.426 133.562C197.87 131.364 199.924 129.635 202.337 128.59L245.366 109.935C246.111 109.612 246.925 109.479 247.734 109.549C248.544 109.618 249.323 109.888 250.002 110.333C250.681 110.779 251.238 111.387 251.624 112.101C252.009 112.816 252.211 113.616 252.211 114.428Z" fill="#D7E8F0"/>
<path d="M213.802 147.425C215.344 144.45 214.927 141.173 212.869 140.107C210.812 139.041 207.894 140.588 206.352 143.564C204.81 146.539 205.227 149.815 207.284 150.882C209.341 151.948 212.259 150.4 213.802 147.425Z" fill="white"/>
<path d="M227.174 141.701C228.716 138.726 228.299 135.45 226.242 134.383C224.185 133.317 221.267 134.865 219.725 137.84C218.182 140.815 218.6 144.092 220.657 145.158C222.714 146.224 225.632 144.677 227.174 141.701Z" fill="white"/>
<path d="M240.097 135.521C241.639 132.545 241.221 129.269 239.164 128.203C237.107 127.136 234.189 128.684 232.647 131.659C231.105 134.635 231.522 137.911 233.579 138.977C235.636 140.044 238.554 138.496 240.097 135.521Z" fill="white"/>
</svg>
