<svg width="96" height="60" viewBox="0 0 96 60" fill="none" xmlns="http://www.w3.org/2000/svg">
<path d="M19.5698 51.0495C18.1955 49.6845 17.4407 48.3579 18.8818 47.043C20.29 45.758 22.4051 45.7768 24.3496 46.2748C29.81 47.6732 33.1576 50.9866 37.0236 53.7149C38.8001 54.9691 36.594 56.6845 34.7999 57.5081C32.0886 58.7533 29.0752 58.9226 26.6669 57.0298C24.1505 55.052 22.2989 52.6798 19.5698 51.0495ZM27.34 33.1093C29.0778 32.1918 30.2149 30.7661 28.4567 29.5804C25.3375 27.4773 21.9238 25.5426 18.3384 23.8446C16.3069 22.8828 13.6936 22.8675 11.9295 24.5036C10.404 25.9187 10.7113 27.3642 12.3459 28.6782C14.5363 30.468 16.5478 32.3889 18.9619 34.0148C22.0998 36.1285 24.8056 34.4479 27.34 33.1093ZM80.9802 40.9639C83.6514 39.5209 83.5189 37.5018 81.0164 35.8717C77.3556 33.4869 73.7002 31.0633 69.1753 29.4652C67.1886 28.7638 64.9598 27.9965 63.1355 29.503C61.1919 31.1088 62.4378 32.6562 64.2049 34.3713C66.8893 36.3658 69.7733 38.6838 72.4777 41.1339C75.1055 43.5142 78.459 42.3259 80.9802 40.9639ZM78.0617 51.1761C76.6177 52.5416 77.0631 53.7778 78.5354 54.9434C79.4492 55.6673 80.4104 56.3616 81.1567 56.9233C81.6447 57.9479 82.4034 58.749 83.2904 59.4248H93.6743C93.7775 59.4248 93.8725 59.405 93.9749 59.4038C95.4471 58.4322 95.7143 57.1444 94.3102 56.2138C91.0116 54.0276 87.7927 51.7198 83.7776 50.1526C81.548 49.282 79.5834 49.7378 78.0617 51.1761ZM11.0071 11.3051C14.9024 9.6658 13.8701 7.78382 11.8502 5.70217C10.7399 4.55776 9.90141 3.28143 8.97402 2.05211C7.9745 0.727631 6.70601 -0.213861 4.29782 0.0614203C1.70162 0.357731 0.641999 1.63917 0.247689 3.22819C-0.333314 5.57017 1.24078 7.56503 2.41207 9.28217C5.03638 12.2882 7.52265 12.7718 11.0071 11.3051ZM59.5061 54.9611C57.976 53.6581 56.566 52.2764 54.1688 51.6743C52.1366 51.1638 50.2274 51.1291 48.7271 52.4365C47.4037 53.5898 47.6095 54.7818 48.7032 55.9432C49.8034 57.1112 50.9303 58.2667 52.0513 59.4248H64.8537C63.0115 57.9772 61.2681 56.4612 59.5061 54.9611ZM41.6422 16.1507C37.9749 13.8171 34.1674 11.5846 30.2882 9.4258C28.0475 8.17909 25.6385 7.91991 23.4123 9.63231C21.2662 11.2827 22.3462 12.6731 23.8887 14.1136C26.7795 16.4057 29.5146 18.8084 32.6099 20.9547C35.0898 22.6745 38.8756 22.2251 41.5898 20.1787C43.3399 18.8593 43.5531 17.3666 41.6422 16.1507ZM46.0636 40.9735C48.7428 42.7804 52.9089 42.3085 55.6228 40.2441C58.7104 37.8959 56.0425 36.8763 53.781 35.6398C52.3655 34.8659 51.1975 33.8532 49.722 33.1512C47.0077 31.8608 44.7584 28.4822 40.7672 30.9804C36.9819 33.3502 40.8244 35.5108 42.4354 37.6409C43.6247 38.7545 44.6404 40.0131 46.0636 40.9735Z" fill="#FFC278"/>
</svg>
