<svg width="160" height="133" viewBox="0 0 160 133" fill="none" xmlns="http://www.w3.org/2000/svg">
<path d="M0.591797 0.000244141H104.77C110.735 4.76503 117.241 9.42758 124.455 14.9251C125.217 8.3002 121.658 3.92414 117.757 0.000244141H140.382C141.612 5.7944 143.936 11.4928 147.554 17.0497C150.945 22.2569 155.475 27.1012 159.989 31.9428V59.2574C155.06 57.9116 149.604 57.737 144.438 57.0007C135.059 55.6637 125.507 54.9379 116.073 53.773C102.272 52.0689 89.0532 54.8662 75.5732 55.6457C58.8888 56.6105 49.1762 65.4404 35.2506 69.1126C25.0884 71.7928 11.3596 68.3578 7.05115 61.354C5.17675 58.3069 7.40541 56.3445 10.3127 54.7157C17.6888 50.5825 25.7687 47.4231 35.268 46.2744C38.1574 45.925 41.9989 46.5126 43.1196 43.5092C44.2621 40.4479 39.8565 39.8445 37.9333 38.5656C34.2156 36.0942 29.8961 34.4525 31.8448 29.9591C33.2476 26.7251 35.5766 25.5515 39.9161 27.0344C58.2163 33.2874 78.4885 32.4542 97.83 34.8607C112.196 36.6479 125.932 39.3082 139.237 43.4171C141.865 44.2287 145.965 46.3209 147.798 44.3213C150.125 41.7831 145.575 39.7224 143.317 38.0426C136.753 33.1593 127.748 30.9633 119.155 28.5028C101.438 23.4296 82.9694 19.8609 64.3431 17.0842C48.241 14.6837 32.5461 11.4044 17.3729 7.25172C11.491 5.642 5.57281 3.23579 0.591797 0.000244141ZM152.431 2.14764C153.968 5.04461 156.02 7.88719 158.491 10.6777C158.998 11.2508 159.49 11.8249 159.989 12.3983V12.215C159.989 8.03326 156.99 4.34966 152.431 2.14764ZM159.989 70.9049C155.073 72.0554 149.983 72.4997 144.575 72.0741C133.215 71.1803 121.836 70.3303 110.433 69.807C99.6963 69.3145 88.6755 66.9091 78.4275 71.5165C74.0482 73.4852 68.9435 75.5189 69.2363 79.4787C69.5376 83.5448 75.7273 83.3747 79.8551 84.506C80.0826 84.5684 80.3429 84.5711 80.5704 84.6325C81.8639 84.981 83.7338 84.8917 83.8273 86.2674C83.9181 87.5996 82.1196 87.931 80.8555 88.2052C75.5215 89.3623 71.272 91.4509 68.192 94.7473C62.9139 100.397 58.6085 106.347 56.4609 112.986C53.7547 121.35 56.3461 126.985 64.2804 130.669C69.1411 132.926 72.814 132.547 75.7495 128.882C78.6204 125.298 81.3365 121.615 84.7277 118.281C97.7822 105.448 119.021 101.508 137.989 95.9794C145.204 93.8761 152.566 92.0031 159.989 90.2341V70.9049Z" fill="#2D476C"/>
</svg>
