<svg width="93" height="93" viewBox="0 0 93 93" fill="none" xmlns="http://www.w3.org/2000/svg">
<g id="&#240;&#159;&#166;&#134; icon &#34;File Invoice&#34;">
<g id="&#240;&#159;&#166;&#134; icon &#34;qr code scanner&#34;">
<path id="Vector" d="M36.9189 25.417V36.917H25.4189V25.417H36.9189ZM42.6689 19.667H19.6689V42.667H42.6689V19.667ZM36.9189 56.0837V67.5837H25.4189V56.0837H36.9189ZM42.6689 50.3337H19.6689V73.3337H42.6689V50.3337ZM67.5856 25.417V36.917H56.0856V25.417H67.5856ZM73.3356 19.667H50.3356V42.667H73.3356V19.667ZM50.3356 50.3337H56.0856V56.0837H50.3356V50.3337ZM56.0856 56.0837H61.8356V61.8337H56.0856V56.0837ZM61.8356 50.3337H67.5856V56.0837H61.8356V50.3337ZM50.3356 61.8337H56.0856V67.5837H50.3356V61.8337ZM56.0856 67.5837H61.8356V73.3337H56.0856V67.5837ZM61.8356 61.8337H67.5856V67.5837H61.8356V61.8337ZM67.5856 56.0837H73.3356V61.8337H67.5856V56.0837ZM67.5856 67.5837H73.3356V73.3337H67.5856V67.5837ZM81.0023 27.3337C78.8939 27.3337 77.1689 25.6087 77.1689 23.5003V15.8337H69.5023C67.3939 15.8337 65.6689 14.1087 65.6689 12.0003C65.6689 9.89199 67.3939 8.16699 69.5023 8.16699H81.0023C83.1106 8.16699 84.8356 9.89199 84.8356 12.0003V23.5003C84.8356 25.6087 83.1106 27.3337 81.0023 27.3337ZM84.8356 81.0003V69.5003C84.8356 67.392 83.1106 65.667 81.0023 65.667C78.8939 65.667 77.1689 67.392 77.1689 69.5003V77.167H69.5023C67.3939 77.167 65.6689 78.892 65.6689 81.0003C65.6689 83.1087 67.3939 84.8337 69.5023 84.8337H81.0023C83.1106 84.8337 84.8356 83.1087 84.8356 81.0003ZM12.0023 84.8337H23.5023C25.6106 84.8337 27.3356 83.1087 27.3356 81.0003C27.3356 78.892 25.6106 77.167 23.5023 77.167H15.8356V69.5003C15.8356 67.392 14.1106 65.667 12.0023 65.667C9.89395 65.667 8.16895 67.392 8.16895 69.5003V81.0003C8.16895 83.1087 9.89395 84.8337 12.0023 84.8337ZM8.16895 12.0003V23.5003C8.16895 25.6087 9.89395 27.3337 12.0023 27.3337C14.1106 27.3337 15.8356 25.6087 15.8356 23.5003V15.8337H23.5023C25.6106 15.8337 27.3356 14.1087 27.3356 12.0003C27.3356 9.89199 25.6106 8.16699 23.5023 8.16699H12.0023C9.89395 8.16699 8.16895 9.89199 8.16895 12.0003Z" fill="#18355D"/>
</g>
</g>
</svg>
