<svg width="270" height="270" viewBox="0 0 270 270" fill="none" xmlns="http://www.w3.org/2000/svg">
<path d="M143.37 67.5189C143.37 67.5189 177.12 48.8295 194.694 72.4518C212.269 96.0741 185.99 114.523 209.077 128.423C232.165 142.322 214.334 168.996 235.267 177.857C256.2 186.718 249.985 225.007 225.45 233.842" stroke="#CCDDE2" stroke-width="5.14" stroke-miterlimit="10"/>
<path d="M47.0283 206.726C46.9635 206.996 46.9095 207.244 46.8636 207.511C46.7529 208.067 46.6503 208.632 46.5774 209.204C44.9574 221.146 50.2008 233.123 57.5448 242.29" stroke="#CCDDE2" stroke-width="5.14" stroke-miterlimit="10"/>
<path d="M164.368 69.9867H61.7653C49.1843 69.9867 38.9854 80.1856 38.9854 92.7666V189.359C38.9854 201.94 49.1843 212.139 61.7653 212.139H164.368C176.949 212.139 187.148 201.94 187.148 189.359V92.7666C187.148 80.1856 176.949 69.9867 164.368 69.9867Z" fill="#000662"/>
<path d="M162.858 67.9104H61.1142C47.6981 67.9104 36.8223 78.7862 36.8223 92.2023V187.847C36.8223 201.263 47.6981 212.139 61.1142 212.139H162.858C176.274 212.139 187.15 201.263 187.15 187.847V92.2023C187.15 78.7862 176.274 67.9104 162.858 67.9104Z" stroke="#18355D" stroke-width="5.14" stroke-miterlimit="10"/>
<path d="M161.454 72.7812H64.6783C52.0973 72.7812 41.8984 82.9801 41.8984 95.5611V186.562C41.8984 199.143 52.0973 209.342 64.6783 209.342H161.454C174.035 209.342 184.234 199.143 184.234 186.562V95.5611C184.234 82.9801 174.035 72.7812 161.454 72.7812Z" fill="#1E3C65"/>
<path d="M167.419 79.9497H137.617C133.567 79.9497 130.275 83.4867 130.275 87.8418V167.457C130.275 171.82 133.567 175.36 137.617 175.36H167.419C171.469 175.36 174.774 171.82 174.774 167.457V87.8418C174.774 83.4867 171.48 79.9497 167.419 79.9497ZM171.305 165.24C171.305 168.88 168.567 171.82 165.181 171.82H139.86C136.475 171.82 133.737 168.88 133.737 165.24V90.0774C133.737 86.4405 136.475 83.4975 139.86 83.4975H165.176C168.561 83.4975 171.299 86.4405 171.299 90.0774L171.305 165.24Z" fill="#D7E8F0"/>
<path d="M100.238 180.449L56.5598 179.82C56.0898 179.812 55.6421 179.618 55.3151 179.28C54.9881 178.943 54.8084 178.489 54.8156 178.019C54.8155 177.857 54.8391 177.696 54.8858 177.541C54.9976 177.171 55.2266 176.848 55.5383 176.619C55.85 176.391 56.2275 176.27 56.6138 176.275L100.292 176.918C99.9602 177.423 99.7735 178.009 99.7517 178.613C99.7342 179.259 99.9029 179.896 100.238 180.449Z" fill="#000662"/>
<path d="M110.824 179.304C110.713 179.675 110.485 179.999 110.174 180.229C109.863 180.458 109.486 180.581 109.099 180.579L105.945 180.533C106.283 180.005 106.467 179.394 106.476 178.768C106.486 178.142 106.321 177.525 105.999 176.988L109.153 177.034C109.623 177.042 110.07 177.236 110.398 177.574C110.725 177.911 110.906 178.364 110.9 178.834C110.898 178.994 110.872 179.152 110.824 179.304Z" fill="#D7E8F0"/>
<path d="M110.721 186.338C110.611 186.707 110.383 187.031 110.072 187.259C109.761 187.488 109.384 187.609 108.999 187.604L65.5908 186.97C66.0727 186.399 66.3469 185.683 66.3684 184.937C66.3891 184.419 66.2864 183.905 66.0687 183.435L109.047 184.056C109.517 184.066 109.964 184.26 110.29 184.597C110.617 184.935 110.797 185.388 110.792 185.857C110.792 186.02 110.768 186.182 110.721 186.338Z" fill="#D7E8F0"/>
<path d="M60.3722 186.891L56.4599 186.84C55.9906 186.834 55.5431 186.641 55.2155 186.305C54.888 185.969 54.7073 185.516 54.713 185.047C54.7137 184.883 54.7383 184.719 54.7859 184.561C54.8952 184.192 55.1225 183.868 55.4332 183.641C55.7439 183.413 56.1207 183.293 56.5058 183.3L59.9915 183.357C59.7905 183.78 59.6766 184.239 59.6567 184.707C59.6267 185.497 59.8805 186.272 60.3722 186.891Z" fill="#000662"/>
<path d="M97.1462 194.54L56.6193 193.952C56.1504 193.94 55.7048 193.745 55.3785 193.408C55.0522 193.072 54.8714 192.62 54.8751 192.151C54.877 191.991 54.9025 191.833 54.9507 191.681C55.0616 191.311 55.2898 190.986 55.6009 190.756C55.912 190.527 56.2892 190.404 56.676 190.407L97.1409 191.003C96.8097 191.534 96.6342 192.147 96.6342 192.772C96.6342 193.397 96.8097 194.01 97.1409 194.54H97.1462Z" fill="#000662"/>
<path d="M110.891 193.452C110.78 193.823 110.551 194.147 110.239 194.376C109.926 194.604 109.548 194.723 109.161 194.716L102.807 194.619L97.1375 194.54C96.8064 194.01 96.6309 193.397 96.6309 192.772C96.6309 192.147 96.8064 191.534 97.1375 191.003L102.905 191.09L109.212 191.179C109.68 191.187 110.127 191.38 110.454 191.716C110.781 192.051 110.961 192.503 110.956 192.972C110.959 193.134 110.938 193.296 110.891 193.452Z" fill="#D7E8F0"/>
<path d="M105.945 180.533C105.549 181.154 104.959 181.628 104.266 181.88C103.574 182.133 102.818 182.151 102.114 181.931C101.411 181.711 100.799 181.266 100.374 180.663C99.9492 180.061 99.7341 179.336 99.7622 178.6C99.7772 178.159 99.879 177.725 100.062 177.323C100.245 176.921 100.505 176.56 100.828 176.259C101.15 175.958 101.529 175.724 101.943 175.569C102.356 175.415 102.796 175.344 103.237 175.36C103.678 175.374 104.112 175.475 104.514 175.658C104.916 175.84 105.278 176.101 105.579 176.424C105.881 176.746 106.115 177.126 106.269 177.539C106.423 177.953 106.494 178.393 106.477 178.834C106.454 179.438 106.271 180.024 105.945 180.533Z" fill="white"/>
<g opacity="0.72">
<path d="M104.679 178.47C104.605 178.874 104.418 179.249 104.139 179.55C104.004 179.703 103.855 179.843 103.694 179.969C103.607 180.031 103.154 180.4 103.056 180.355C102.452 180.049 101.685 179.275 101.59 178.527C101.575 178.409 101.575 178.29 101.59 178.173C101.624 177.968 101.731 177.782 101.892 177.65C102.052 177.518 102.255 177.449 102.462 177.455C102.597 177.461 102.727 177.498 102.845 177.563C102.963 177.628 103.063 177.72 103.14 177.83C103.258 177.683 103.421 177.577 103.605 177.531C103.788 177.484 103.981 177.499 104.156 177.572C104.33 177.645 104.475 177.773 104.57 177.937C104.665 178.1 104.704 178.29 104.682 178.478L104.679 178.47Z" fill="white"/>
</g>
<path d="M65.5906 186.97C65.2699 187.354 64.8675 187.661 64.4128 187.869C63.9581 188.078 63.4626 188.182 62.9624 188.175C62.4622 188.167 61.97 188.048 61.5218 187.826C61.0735 187.604 60.6805 187.285 60.3715 186.891C59.8779 186.27 59.624 185.492 59.656 184.699C59.6759 184.231 59.7898 183.772 59.9908 183.349C60.2753 182.764 60.723 182.275 61.2798 181.94C61.8365 181.604 62.4786 181.437 63.1282 181.459C63.7541 181.478 64.3618 181.673 64.8816 182.022C65.4013 182.371 65.8118 182.86 66.0658 183.433C66.2835 183.902 66.3862 184.417 66.3655 184.934C66.3453 185.681 66.0721 186.398 65.5906 186.97Z" fill="white"/>
<g opacity="0.72">
<path d="M64.5755 184.575C64.5019 184.979 64.3145 185.353 64.0355 185.655C63.9009 185.809 63.7507 185.949 63.5873 186.073C63.5009 186.135 63.0473 186.508 62.9528 186.459C62.3453 186.154 61.5812 185.379 61.4867 184.631C61.4719 184.514 61.4719 184.395 61.4867 184.278C61.5211 184.073 61.6283 183.888 61.7886 183.756C61.9488 183.624 62.1513 183.554 62.3588 183.56C62.493 183.566 62.624 183.603 62.7415 183.668C62.859 183.733 62.96 183.824 63.0365 183.935C63.1548 183.787 63.3182 183.682 63.5017 183.635C63.6853 183.589 63.8791 183.603 64.0536 183.677C64.2281 183.75 64.3738 183.879 64.4685 184.043C64.5632 184.207 64.6017 184.398 64.5782 184.586L64.5755 184.575Z" fill="white"/>
</g>
<path d="M102.808 194.619C102.404 195.23 101.812 195.692 101.122 195.936C100.431 196.18 99.6801 196.192 98.9822 195.971C98.2843 195.749 97.6778 195.305 97.2548 194.708C96.8318 194.11 96.6154 193.39 96.6384 192.659C96.6609 192.073 96.8338 191.503 97.1406 191.003C97.448 190.511 97.8772 190.107 98.3867 189.83C98.8961 189.552 99.4685 189.411 100.049 189.42C100.629 189.429 101.197 189.587 101.697 189.879C102.198 190.172 102.615 190.589 102.908 191.09C103.229 191.637 103.387 192.265 103.361 192.899C103.338 193.512 103.146 194.107 102.808 194.619Z" fill="white"/>
<g opacity="0.72">
<path d="M101.563 192.534C101.49 192.939 101.303 193.314 101.023 193.614C100.888 193.768 100.737 193.908 100.575 194.033C100.488 194.098 100.035 194.468 99.9401 194.419C99.3326 194.114 98.5685 193.339 98.474 192.591C98.4579 192.474 98.4579 192.355 98.474 192.237C98.5007 192.068 98.5777 191.911 98.695 191.787C98.8123 191.662 98.9644 191.576 99.1315 191.539C99.2986 191.502 99.4728 191.517 99.6316 191.581C99.7903 191.645 99.926 191.755 100.021 191.897C100.14 191.75 100.303 191.646 100.486 191.6C100.669 191.554 100.862 191.568 101.037 191.641C101.211 191.715 101.356 191.842 101.452 192.005C101.547 192.168 101.587 192.358 101.566 192.545L101.563 192.534Z" fill="white"/>
</g>
<path d="M54.4804 88.3224L54.556 98.6769C54.5747 100.482 55.2907 102.21 56.5544 103.499C57.818 104.789 59.5312 105.539 61.3357 105.594L71.5957 105.772C72.4757 105.784 73.3491 105.619 74.1642 105.287C74.9793 104.955 75.7196 104.463 76.3413 103.84C76.963 103.217 77.4536 102.475 77.7839 101.66C78.1143 100.844 78.2777 99.97 78.2647 99.09L78.1864 88.7382C78.1705 86.9311 77.4556 85.2004 76.1917 83.9088C74.9278 82.6172 73.213 81.865 71.4067 81.81L61.1467 81.6291C60.2659 81.6181 59.3919 81.784 58.5764 82.1168C57.7609 82.4497 57.0205 82.9427 56.3989 83.5668C55.7773 84.1909 55.2873 84.9333 54.9577 85.7502C54.6282 86.567 54.4659 87.4417 54.4804 88.3224Z" fill="white"/>
<path d="M56.0576 90.9198L56.1116 98.415C56.1283 99.9834 56.7507 101.485 57.8487 102.605C58.9467 103.725 60.4352 104.377 62.003 104.425L70.913 104.579C71.6781 104.59 72.4377 104.448 73.1467 104.16C73.8558 103.873 74.4999 103.446 75.041 102.905C75.5821 102.364 76.009 101.72 76.2966 101.011C76.5842 100.301 76.7266 99.5419 76.7153 98.7768V98.2692C75.4652 95.7123 73.0298 91.8864 70.4324 94.1733C66.6875 97.4646 64.973 94.959 62.7914 91.7298C60.9527 89.0271 58.1825 87.0534 56.0576 90.9198Z" fill="#000662"/>
<path d="M72.8054 89.8871C73.9356 89.1361 74.227 87.587 73.4563 86.4269C72.6856 85.2669 71.1445 84.9352 70.0143 85.6861C68.884 86.4371 68.5926 87.9862 69.3633 89.1463C70.1341 90.3063 71.6751 90.638 72.8054 89.8871Z" fill="#000662"/>
<path d="M111.346 102.257C109.744 102.256 108.18 102.75 106.871 103.673C105.562 104.596 104.57 105.902 104.033 107.412C103.496 108.921 103.439 110.56 103.871 112.102C104.303 113.645 105.202 115.016 106.445 116.027L88.8035 147.671C88.6783 147.652 88.5521 147.639 88.4255 147.633C88.1015 147.638 87.7798 147.688 87.4697 147.782L74.2505 131.366C74.8354 130.551 75.1646 129.58 75.1961 128.577C75.2277 127.574 74.9602 126.584 74.4276 125.734C73.8951 124.883 73.1217 124.211 72.2056 123.801C71.2896 123.392 70.2725 123.264 69.2836 123.434C68.2948 123.604 67.3789 124.065 66.6526 124.757C65.9262 125.449 65.4222 126.342 65.2047 127.321C64.9872 128.301 65.066 129.323 65.431 130.258C65.7961 131.192 66.4309 131.997 67.2548 132.57L57.9965 158.922C57.1866 158.969 56.4181 159.296 55.8218 159.846C55.2254 160.396 54.838 161.135 54.7254 161.939C54.6128 162.742 54.782 163.56 55.2041 164.253C55.6263 164.945 56.2754 165.471 57.0411 165.739C57.8068 166.007 58.6417 166.002 59.4038 165.724C60.166 165.446 60.8084 164.912 61.2217 164.214C61.635 163.516 61.7938 162.696 61.6709 161.895C61.5481 161.093 61.1513 160.358 60.548 159.816L69.809 133.464C69.9224 133.464 70.0331 133.48 70.1465 133.48C70.8363 133.48 71.519 133.34 72.1526 133.067L85.361 149.48C85.073 150.01 84.9281 150.606 84.9404 151.209C84.9526 151.812 85.1217 152.401 85.431 152.919C85.7403 153.436 86.179 153.865 86.7041 154.161C87.2292 154.458 87.8224 154.612 88.4255 154.61C89.0807 154.613 89.7235 154.432 90.2799 154.086C90.8363 153.74 91.2836 153.243 91.5703 152.654C91.857 152.065 91.9714 151.407 91.9003 150.755C91.8293 150.104 91.5757 149.486 91.1687 148.973L108.81 117.339C109.876 117.708 111.008 117.84 112.13 117.726C113.251 117.612 114.334 117.256 115.304 116.68C116.273 116.105 117.106 115.326 117.743 114.396C118.38 113.466 118.807 112.409 118.994 111.297C119.181 110.185 119.123 109.046 118.825 107.959C118.527 106.872 117.995 105.863 117.267 105.003C116.539 104.142 115.632 103.451 114.609 102.977C113.587 102.502 112.473 102.257 111.346 102.257Z" fill="white"/>
<path d="M231.045 190.922C231.026 190.839 231.007 190.758 230.98 190.674C230.107 187.554 228.312 184.771 225.828 182.69C225.799 182.674 225.764 182.644 225.734 182.625C225.504 182.461 225.264 182.301 225.024 182.145C224.7 181.942 224.365 181.748 224.033 181.553C224.005 181.534 223.974 181.518 223.941 181.507C222.656 180.909 221.432 180.185 220.288 179.347L220.231 179.31C218.687 178.284 217.291 177.09 216.327 175.435C216.305 175.4 216.287 175.363 216.273 175.324C216.254 175.324 216.254 175.295 216.246 175.287C215.358 173.937 214.821 172.457 214.931 170.921V170.875C214.661 168.369 214.931 165.731 214.829 163.188C214.829 163.031 214.829 162.875 214.802 162.716C214.775 162.556 214.775 162.365 214.764 162.208C214.774 162.156 214.774 162.103 214.764 162.051C214.727 161.549 214.662 161.048 214.569 160.553C213.692 155.798 210.638 151.562 206.901 148.576C206.817 148.504 206.727 148.438 206.631 148.381C202.441 145.309 197.854 144.115 194.849 143.653C194.821 143.65 194.793 143.65 194.765 143.653C193.636 143.57 192.564 143.589 191.574 143.365C191.555 143.365 191.536 143.365 191.528 143.365C190.419 143.15 189.429 142.53 188.752 141.626C188.496 141.297 188.267 140.947 188.069 140.581C188.041 140.56 188.021 140.531 188.012 140.497C187.234 139.286 186.721 137.924 186.506 136.501C186.479 136.363 186.441 136.231 186.422 136.093C185.774 133.015 185.755 129.667 185.739 126.9C185.488 122.637 183.592 117.142 180.298 113.23C180.298 113.23 180.298 113.211 180.279 113.211C179.324 112.256 178.249 111.429 177.08 110.751C174.124 109.096 170.731 108.389 167.36 108.726C167.36 108.726 167.36 108.726 167.341 108.726C167.336 108.725 167.33 108.725 167.325 108.726C165.251 108.902 163.242 109.533 161.442 110.576C160.78 110.956 160.153 111.395 159.57 111.888C156.06 114.901 154.049 119.61 153.493 124.254C153.447 124.613 153.42 124.967 153.401 125.334C153.392 125.377 153.392 125.421 153.401 125.464C152.963 126.06 152.704 126.769 152.653 127.507C152.603 128.327 152.801 129.142 153.219 129.847C153.638 130.553 154.259 131.117 155.002 131.466V131.539C155.002 131.779 155.002 132.03 155.002 132.27C155.056 133.913 155.414 135.532 156.058 137.044C157.138 139.595 159.063 142.509 162.327 142.97C162.907 143.053 163.491 143.106 164.077 143.13L165.621 149.734L166.944 155.458C172.714 152.175 179.856 151.184 185.949 153.101H185.968C188.821 153.965 191.413 155.529 193.507 157.65C200.278 163.172 207.9 189.451 208.357 191.079C208.359 191.098 208.365 191.117 208.376 191.133C208.376 191.133 208.376 191.133 208.376 191.152C208.376 191.171 208.376 191.179 208.395 191.198C208.414 191.274 208.442 191.349 208.478 191.419C208.505 191.503 208.535 191.587 208.57 191.67L208.764 192.17C210.114 195.655 214.472 207.02 215.442 209.825C216.6 213.138 217.504 213.397 217.504 213.397C217.554 213.386 217.601 213.367 217.645 213.341L217.828 213.268C220.752 212.083 223.465 210.431 225.858 208.375C225.877 208.375 225.877 208.375 225.877 208.356C228.093 206.103 229.7 203.325 230.548 200.281C231.483 197.25 231.654 194.035 231.045 190.922Z" fill="white"/>
<path d="M156.44 123.182C156.44 123.182 157.145 111.378 168.169 108.602C179.193 105.827 185.765 118.641 186.259 126.857C186.753 135.073 186.259 140.746 192.053 143.327C192.053 143.327 208.793 143.124 214.955 158.509C214.955 158.509 215.789 166.042 215.449 170.891C215.109 175.74 221.159 179.993 224.456 181.491C227.753 182.99 233.485 189.078 231.927 199.022C230.369 208.967 218.022 213.389 218.022 213.389C218.022 213.389 217.112 213.119 215.957 209.812C214.801 206.504 208.885 191.16 208.885 191.16C208.885 191.16 201.004 163.35 194.008 157.658C190.158 154.521 186.03 153.101 183.311 151.448C180.446 149.707 179.069 147.787 178.113 146.556C176.248 144.156 172.94 140.53 175.332 131.976C177.725 123.422 175.313 127.734 173.062 126.53C173.062 126.53 170.27 122.21 166.058 125.267C161.846 128.323 162.872 120.882 162.872 120.882L161.022 123.371C161.022 123.371 158.123 123.946 156.44 123.182Z" fill="#000662"/>
<path d="M128.903 139.269C129.022 139.101 129.173 138.926 129.3 138.75C129.427 138.575 129.586 138.407 129.735 138.24C130.218 137.72 130.741 137.238 131.298 136.798C131.474 136.658 131.649 136.528 131.825 136.401L128.903 139.269Z" fill="#000662"/>
<path d="M45.6138 258.39H36.99C35.667 258.39 34.3089 258.39 33.0885 257.85C31.8681 257.31 30.9285 256.343 30.0348 255.382C23.8032 248.805 19.7343 244.015 13.5 237.419L15.5898 235.259C16.7351 234.294 18.196 233.786 19.693 233.83C21.1899 233.875 22.6178 234.47 23.7033 235.502L32.535 244.177L45.6138 258.39Z" fill="#000662"/>
<path d="M167.499 223.439C163.21 224.366 158.9 225.247 154.569 226.084C149.463 227.074 144.354 228.043 139.244 228.99L134.478 223.16L126.648 231.282C112.598 233.802 98.5198 236.164 84.415 238.367L84.4798 238.302L121.354 201.093C123.874 198.548 127.048 196.749 130.526 195.893C134.004 195.038 137.651 195.161 141.064 196.247L155.587 200.88C157.987 209.13 162.04 216.805 167.499 223.439Z" fill="white"/>
<path d="M156.718 172.063C154.896 178.373 154.469 185.088 155.22 191.792C155.4 193.511 155.67 195.221 156.03 196.922C156.362 198.623 156.789 200.297 157.269 201.971C159.45 209.456 162.941 216.495 167.581 222.761C167.397 222.799 167.221 222.844 167.062 222.88C161.827 216.373 157.928 208.897 155.59 200.88C155.125 199.26 154.72 197.64 154.396 196.02C154.072 194.4 153.802 192.729 153.619 191.074C152.898 184.607 153.314 178.132 155.071 172.055C156.363 167.577 158.688 163.465 161.859 160.051C162.65 159.192 163.51 158.399 164.43 157.68L164.476 157.645L164.624 157.534L164.689 157.477C165.557 156.818 166.469 156.219 167.419 155.685C169.494 154.502 171.727 153.621 174.05 153.066C172.481 153.597 170.967 154.276 169.527 155.093C168.541 155.65 167.595 156.274 166.695 156.962L166.63 157.016L166.482 157.126H166.465L166.42 157.162C165.466 157.905 164.575 158.725 163.755 159.613C160.47 163.157 158.06 167.421 156.718 172.063Z" fill="#2E2E2E"/>
<path d="M186.194 202.586C186.194 202.586 193.706 212.131 199.964 223.528C192.491 220.504 177.338 221.638 171.263 222.269C170.456 222.308 169.653 222.399 168.858 222.539C168.808 222.54 168.758 222.547 168.709 222.558C168.691 222.56 168.673 222.56 168.655 222.558C168.266 222.634 167.904 222.699 167.575 222.772C162.935 216.506 159.444 209.467 157.264 201.982C156.783 200.308 156.357 198.634 156.024 196.933C155.692 195.232 155.403 193.517 155.214 191.803C154.464 185.099 154.89 178.384 156.713 172.074C158.058 167.431 160.471 163.167 163.76 159.624C164.58 158.736 165.471 157.916 166.425 157.172L166.471 157.137H166.487L166.635 157.027L166.7 156.973C167.6 156.285 168.547 155.661 169.533 155.104C170.972 154.287 172.487 153.608 174.055 153.077C178.181 152.078 182.517 152.107 186.429 153.347H186.448C188.751 154.486 191.435 155.817 193.986 157.899C197.586 161.579 199.489 166.539 201.303 171.366C203.809 178.026 206.322 184.679 208.842 191.325C208.843 191.345 208.85 191.364 208.861 191.381C208.861 191.381 208.861 191.381 208.861 191.4C208.861 191.419 208.861 191.427 208.88 191.446C208.899 191.523 208.927 191.597 208.963 191.668C208.989 191.753 209.02 191.837 209.055 191.919C192.391 188.436 186.194 202.586 186.194 202.586Z" fill="#2E2E2E"/>
<path d="M164.43 157.68C163.51 158.396 162.65 159.185 161.857 160.04C158.686 163.455 156.361 167.566 155.069 172.044C153.312 178.122 152.896 184.596 153.617 191.063C153.403 191.182 153.182 191.284 152.961 191.395C148.317 193.66 143.184 195.326 137.968 195.288C135.107 195.257 132.286 194.609 129.699 193.388C127.111 192.167 124.818 190.402 122.974 188.214C120.061 184.764 118.22 180.592 116.859 176.334C115.425 171.839 114.334 167.324 112.558 162.95C111.421 160.164 110.284 157.037 107.833 155.077C106.575 154.078 105.001 153.727 103.753 152.728C102.428 151.663 101.468 150.212 101.007 148.576C100.804 147.871 100.673 147.147 100.618 146.416C100.386 143.529 101.158 140.513 102.106 137.84L97.2705 134.584C95.9556 133.696 95.3805 131.774 96.1581 130.394C96.3808 130 96.6863 129.658 97.0536 129.394C97.4209 129.129 97.8413 128.947 98.2857 128.86C98.6984 128.782 99.1229 128.788 99.5332 128.878C99.9435 128.969 100.331 129.142 100.672 129.387L110.662 136.563C110.662 136.563 111.432 134.077 113.789 134.843C115.992 135.564 123.836 138.645 123.566 148.154C123.528 149.604 123.911 151.033 124.667 152.269L134.047 167.789C134.712 168.887 135.599 169.833 136.652 170.567C137.705 171.301 138.9 171.805 140.161 172.049C141.421 172.292 142.718 172.268 143.968 171.979C145.219 171.69 146.395 171.142 147.42 170.37L163.839 158.126L164.43 157.68Z" fill="white"/>
<path d="M167.503 162.038L156.433 189.416L153.584 190.747L148.838 192.958C152.639 177.409 147.423 170.159 147.423 170.159L161.169 159.899C161.371 159.975 161.574 160.04 161.787 160.113C164.616 161.047 167.503 162.038 167.503 162.038Z" fill="#2E2E2E"/>
<path d="M173.299 221.889C168.48 223.082 172.365 222.178 167.519 223.223" stroke="#18355D" stroke-width="5.14" stroke-miterlimit="10"/>
<path d="M220.234 221.243C219.715 219.874 219.197 218.506 218.689 217.137L218.633 216.996C212.873 201.696 207.104 186.404 201.328 171.121C199.514 166.301 197.61 161.333 194.011 157.653C186.511 149.996 173.275 150.725 164.719 157.256L164.654 157.31L164.597 157.348C163.624 158.102 162.714 158.936 161.879 159.84C158.707 163.256 156.382 167.368 155.091 171.847C152.879 179.477 152.788 187.736 154.416 195.812C154.737 197.448 155.145 199.066 155.606 200.672C158.008 208.922 162.062 216.596 167.522 223.231C163.229 224.154 158.918 225.036 154.591 225.877C131.283 230.395 107.897 234.482 84.4344 238.14C70.3188 240.351 55.3635 242.73 41.2101 244.62L35.8101 245.287C35.2187 245.361 34.6181 245.303 34.052 245.116C33.486 244.929 32.9687 244.619 32.5377 244.207L23.7033 235.516C22.6178 234.484 21.1899 233.889 19.693 233.844C18.196 233.799 16.7351 234.308 15.5898 235.273L13.5 237.433C19.7343 244.029 23.8032 248.818 30.0375 255.415C30.9447 256.376 31.8789 257.356 33.0912 257.882C34.3035 258.409 35.6697 258.422 36.9927 258.422H44.7255C51.2649 258.422 57.8079 258.422 64.3545 258.422L196.906 258.449C202.335 258.449 207.949 258.414 212.927 256.241C215.329 255.179 217.491 253.64 219.281 251.718" stroke="#18355D" stroke-width="5.14" stroke-miterlimit="10"/>
<path d="M175.5 186.689L221.7 255.301C222.344 256.257 223.213 257.041 224.231 257.583C225.249 258.124 226.384 258.408 227.537 258.409H247.655C248.442 258.409 249.198 258.096 249.755 257.539C250.312 256.982 250.625 256.227 250.625 255.439C250.625 254.651 250.312 253.896 249.755 253.339C249.198 252.782 248.442 252.469 247.655 252.469H238.167C236.635 252.469 235.137 252.011 233.867 251.155C232.596 250.298 231.61 249.081 231.036 247.66L218.16 215.843" stroke="#18355D" stroke-width="5.14" stroke-miterlimit="10"/>
<path d="M84.4316 238.14L84.4964 238.075L121.373 200.88C123.893 198.335 127.067 196.534 130.544 195.677C134.022 194.819 137.669 194.938 141.083 196.02L155.604 200.656" stroke="#18355D" stroke-width="5.14" stroke-miterlimit="10"/>
<path d="M220.36 221.289L220.23 221.243" stroke="#18355D" stroke-width="5.14" stroke-miterlimit="10"/>
<path d="M139.317 228.836L134.501 222.944L126.587 231.136" stroke="#18355D" stroke-width="5.14" stroke-miterlimit="10"/>
<path d="M194.687 158.523V158.514" stroke="#18355D" stroke-width="5.14" stroke-miterlimit="10"/>
<path d="M226.638 253.071C227.849 253.026 229.063 253.065 230.269 253.187C231.255 253.287 232.283 253.346 233.215 253.805C233.99 254.189 234.797 255.11 234.757 256.235C234.684 258.433 232.381 258.417 231.12 258.417" stroke="#18355D" stroke-width="5.14" stroke-miterlimit="10"/>
<path d="M227.121 258.409H231.117H231.174H243.407" stroke="#18355D" stroke-width="5.14" stroke-miterlimit="10"/>
<path d="M153.63 190.849C153.63 190.849 153.603 190.85 153.592 190.868C153.389 190.979 153.184 191.079 152.974 191.182C151.626 191.845 150.246 192.438 148.837 192.958C145.36 194.262 141.688 195.118 137.981 195.075C135.119 195.043 132.299 194.395 129.711 193.174C127.123 191.953 124.829 190.189 122.985 188.001C120.071 184.55 118.233 180.379 116.872 176.121C115.438 171.626 114.347 167.111 112.571 162.737C111.434 159.953 110.295 156.827 107.846 154.864C106.588 153.865 105.014 153.514 103.766 152.515C102.441 151.449 101.481 149.998 101.018 148.362C100.816 147.657 100.687 146.934 100.631 146.202C100.399 143.316 101.171 140.303 102.119 137.63L97.2808 134.374C95.9686 133.485 95.3908 131.563 96.1711 130.183C96.3938 129.789 96.6993 129.448 97.0666 129.183C97.4339 128.918 97.8543 128.736 98.2987 128.65C98.7114 128.571 99.1359 128.577 99.5462 128.668C99.9565 128.758 100.344 128.931 100.685 129.176L110.675 136.353C110.675 136.353 111.445 133.866 113.802 134.633C116.003 135.354 123.846 138.434 123.579 147.944C123.541 149.393 123.924 150.822 124.68 152.059L134.057 167.581C134.722 168.677 135.61 169.622 136.662 170.354C137.714 171.087 138.908 171.59 140.167 171.833C141.426 172.076 142.721 172.053 143.971 171.764C145.22 171.476 146.395 170.929 147.42 170.159L161.165 159.899L163.838 157.912L164.486 157.432L164.635 157.321L164.7 157.267" stroke="#18355D" stroke-width="5.14" stroke-miterlimit="10"/>
<path d="M110.7 136.328C110.7 136.328 109.142 140.122 114.515 142.649" stroke="#18355D" stroke-width="5.14" stroke-miterlimit="10"/>
<path d="M101.263 140.484C101.263 140.484 100.723 145.074 106.823 146.788C108.983 147.396 110.732 144.898 109.417 143.084L109.352 143" stroke="#18355D" stroke-width="5.14" stroke-miterlimit="10"/>
<path d="M100.618 146.151C100.618 146.151 102.654 150.139 106.018 149.696C108.988 149.305 107.908 146.402 107.908 146.402" stroke="#18355D" stroke-width="5.14" stroke-miterlimit="10"/>
<path d="M102.125 137.605L105.67 139.995" stroke="#18355D" stroke-width="5.14" stroke-miterlimit="10"/>
<path d="M217.35 213.621C224.181 211.494 229.011 207.23 231.069 200.283C233.04 193.625 231.757 186.054 225.531 182.15C222.429 180.225 218.765 178.721 216.84 175.424C214.213 170.915 215.984 165.416 215.077 160.537C214.134 155.471 210.727 150.984 206.642 147.976C203.614 145.758 200.093 144.307 196.382 143.748C193.641 143.335 191.147 144.018 189.273 141.588C186.303 137.751 186.281 131.482 186.257 126.862C186.241 123.314 185.404 119.783 183.578 116.74L183.538 116.672C182.09 114.22 180.047 112.171 177.598 110.716C173.008 108.059 166.568 107.814 161.938 110.546C161.277 110.941 160.652 111.393 160.07 111.896C155.79 115.56 153.743 121.751 153.843 127.265" stroke="#18355D" stroke-width="5.14" stroke-miterlimit="10"/>
<path d="M162.54 120.525C162.303 122.145 161.314 123.647 159.57 124.097C157.588 124.6 156.538 126.527 155.982 128.466C155.19 131.309 155.395 134.337 156.562 137.047C157.642 139.595 159.573 142.511 162.834 142.987C168.804 143.837 171.771 141.321 171.771 141.321" stroke="#18355D" stroke-width="5.14" stroke-miterlimit="10"/>
<path d="M167.513 129.2C168.08 129.2 168.539 128.741 168.539 128.174C168.539 127.608 168.08 127.148 167.513 127.148C166.947 127.148 166.487 127.608 166.487 128.174C166.487 128.741 166.947 129.2 167.513 129.2Z" fill="#18355D"/>
<path d="M158.501 128.523C159.067 128.523 159.527 128.063 159.527 127.497C159.527 126.93 159.067 126.471 158.501 126.471C157.934 126.471 157.475 126.93 157.475 127.497C157.475 128.063 157.934 128.523 158.501 128.523Z" fill="#18355D"/>
<path d="M162.54 120.525C162.311 121.5 162.346 122.519 162.64 123.476C162.687 123.632 162.746 123.784 162.819 123.93C163.529 125.604 165.184 126.935 168.116 126.77C174.499 126.417 176.775 126.001 176.256 128.944C176.04 129.978 175.73 130.99 175.33 131.968C174.628 133.825 174.14 137.028 174.861 140.505V140.524C175.692 144.593 180.495 151.016 187.143 153.328" stroke="#18355D" stroke-width="5.14" stroke-miterlimit="10"/>
<path d="M163.101 128.423C163.101 128.423 162.021 132.359 162.132 132.94C162.243 133.52 163.62 133.072 163.62 133.072" stroke="#18355D" stroke-width="5.14" stroke-miterlimit="10"/>
<path d="M163.844 136.677C165.904 137.789 168.291 137.087 169.225 135.227" stroke="#18355D" stroke-width="5.14" stroke-miterlimit="10"/>
<path d="M172.56 132.259C174.332 130.382 174.21 127.389 172.287 125.574C170.365 123.759 167.37 123.81 165.598 125.687C163.826 127.564 163.948 130.557 165.871 132.371C167.793 134.186 170.788 134.136 172.56 132.259Z" stroke="#18355D" stroke-width="5.14" stroke-miterlimit="10"/>
<path d="M160.605 131.163C162.377 129.286 162.255 126.294 160.332 124.479C158.41 122.664 155.415 122.714 153.643 124.591C151.871 126.468 151.993 129.461 153.916 131.276C155.838 133.091 158.833 133.04 160.605 131.163Z" stroke="#18355D" stroke-width="5.14" stroke-miterlimit="10"/>
<path d="M157.023 124.592C157.123 124.592 157.226 124.591 157.329 124.605C158.205 124.688 159.016 125.108 159.589 125.777C160.162 126.446 160.453 127.311 160.401 128.191C160.353 128.999 159.997 129.758 159.405 130.31C158.814 130.863 158.033 131.168 157.223 131.161C157.12 131.161 157.018 131.155 156.915 131.144C156.039 131.062 155.228 130.642 154.655 129.974C154.082 129.305 153.791 128.441 153.843 127.562C153.89 126.753 154.247 125.993 154.839 125.44C155.431 124.887 156.213 124.583 157.023 124.592ZM157.023 123.898C156.039 123.893 155.09 124.264 154.37 124.935C153.65 125.607 153.213 126.528 153.149 127.51C153.085 128.57 153.436 129.613 154.128 130.419C154.819 131.225 155.796 131.731 156.853 131.83C156.976 131.843 157.1 131.85 157.223 131.849C158.205 131.853 159.152 131.484 159.871 130.815C160.59 130.147 161.028 129.23 161.095 128.25C161.158 127.19 160.808 126.147 160.116 125.341C159.425 124.535 158.448 124.029 157.391 123.93C157.269 123.917 157.146 123.911 157.023 123.911V123.898Z" fill="white"/>
<path d="M164.354 128.536L161.846 128.307" stroke="#18355D" stroke-width="5.14" stroke-miterlimit="10"/>
<path d="M168.977 125.588C169.082 125.588 169.186 125.593 169.29 125.604C170.193 125.691 171.026 126.124 171.617 126.812C172.207 127.5 172.508 128.39 172.457 129.295C172.407 130.127 172.039 130.909 171.429 131.477C170.819 132.046 170.013 132.359 169.179 132.351C169.077 132.351 168.969 132.351 168.866 132.338C167.963 132.251 167.129 131.817 166.539 131.129C165.948 130.44 165.648 129.55 165.699 128.644C165.75 127.812 166.118 127.03 166.728 126.462C167.338 125.893 168.143 125.58 168.977 125.588ZM168.977 124.894C167.968 124.889 166.996 125.269 166.258 125.957C165.521 126.645 165.073 127.589 165.008 128.596C164.941 129.682 165.299 130.752 166.007 131.579C166.715 132.406 167.717 132.925 168.801 133.026C168.927 133.039 169.053 133.046 169.179 133.045C170.188 133.05 171.161 132.67 171.898 131.982C172.636 131.294 173.083 130.35 173.148 129.343C173.216 128.259 172.859 127.191 172.154 126.364C171.449 125.537 170.45 125.017 169.368 124.913C169.243 124.9 169.117 124.894 168.99 124.894H168.977Z" fill="white"/>
<path d="M160.111 130.696C161.631 129.086 161.526 126.519 159.877 124.962C158.227 123.405 155.658 123.448 154.138 125.058C152.618 126.668 152.723 129.236 154.372 130.793C156.021 132.35 158.591 132.307 160.111 130.696Z" fill="#000662"/>
<path d="M172.083 131.802C173.61 130.184 173.505 127.605 171.848 126.041C170.191 124.476 167.61 124.52 166.083 126.138C164.555 127.756 164.661 130.335 166.317 131.899C167.974 133.463 170.556 133.42 172.083 131.802Z" fill="#000662"/>
<path d="M167.516 155.779L166.117 149.739L164.6 143.23" stroke="#18355D" stroke-width="5.14" stroke-miterlimit="10"/>
<path d="M256.5 258.398H16.9395" stroke="#18355D" stroke-width="5.14" stroke-miterlimit="10"/>
</svg>
