<svg width="272" height="272" viewBox="0 0 272 272" fill="none" xmlns="http://www.w3.org/2000/svg">
<path d="M181.222 238.987L175.848 244.06C175.708 244.192 175.596 244.352 175.52 244.529C175.444 244.705 175.404 244.896 175.404 245.088V253.169C175.404 253.521 175.535 253.86 175.771 254.12C176.008 254.38 176.333 254.542 176.683 254.576L187.261 255.604L193.092 250.099C193.233 249.967 193.346 249.808 193.422 249.631C193.499 249.454 193.539 249.263 193.539 249.07V240.94C193.539 240.588 193.407 240.248 193.17 239.987C192.932 239.726 192.606 239.564 192.255 239.531L182.324 238.609C182.124 238.591 181.923 238.615 181.733 238.68C181.543 238.745 181.369 238.85 181.222 238.987Z" fill="#18355D"/>
<path d="M180.659 237.578L174.352 243.532C174.187 243.688 174.056 243.875 173.967 244.083C173.878 244.29 173.832 244.514 173.832 244.74V254.222C173.832 254.634 173.985 255.032 174.262 255.338C174.539 255.643 174.92 255.834 175.331 255.873L187.745 257.081L194.591 250.618C194.755 250.463 194.886 250.276 194.976 250.068C195.065 249.86 195.111 249.636 195.111 249.41V239.869C195.11 239.455 194.956 239.057 194.677 238.751C194.398 238.446 194.015 238.256 193.604 238.218L181.951 237.13C181.716 237.108 181.48 237.137 181.257 237.214C181.034 237.292 180.83 237.416 180.659 237.578Z" fill="#18355D"/>
<path d="M213.792 184.897V193.025C213.792 193.217 213.752 193.408 213.676 193.584C213.6 193.761 213.489 193.921 213.349 194.053L207.512 199.558L196.928 198.53C196.622 198.502 196.335 198.372 196.112 198.16C197.861 197.948 199.333 197.135 199.784 196.256C200.478 194.896 200.293 192.524 197.336 192.111C196.764 192.034 196.198 191.918 195.642 191.763V189.04C195.641 188.848 195.68 188.658 195.757 188.481C195.833 188.305 195.945 188.146 196.085 188.015L201.457 182.936C201.603 182.802 201.775 182.7 201.962 182.635C202.149 182.571 202.348 182.545 202.545 182.561L212.476 183.486C212.833 183.51 213.168 183.669 213.413 183.931C213.657 184.194 213.793 184.539 213.792 184.897Z" fill="#18355D"/>
<path d="M215.367 183.826V193.365C215.367 193.592 215.32 193.817 215.23 194.025C215.139 194.234 215.008 194.422 214.842 194.578L208.002 201.035L195.587 199.83C195.177 199.79 194.796 199.599 194.518 199.293C194.241 198.987 194.088 198.589 194.089 198.177V198.138C194.764 198.246 195.451 198.253 196.129 198.16C197.878 197.948 199.349 197.135 199.801 196.256C200.494 194.896 200.309 192.524 197.353 192.111C196.78 192.034 196.214 191.918 195.658 191.763C194.331 191.357 194.249 190.914 194.249 190.914L194.086 191.017V188.705C194.084 188.48 194.129 188.256 194.218 188.049C194.307 187.841 194.438 187.655 194.603 187.501L200.913 181.544C201.085 181.382 201.288 181.258 201.511 181.181C201.734 181.104 201.97 181.074 202.205 181.095L213.858 182.183C214.268 182.222 214.649 182.411 214.928 182.715C215.207 183.018 215.363 183.414 215.367 183.826Z" fill="#18355D"/>
<path d="M215.759 209.522L209.408 215.506C209.242 215.662 209.11 215.85 209.02 216.059C208.93 216.268 208.883 216.494 208.883 216.721V226.271C208.882 226.687 209.037 227.088 209.316 227.396C209.595 227.703 209.979 227.896 210.392 227.936L222.904 229.152L229.8 222.646C229.965 222.489 230.097 222.301 230.188 222.092C230.278 221.883 230.324 221.658 230.325 221.43V211.828C230.325 211.411 230.169 211.009 229.889 210.701C229.608 210.393 229.222 210.202 228.807 210.164L217.073 209.076C216.835 209.051 216.594 209.079 216.367 209.156C216.141 209.233 215.933 209.357 215.759 209.522Z" fill="#18355D"/>
<path d="M215.092 207.857L207.636 214.894C207.442 215.077 207.288 215.298 207.182 215.543C207.076 215.788 207.022 216.052 207.021 216.319V227.525C207.022 228.013 207.204 228.483 207.531 228.844C207.859 229.205 208.31 229.431 208.795 229.478L223.467 230.904L231.556 223.266C231.751 223.083 231.906 222.862 232.011 222.617C232.117 222.372 232.171 222.108 232.171 221.84V210.563C232.167 210.076 231.982 209.607 231.652 209.248C231.321 208.89 230.869 208.667 230.384 208.624L216.612 207.343C216.337 207.317 216.059 207.349 215.797 207.438C215.535 207.527 215.295 207.669 215.092 207.857Z" fill="#18355D"/>
<path d="M232.976 215.353L226.366 221.593C226.194 221.756 226.057 221.952 225.964 222.169C225.87 222.387 225.822 222.621 225.822 222.858V232.794C225.822 233.226 225.983 233.643 226.274 233.964C226.565 234.284 226.964 234.485 227.394 234.526L240.404 235.791L247.577 229.024C247.749 228.861 247.886 228.665 247.979 228.448C248.073 228.23 248.121 227.996 248.121 227.759V217.752C248.12 217.319 247.958 216.901 247.665 216.581C247.373 216.26 246.972 216.06 246.541 216.02L234.33 214.88C234.084 214.857 233.836 214.888 233.602 214.97C233.368 215.051 233.155 215.182 232.976 215.353Z" fill="#18355D"/>
<path d="M232.288 213.621L224.531 220.943C224.329 221.134 224.168 221.364 224.058 221.62C223.948 221.875 223.891 222.15 223.892 222.428V234.091C223.891 234.598 224.08 235.087 224.42 235.462C224.761 235.837 225.229 236.072 225.733 236.12L240.992 237.606L249.424 229.658C249.626 229.467 249.787 229.237 249.897 228.981C250.007 228.726 250.064 228.451 250.063 228.173V216.436C250.063 215.927 249.873 215.437 249.53 215.062C249.188 214.686 248.717 214.451 248.211 214.404L233.879 213.071C233.59 213.045 233.299 213.08 233.025 213.175C232.75 213.269 232.499 213.421 232.288 213.621Z" fill="#18355D"/>
<path d="M213.887 222.564L204.62 231.312C204.378 231.539 204.185 231.814 204.054 232.119C203.922 232.424 203.855 232.753 203.855 233.085V247.017C203.858 247.622 204.084 248.204 204.49 248.652C204.896 249.1 205.454 249.382 206.056 249.443L224.296 251.216L234.36 241.721C234.601 241.493 234.793 241.218 234.925 240.913C235.056 240.608 235.124 240.28 235.125 239.948V225.929C235.122 225.322 234.894 224.737 234.485 224.289C234.076 223.841 233.515 223.56 232.911 223.502L215.791 221.908C215.445 221.876 215.097 221.918 214.768 222.031C214.44 222.144 214.14 222.326 213.887 222.564Z" fill="#18355D"/>
<path d="M212.916 220.135L202.036 230.4C201.753 230.668 201.527 230.99 201.373 231.348C201.218 231.706 201.139 232.092 201.139 232.481V248.831C201.138 249.542 201.402 250.228 201.88 250.754C202.358 251.281 203.015 251.611 203.723 251.679L225.126 253.76L236.931 242.608C237.215 242.34 237.44 242.018 237.595 241.66C237.749 241.302 237.829 240.917 237.829 240.527V224.085C237.829 223.372 237.563 222.685 237.083 222.158C236.603 221.631 235.944 221.302 235.234 221.237L215.152 219.368C214.746 219.329 214.337 219.377 213.951 219.51C213.566 219.642 213.213 219.855 212.916 220.135Z" fill="#18355D"/>
<path d="M148.512 102.677C156.128 96.9 167.663 91.7129 183.097 94.403" stroke="#CCDDE2" stroke-width="4.59" stroke-miterlimit="10"/>
<path d="M152.38 107.192C159.158 102.484 168.39 98.8693 180.429 99.6445" stroke="white" stroke-width="4.59" stroke-linecap="round" stroke-linejoin="round"/>
<path d="M205.577 104.755C213.019 111.629 216.93 121.317 218.361 131.191C219.309 137.758 219.317 144.426 218.386 150.995C218.315 151.381 218.266 151.771 218.241 152.162C218.723 151.945 219.222 151.768 219.732 151.632C225.885 150.052 232.429 149.796 238.383 152.228C243.336 154.248 247.552 157.793 250.773 162.02C255.078 167.706 257.682 174.497 258.283 181.604C259.371 195.204 252.867 206.171 243.113 213.906L243.002 213.996" stroke="#CCDDE2" stroke-width="4.59" stroke-linejoin="round"/>
<path d="M204.389 111.3C214.034 122.634 214.646 137.874 213.794 152.399C213.775 152.717 213.656 153.56 213.544 154.417" stroke="white" stroke-width="4.59" stroke-linecap="round" stroke-linejoin="round"/>
<path d="M217.473 156.057C224.588 155.35 232.487 155.141 238.539 158.677C244.523 162.175 248.978 167.829 251.543 174.232C254.456 181.5 254.924 190.008 251.668 197.249C248.016 205.355 241.966 211.156 235.12 216.588C235.101 216.602 235.936 216.787 236.806 216.983" stroke="white" stroke-width="4.59" stroke-linecap="round" stroke-linejoin="round"/>
<path d="M93.6493 239.61C92.1259 240.159 90.5306 240.482 88.9138 240.57C65.9488 241.982 44.3983 229.418 29.2207 215.353C28.5271 214.711 27.8607 214.053 27.2188 213.387" stroke="black" stroke-width="4.59" stroke-miterlimit="10"/>
<path d="M115.741 230.588C117.069 232.617 120.183 231.807 120.183 231.807C137.553 228.243 132.486 205.246 117.792 194.573" stroke="black" stroke-width="4.59" stroke-miterlimit="10"/>
<path d="M135.972 175.712C129.676 181.75 124.053 185.414 118.785 187.585L120.961 172.372C97.2287 158.179 90.9129 174.004 90.9129 174.004C90.0044 175.489 89.5828 193.109 89.4631 199.123C89.4332 199.123 88.6798 199.123 88.6471 199.123C73.6871 198.323 60.166 184.639 60.166 184.639C67.7249 165.659 94.71 142.207 94.71 142.207C113.44 129.072 127.736 133.489 127.736 133.489C123.333 133.808 129.333 146.001 129.333 146.001C138.176 153.68 141.44 142.213 141.44 142.213C149.997 162.694 135.972 175.712 135.972 175.712Z" fill="#353642"/>
<path d="M151.447 166.853C151.447 166.853 149.894 186.807 136.394 186.146C136.394 186.146 131.333 180.67 131.46 176.506C131.588 172.342 142.884 146.336 142.884 146.336C142.884 146.336 150.207 164.598 151.447 166.853Z" fill="#353642"/>
<path d="M28.4595 214.562V214.63L29.6128 215.718C29.6128 215.718 29.134 216.161 28.4595 216.806C27.5809 217.622 26.3705 218.748 25.4675 219.607C23.9035 221.092 15.9067 229.087 13.7715 221.816C14.1931 219.273 15.8088 214.042 22.0022 207.688C30.8096 198.636 29.5828 199.76 31.7942 199.909C32.8142 199.974 34.1361 200.573 35.2676 201.201C32.4062 202.392 28.0678 205.697 28.4595 214.562Z" fill="#18355D"/>
<path d="M37.6585 202.705C37.6585 202.705 29.0008 203.521 28.4595 214.562V214.63C28.4241 215.31 28.4241 216.025 28.4595 216.787C27.5809 217.603 26.3705 218.729 25.4675 219.588C23.9035 221.073 15.9067 229.068 13.7715 221.797C14.1931 219.254 15.8088 214.023 22.0022 207.669C30.8096 198.617 29.5828 199.74 31.7942 199.89C32.8142 199.955 34.1361 200.554 35.2676 201.182C36.0903 201.648 36.8883 202.157 37.6585 202.705Z" fill="#18355D"/>
<path d="M118.728 188.045C128.52 181.905 144.23 174.045 144.192 156.397C144.192 152.206 143.76 148.781 142.832 145.539L142.742 145.229C142.418 144.179 141.982 143.168 141.44 142.213" stroke="black" stroke-width="4.59" stroke-miterlimit="10"/>
<path d="M71.4952 218.593C69.2294 216.664 67.184 214.804 65.824 213.52L65.8022 213.498C64.7306 212.5 64.0886 211.866 64.0886 211.866C63.1774 210.623 62.3669 209.418 61.6406 208.26C61.6264 208.242 61.6161 208.222 61.6107 208.2C56.3285 199.659 56.0102 192.853 60.9307 182.841C60.9593 182.769 60.992 182.698 61.0286 182.629C61.5726 181.541 62.1738 180.404 62.8374 179.229C72.6866 161.821 101.584 129.385 126.513 133.487" stroke="black" stroke-width="4.59" stroke-miterlimit="10"/>
<path d="M29.2294 215.345C24.0614 221.759 20.4357 224.036 17.9849 224.539C15.5342 225.042 13.2766 222.869 13.6329 220.355C14.7699 212.413 24.0125 202.912 28.5603 198.663C29.2568 198.008 30.1508 197.602 31.1025 197.509C32.0542 197.415 33.0101 197.639 33.8208 198.147L36.0974 199.564C42.824 203.758 49.8443 207.849 56.9027 211.619C63.3736 215.079 70.4837 219.526 78.1432 218.519" stroke="black" stroke-width="4.59" stroke-miterlimit="10"/>
<path d="M121.926 155.78C122.014 158.937 121.933 162.097 121.684 165.245C120.822 176.639 118.494 187.879 117.212 199.226C116.396 206.489 115.896 213.784 115.798 221.092C115.716 227.229 115.7 231.91 115.882 238.046C115.999 241.996 118.232 244.517 121.632 246.206C124.497 247.626 126.493 247.338 128.277 250.202C131.947 256.104 124.741 256.523 121.809 255.745C113.584 253.569 101.483 252.375 96.7853 244.196C93.0399 237.668 92.5639 233.4 91.6173 226.105C90.5837 218.201 89.7133 210.264 89.5283 202.289C89.2427 189.448 90.2383 168.792 94.8405 156.647" stroke="black" stroke-width="4.59" stroke-miterlimit="10"/>
<path d="M224.672 216.683L224.628 216.727L223.608 216.623L223.646 216.588L224.672 216.683Z" fill="#18355D"/>
<path d="M208.49 215.293L216.871 216.123L208.49 215.361V215.293Z" fill="#18355D"/>
<path d="M224.672 216.683L224.628 216.727L223.608 216.623L223.497 216.727L223.01 216.683L223.121 216.58L223.157 216.542L223.646 216.588L224.672 216.683Z" fill="#18355D"/>
<path d="M224.672 216.683L224.629 216.727L223.609 216.623L223.122 216.58L223.157 216.542L223.647 216.588L224.672 216.683Z" fill="#18355D"/>
<path d="M203.273 231.235L215.663 232.446L203.273 231.333V231.235Z" fill="#18355D"/>
<path d="M227.204 233.27L227.139 233.335L225.629 233.183L225.466 233.335L224.745 233.27L224.908 233.118L224.963 233.063L225.686 233.129L227.204 233.27Z" fill="#18355D"/>
<path d="M227.204 233.27L227.139 233.335L225.629 233.183L224.908 233.118L224.963 233.063L225.686 233.129L227.204 233.27Z" fill="#18355D"/>
<path d="M142.737 145.226C142.737 145.226 150.74 171.92 160.099 178.138C168.917 183.994 180.757 181.454 190.057 178.255C192.625 177.371 195.206 176.509 197.945 176.55C201.799 176.604 209.655 177.458 210.675 181.943" stroke="black" stroke-width="4.59" stroke-miterlimit="10"/>
<path d="M132.219 179.098C146.028 207.063 170.514 201.484 183.118 196.43C184.26 195.966 185.498 195.788 186.725 195.913C187.943 196.047 188.901 196.564 190.035 197.001C191.964 197.763 194.142 198.31 196.234 198.168C198.326 198.027 200.874 196.433 199.993 193.966C199.291 191.999 197.104 192.141 195.429 191.763C193.753 191.385 193.351 188.942 194.917 188.151C194.937 188.145 194.954 188.134 194.969 188.121" stroke="black" stroke-width="4.59" stroke-miterlimit="10"/>
<path d="M195.111 238.362L187.745 245.322L173.832 244.028L181.206 237.07L195.111 238.362Z" stroke="black" stroke-width="4.59" stroke-linecap="square" stroke-linejoin="round"/>
<path d="M187.745 245.322V257.083L173.832 255.732V244.027L187.745 245.322Z" stroke="black" stroke-width="4.59" stroke-linecap="square" stroke-linejoin="round"/>
<path d="M195.111 238.362V250.131L187.745 257.084V245.322L195.111 238.362Z" stroke="black" stroke-width="4.59" stroke-linecap="square" stroke-linejoin="round"/>
<path d="M237.943 221.59L225.338 233.501L201.538 231.284L207.109 226.024V228.991L223.497 230.588L232.171 222.395V221.049L237.943 221.59Z" stroke="black" stroke-width="4.59" stroke-linecap="square" stroke-linejoin="round"/>
<path d="M225.338 233.498V253.618L201.538 251.306V231.287L225.338 233.498Z" stroke="black" stroke-width="4.59" stroke-linecap="square" stroke-linejoin="round"/>
<path d="M237.941 221.593V241.726L225.339 253.618V233.498L237.941 221.593Z" stroke="black" stroke-width="4.59" stroke-linecap="square" stroke-linejoin="round"/>
<path d="M232.171 208.534L223.497 216.727L207.109 215.206L215.792 207.011L232.171 208.534Z" stroke="black" stroke-width="4.59" stroke-linecap="square" stroke-linejoin="round"/>
<path d="M223.497 219.735V216.727L207.109 215.206V227.854" stroke="black" stroke-width="4.59" stroke-linecap="square" stroke-linejoin="round"/>
<path d="M232.171 208.534V222.395L223.497 230.588V216.727L232.171 208.534Z" stroke="black" stroke-width="4.59" stroke-linecap="square" stroke-linejoin="round"/>
<path d="M232.413 213.414L232.786 213.063L250.096 214.673L240.927 223.342L238.356 223.1" stroke="black" stroke-width="4.59" stroke-linecap="square" stroke-linejoin="round"/>
<path d="M238.204 223.083L240.927 223.342V237.978L237.943 237.69" stroke="black" stroke-width="4.59" stroke-linecap="square" stroke-linejoin="round"/>
<path d="M250.093 214.673V229.323L240.924 237.978V223.337L250.093 214.673Z" stroke="black" stroke-width="4.59" stroke-linecap="square" stroke-linejoin="round"/>
<path d="M215.365 182.376L207.999 189.337L194.086 188.042L201.46 181.081L215.365 182.376Z" stroke="black" stroke-width="4.59" stroke-linecap="square" stroke-linejoin="round"/>
<path d="M194.083 198.1V199.749L207.996 201.1V189.339L194.97 188.126L194.083 188.044V189.064V190.123" stroke="black" stroke-width="4.59" stroke-linecap="square" stroke-linejoin="round"/>
<path d="M215.364 182.376V194.145L207.998 201.098V189.336L215.364 182.376Z" stroke="black" stroke-width="4.59" stroke-linecap="square" stroke-linejoin="round"/>
<path d="M144.192 131.944C145.457 133.639 147.677 133.976 149.148 132.809" stroke="black" stroke-width="4.59" stroke-miterlimit="10"/>
<path d="M164.302 115.056C163.757 116.412 162.799 117.562 161.564 118.343C160.328 119.124 158.879 119.497 157.42 119.408C157.388 118.812 157.212 118.232 156.906 117.719C155.598 115.586 154.368 119.027 149.63 115.701C143.067 111.077 140.061 112.709 140.061 112.709C139.789 112.85 139.574 114.488 139.501 114.773C139.052 116.432 138.606 118.083 138.141 119.74C137.869 120.752 137.597 121.755 137.325 122.759C137.255 122.573 137.174 122.391 137.083 122.215C136.783 119.824 136.046 116.946 133.37 117.73C132.827 117.898 132.332 118.193 131.926 118.589C129.943 120.51 130.878 122.797 132.369 124.611C132.728 125.159 133.146 125.666 133.615 126.124C133.242 126.668 131.724 128.844 131.724 128.844C131.566 129.061 128.207 123.85 127.979 123.3C127.714 122.005 127.669 120.675 127.846 119.365C128.599 113.979 131.738 108.057 136.55 105.639C137.746 105.041 137.512 104.252 137.741 103.224C137.748 103.164 137.775 103.108 137.817 103.065C137.859 103.022 137.915 102.994 137.975 102.986C138.034 102.978 138.095 102.99 138.148 103.02C138.2 103.051 138.24 103.097 138.263 103.153C139.406 104.9 142.8 105.264 142.8 105.264C154.455 104.092 158.076 109.923 160.333 111.207C161.244 111.711 162.299 111.89 163.325 111.716C163.332 112.048 163.43 112.372 163.608 112.652C163.787 112.932 164.039 113.158 164.337 113.304L164.196 113.848C164.093 114.251 164.13 114.677 164.302 115.056Z" fill="#18355D"/>
<path d="M157.412 119.408C158.868 119.497 160.315 119.126 161.549 118.347C162.783 117.569 163.741 116.422 164.288 115.07C164.502 114.553 164.667 114.017 164.783 113.47L164.696 113.446C164.571 113.415 164.45 113.369 164.337 113.307C164.039 113.16 163.787 112.935 163.609 112.655C163.43 112.374 163.332 112.051 163.325 111.719C163.316 111.535 163.337 111.352 163.385 111.175L164.09 108.569C164.09 108.569 161.731 109.82 159.52 108.542C157.309 107.263 154.153 101.448 141.987 102.598C141.987 102.598 139.313 102.351 138.179 100.572C138.155 100.517 138.114 100.472 138.062 100.443C138.01 100.413 137.95 100.402 137.891 100.411C137.832 100.419 137.777 100.446 137.736 100.489C137.694 100.531 137.667 100.586 137.659 100.645C137.431 101.674 136.93 102.348 135.736 102.947C130.914 105.367 127.772 111.289 127.032 116.672C126.754 118.919 127.079 121.201 127.973 123.281C128.202 123.825 131.561 129.042 131.719 128.825C131.719 128.825 133.237 126.649 133.609 126.105L133.699 125.985L133.582 125.879C133.147 125.478 132.74 125.048 132.363 124.592C130.873 122.778 129.937 120.491 131.92 118.57C132.327 118.174 132.822 117.879 133.364 117.711C136.041 116.927 136.778 119.805 137.077 122.196C137.135 122.653 137.143 123.114 137.102 123.572L137.319 122.756C137.591 121.753 137.863 120.749 138.135 119.737C138.59 118.081 139.036 116.43 139.495 114.77C139.569 114.485 139.795 112.847 140.056 112.706C140.056 112.706 143.061 111.09 149.625 115.698C154.363 119.024 155.592 115.584 156.901 117.716C157.206 118.229 157.383 118.809 157.415 119.405C157.421 119.597 157.416 119.788 157.398 119.979C157.402 120.004 157.402 120.03 157.398 120.055C157.36 120.472 157.306 120.888 157.251 121.293C156.707 125.204 155.647 129.216 153.56 132.608C151.031 136.718 145.439 140.303 140.624 137.472C139.125 136.588 137.842 135.331 136.694 134.031" stroke="black" stroke-width="4.59" stroke-miterlimit="10"/>
<path d="M153.873 127.771C154.174 127.186 154.025 126.51 153.541 126.261C153.057 126.013 152.422 126.286 152.121 126.872C151.821 127.457 151.969 128.133 152.453 128.381C152.937 128.63 153.573 128.356 153.873 127.771Z" fill="black"/>
<path d="M146.284 126.365C146.585 125.779 146.436 125.104 145.952 124.855C145.469 124.607 144.833 124.88 144.532 125.466C144.232 126.051 144.38 126.727 144.864 126.975C145.348 127.223 145.984 126.95 146.284 126.365Z" fill="black"/>
<path d="M147.576 128.74C147.576 128.74 149.896 130.568 150.277 129.097C150.397 128.642 151.705 124.225 151.705 124.225C151.705 124.225 154.088 122.365 156.987 124.448" stroke="black" stroke-width="4.59" stroke-miterlimit="10"/>
<path d="M149.107 122.533C149.107 122.533 145.321 119.862 142.166 122.403" stroke="black" stroke-width="4.59" stroke-miterlimit="10"/>
<path d="M130.737 127.587L128.773 133.919L126.529 133.498C125.117 135.853 126.937 143.466 129.344 146.01C136.212 153.288 140.436 144.886 140.436 144.886L141.44 142.204L142.895 138.326" stroke="black" stroke-width="4.59" stroke-miterlimit="10"/>
<path d="M190.224 108.185C190.735 108.645 191.145 109.207 191.426 109.835C191.707 110.462 191.854 111.142 191.856 111.83V112.608C191.858 113.158 191.975 113.701 192.2 114.203C192.424 114.705 192.751 115.155 193.16 115.523C193.568 115.891 194.049 116.169 194.572 116.34C195.094 116.512 195.647 116.572 196.194 116.517C198.226 116.31 199.711 114.463 199.711 112.409V111.827C199.709 111.145 199.851 110.469 200.126 109.844C200.401 109.219 200.803 108.659 201.308 108.199" stroke="#CCDDE2" stroke-width="4.59" stroke-linejoin="round"/>
<path d="M190.224 108.185C190.735 108.645 191.145 109.207 191.426 109.835C191.707 110.462 191.854 111.142 191.856 111.83V112.608C191.858 113.158 191.975 113.701 192.2 114.203C192.424 114.705 192.751 115.155 193.16 115.523C193.568 115.891 194.049 116.169 194.572 116.34C195.094 116.512 195.647 116.572 196.194 116.517C198.226 116.31 199.711 114.463 199.711 112.409V111.827C199.709 111.145 199.851 110.469 200.126 109.844C200.401 109.219 200.803 108.659 201.308 108.199" stroke="#CCDDE2" stroke-width="4.59" stroke-linejoin="round"/>
<path d="M190.223 108.185C189.963 107.958 189.68 107.758 189.38 107.587C187.08 106.266 185.244 104.267 184.126 101.862C183.008 99.4567 182.661 96.7646 183.133 94.1547C183.606 91.5448 184.874 89.1451 186.764 87.2848C188.655 85.4245 191.075 84.1947 193.692 83.7643C196.309 83.3339 198.995 83.7239 201.382 84.8808C203.768 86.0377 205.739 87.9048 207.022 90.2259C208.305 92.5471 208.839 95.2084 208.55 97.8449C208.26 100.481 207.162 102.964 205.406 104.951C205.379 104.978 205.354 105.007 205.333 105.038C204.405 106.058 203.323 106.925 202.126 107.609C201.831 107.773 201.557 107.972 201.31 108.202" stroke="#CCDDE2" stroke-width="4.59" stroke-linejoin="round"/>
<path d="M194.407 107.348C193.577 105.841 192.179 103.844 191.194 102.422C190.123 100.913 189.249 99.2741 188.591 97.5447C188.504 97.358 188.47 97.151 188.493 96.9463C188.507 96.8448 188.559 96.7524 188.639 96.6886C188.719 96.6247 188.821 96.5943 188.923 96.6036C189.105 96.6389 189.195 96.8293 189.29 96.9953C189.681 97.7723 190.239 98.4539 190.922 98.9917C191.306 99.2882 191.85 99.5357 192.25 99.2637C192.371 99.1575 192.468 99.0266 192.536 98.8798C192.603 98.7331 192.638 98.5737 192.639 98.4124C192.759 97.2669 192.459 96.1168 191.795 95.1756C191.523 94.8057 191.05 94.4466 190.667 94.6887C190.283 94.9308 190.395 95.5292 190.623 95.9317C191.029 96.6779 191.583 97.3336 192.251 97.8588C192.919 98.3839 193.686 98.7676 194.507 98.9863C194.91 99.1211 195.345 99.1259 195.75 98.9999C195.975 98.8974 196.172 98.7414 196.323 98.5457C196.474 98.3499 196.576 98.1202 196.618 97.8765C196.699 97.387 196.657 96.8851 196.496 96.4159C196.273 95.6842 195.84 94.9362 195.114 94.6914C194.886 94.6031 194.634 94.6031 194.407 94.6914C194.256 94.7723 194.131 94.894 194.045 95.0426C193.96 95.1912 193.919 95.3608 193.925 95.5319C193.943 95.8744 194.048 96.2067 194.23 96.4975C194.651 97.2331 195.245 97.8554 195.96 98.3112C196.675 98.7669 197.49 99.0425 198.334 99.1141C198.898 99.1945 199.472 99.0574 199.939 98.7306C200.134 98.55 200.291 98.3324 200.401 98.0905C200.51 97.8486 200.571 97.5872 200.578 97.3217C200.64 96.5255 200.415 95.7335 199.945 95.0885C199.849 94.9607 199.705 94.8165 199.55 94.8682C199.395 94.9199 199.352 95.094 199.333 95.249C199.262 95.8583 199.313 96.4755 199.483 97.0648C199.653 97.6541 199.938 98.2037 200.323 98.6817C200.747 99.2012 201.392 99.6527 202.044 99.4977C202.291 99.4222 202.513 99.2812 202.686 99.0895C202.859 98.8979 202.976 98.6629 203.026 98.4097C203.12 97.9018 203.07 97.3776 202.879 96.8973C202.645 97.0409 202.445 97.2334 202.293 97.4616C202.14 97.6898 202.039 97.9482 201.995 98.2193C201.876 98.7633 201.884 99.3073 201.791 99.8513C201.28 102.903 197.918 104.266 197.265 107.195" stroke="#CCDDE2" stroke-width="4.59" stroke-linejoin="round"/>
<path d="M195.767 78.9943L195.639 71.264" stroke="#CCDDE2" stroke-width="4.59" stroke-linejoin="round"/>
<path d="M181.021 86.1859L175.671 80.6072" stroke="#CCDDE2" stroke-width="4.59" stroke-linejoin="round"/>
<path d="M210.563 86.5341L216.033 81.0696" stroke="#CCDDE2" stroke-width="4.59" stroke-linejoin="round"/>
<path d="M213.484 159.566C215.031 159.566 216.286 158.312 216.286 156.765C216.286 155.217 215.031 153.963 213.484 153.963C211.937 153.963 210.683 155.217 210.683 156.765C210.683 158.312 211.937 159.566 213.484 159.566Z" fill="#18355D"/>
</svg>
