<svg width="283" height="283" viewBox="0 0 283 283" fill="none" xmlns="http://www.w3.org/2000/svg">
<path d="M193.66 62.1411C199.037 59.1498 207.417 65.2541 211.121 68.6813C215.451 72.6659 218.943 77.7373 221.629 82.9586C233.824 106.663 240.233 134.864 230.212 160.549C226.838 169.244 221.572 177.081 214.797 183.492C210.988 187.077 203.149 190.459 202.006 195.944C201.761 197.305 201.858 198.707 202.289 200.022C203.803 205.048 208.373 208.531 211.866 212.191C228.633 229.796 216.51 257.089 198.582 268.85" stroke="#CCDDE2" stroke-width="4.72" stroke-miterlimit="10"/>
<path d="M62.167 154.569C67.4025 149.008 74.0926 145.25 80.8195 141.791C88.1039 138.047 95.2723 134.278 101.895 129.416C105.926 126.462 109.74 123.223 113.308 119.723" stroke="#CCDDE2" stroke-width="4.72" stroke-miterlimit="10"/>
<path d="M53.6685 225.005C46.9784 207.722 45.2804 187.912 52.2592 170.649" stroke="#CCDDE2" stroke-width="4.72" stroke-miterlimit="10"/>
<path d="M141.333 46.3441V27.8189C141.333 26.5429 140.826 25.3192 139.924 24.417C139.022 23.5148 137.798 23.0079 136.522 23.0079H75.1762C73.9003 23.0079 72.6766 23.5148 71.7743 24.417C70.8721 25.3192 70.3652 26.5429 70.3652 27.8189V114.932C70.3705 116.204 70.8797 117.423 71.7813 118.321C72.683 119.219 73.9037 119.723 75.1762 119.723H136.531C137.126 119.728 137.717 119.614 138.268 119.389" stroke="black" stroke-width="4.72" stroke-linecap="round" stroke-linejoin="round"/>
<path d="M134.575 25.9511H77.1347C74.5917 25.9511 72.5303 28.0126 72.5303 30.5555V112.193C72.5303 114.735 74.5917 116.797 77.1347 116.797H134.575C137.118 116.797 139.18 114.735 139.18 112.193V30.5555C139.18 28.0126 137.118 25.9511 134.575 25.9511Z" fill="#18355D"/>
<path d="M133.68 32.9808H78.7558C77.4835 32.9808 76.4521 34.0122 76.4521 35.2844V47.6855C76.4521 48.9578 77.4835 49.9891 78.7558 49.9891H133.68C134.953 49.9891 135.984 48.9578 135.984 47.6855V35.2844C135.984 34.0122 134.953 32.9808 133.68 32.9808Z" fill="#18355D"/>
<path d="M105.853 40.1464C106.825 40.1464 107.613 39.3583 107.613 38.3861C107.613 37.414 106.825 36.6259 105.853 36.6259C104.881 36.6259 104.093 37.414 104.093 38.3861C104.093 39.3583 104.881 40.1464 105.853 40.1464Z" fill="#D7E8F0"/>
<path d="M100.938 46.3441C100.938 45.0404 101.455 43.79 102.377 42.8682C103.299 41.9463 104.549 41.4284 105.853 41.4284C107.157 41.4284 108.407 41.9463 109.329 42.8682C110.251 43.79 110.769 45.0404 110.769 46.3441H100.938Z" fill="#D7E8F0"/>
<path d="M106.213 68.2172C104.337 68.216 102.503 68.7713 100.944 69.8126C99.3836 70.8539 98.1676 72.3344 97.4493 74.067C96.731 75.7996 96.5428 77.7063 96.9085 79.5458C97.2741 81.3854 98.1771 83.0752 99.5033 84.4014C100.83 85.7276 102.519 86.6306 104.359 86.9963C106.198 87.3619 108.105 87.1737 109.838 86.4554C111.57 85.7372 113.051 84.5211 114.092 82.9612C115.133 81.4013 115.689 79.5675 115.688 77.692C115.687 75.1793 114.688 72.7698 112.912 70.9931C111.135 69.2164 108.725 68.2179 106.213 68.2172ZM106.213 84.8802C105.846 84.8802 105.494 84.7344 105.234 84.4749C104.975 84.2153 104.829 83.8634 104.829 83.4963C104.829 83.1293 104.975 82.7773 105.234 82.5178C105.494 82.2583 105.846 82.1125 106.213 82.1125C106.58 82.1125 106.932 82.2583 107.191 82.5178C107.451 82.7773 107.597 83.1293 107.597 83.4963C107.597 83.8634 107.451 84.2153 107.191 84.4749C106.932 84.7344 106.58 84.8802 106.213 84.8802ZM107.967 74.2252C107.67 76.2798 107.418 78.4448 106.816 80.4512C106.668 80.9267 105.766 80.9267 105.618 80.4512C105.185 78.9487 104.853 77.419 104.622 75.8723C104.438 74.7403 103.773 72.9291 104.41 71.8311C104.959 70.8575 106.518 70.7359 107.418 71.2453C108.533 71.882 108.106 73.2036 107.967 74.2252Z" fill="#D7E8F0"/>
<path d="M106.213 84.8802C106.977 84.8802 107.597 84.2606 107.597 83.4963C107.597 82.732 106.977 82.1124 106.213 82.1124C105.449 82.1124 104.829 82.732 104.829 83.4963C104.829 84.2606 105.449 84.8802 106.213 84.8802Z" fill="white"/>
<path d="M107.967 74.2252C107.67 76.2798 107.418 78.4448 106.815 80.4512C106.668 80.9267 105.765 80.9267 105.618 80.4512C105.185 78.9487 104.852 77.419 104.622 75.8723C104.438 74.7403 103.773 72.9291 104.41 71.8311C104.959 70.8575 106.518 70.7358 107.418 71.2452C108.533 71.882 108.106 73.2036 107.967 74.2252Z" fill="white"/>
<path d="M82.4072 57.5848H128.695" stroke="white" stroke-width="4.72" stroke-miterlimit="10"/>
<path d="M82.4072 62.1383H128.695" stroke="white" stroke-width="4.72" stroke-miterlimit="10"/>
<path d="M82.4072 91.4798H128.695" stroke="white" stroke-width="4.72" stroke-miterlimit="10"/>
<path d="M139.964 103.221C140.139 103.357 140.445 46.1403 140.445 46.1403L123.032 39.4106C123.032 39.4106 110.087 71.1377 110.871 71.4575L114.366 72.8725C114.366 72.8725 115.229 72.1905 117.23 77.1175C119.231 82.0445 133.653 98.368 139.964 103.221Z" fill="white"/>
<path d="M93.1582 95.7898H117.943" stroke="white" stroke-width="4.72" stroke-miterlimit="10"/>
<path d="M209.64 128.966C209.414 131.434 206.369 159.739 209.321 165.266C210.39 167.267 199.772 165.351 199.133 165.204C189.511 162.94 180.5 158.766 172.066 153.689C163.633 148.612 156.182 141.93 147.389 137.428C145.764 136.596 142.168 134.773 143.232 132.387C145.043 128.324 147.267 122.714 147.443 117.753L147.389 111.244C147.389 111.244 146.104 107.158 150.295 110.738C154.487 114.318 173.665 123.756 186.081 112.821C198.496 101.886 199.232 93.2372 199.232 93.2372C199.232 93.2372 191.282 73.7838 168.651 85.6839L176.645 65.0249C176.645 65.0249 175.55 63.6354 179.014 63.8929C182.478 64.1504 188.902 62.4383 189.697 56.0906C189.697 56.0906 189.76 54.019 193.424 57.9358C197.089 61.8525 214.409 77.1486 209.64 128.966Z" fill="#2E2E2E"/>
<path d="M165.147 55.6859C167.089 54.2618 169.264 53.1864 171.574 52.5078" stroke="black" stroke-width="4.72" stroke-miterlimit="10"/>
<path d="M156.544 152.274L140.979 208.546L126.829 259.718L117.819 260.567C115.753 260.757 113.832 261.712 112.434 263.244C111.035 264.776 110.259 266.775 110.257 268.85H138.124L158.307 234.064L173.321 208.183L196.793 167.714C197.472 166.534 198.131 165.354 198.774 164.149C198.784 164.135 198.79 164.118 198.791 164.1" stroke="black" stroke-width="4.72" stroke-miterlimit="10"/>
<path d="M209.064 133.293C209.276 131.918 209.463 130.542 209.63 129.158C209.63 129.093 209.63 129.037 209.647 128.972C210.599 120.591 210.802 112.142 210.252 103.725C210.256 103.701 210.256 103.676 210.252 103.652C209.63 94.4909 207.949 84.8689 204.592 75.4874C203.618 72.7816 202.413 70.1646 200.99 67.6653C200.885 67.4587 200.766 67.2549 200.636 67.0512C200.189 66.2701 199.708 65.5088 199.221 64.7561C198.562 63.7627 197.863 62.7977 197.13 61.878C196.037 60.4814 194.825 59.1822 193.507 57.9952C193.499 57.9922 193.491 57.9874 193.485 57.981C193.478 57.9747 193.474 57.9669 193.471 57.9584C192.492 57.0917 191.451 56.2972 190.358 55.5812C190.154 55.4425 189.95 55.3124 189.743 55.1822C189.711 55.1576 189.677 55.1358 189.642 55.1171" stroke="black" stroke-width="4.72" stroke-miterlimit="10"/>
<path d="M173.321 208.183L195.208 268.85H163.625C163.625 266.879 164.341 264.975 165.639 263.492C166.937 262.009 168.73 261.048 170.683 260.787L177.557 259.868C177.557 259.868 168.315 247.699 158.313 234.061" stroke="black" stroke-width="4.72" stroke-miterlimit="10"/>
<path d="M177.203 63.5901L167.717 88.0866C167.431 88.8261 167 89.5012 166.45 90.0727C165.9 90.6442 165.242 91.1006 164.514 91.4153C163.786 91.73 163.003 91.8968 162.21 91.9059C161.417 91.915 160.63 91.7663 159.895 91.4684L137.425 82.3728C137.414 82.3422 137.404 82.311 137.396 82.2794C137.113 81.1474 134.21 70.2972 130.689 70.2972C127.987 70.2972 129.274 75.6487 130.406 78.6768C130.537 79.0023 130.658 79.3079 130.769 79.5683L130.593 79.4947L112.999 72.3235L124.095 43.0726L145.759 51.4409L177.203 63.5901Z" fill="#D7E8F0"/>
<path d="M130.763 79.5683C129.583 76.8656 127.704 70.2972 130.692 70.2972C134.213 70.2972 137.113 81.1559 137.399 82.2794L137.428 82.3728L159.895 91.4713C160.631 91.7688 161.419 91.9169 162.213 91.9069C163.007 91.8968 163.791 91.7289 164.519 91.4128C165.247 91.0967 165.905 90.6388 166.455 90.0658C167.004 89.4928 167.434 88.8161 167.72 88.0753L178.29 60.7658L144.692 47.7789L123.031 39.4106L110.862 71.4575L130.763 79.5683Z" stroke="black" stroke-width="4.72" stroke-miterlimit="10"/>
<path d="M200.406 78.8806C201.08 90.6251 198.456 105.65 183.483 114.493C161.332 127.591 132.016 97.918 121.163 83.519C119.37 81.1541 117.855 78.5901 116.649 75.878C116.284 75.0887 115.977 74.2733 115.732 73.4385" stroke="black" stroke-width="4.72" stroke-miterlimit="10"/>
<path d="M147.194 108.709C147.194 108.709 148.892 121.079 143.657 131.595L143.679 131.567C143.679 131.567 143.679 131.587 143.662 131.595C135.625 146.67 124.118 170.72 130.537 188.195C132.719 194.138 136.48 201.213 140.977 208.548" stroke="black" stroke-width="4.72" stroke-miterlimit="10"/>
<path d="M186.166 37.0249L186.183 37.1041C186.319 38.761 185.791 40.4041 184.716 41.672C183.641 42.9399 182.106 43.7287 180.449 43.865C179.389 43.957 178.322 43.7707 177.356 43.3245C177.079 43.2071 176.813 43.066 176.561 42.9028C176.457 42.8309 176.373 42.735 176.315 42.6234C176.256 42.5118 176.226 42.3877 176.226 42.2618C176.226 42.1359 176.256 42.0119 176.315 41.9002C176.373 41.7886 176.457 41.6928 176.561 41.6208C177.778 40.7435 178.89 39.521 179.207 38.089C179.302 37.6486 179.31 37.1938 179.229 36.7504C179.143 36.1853 178.91 35.6528 178.553 35.2059C178.197 34.7591 177.729 34.4134 177.197 34.2034C177.031 34.154 176.859 34.1264 176.685 34.1213C176.196 34.0817 175.553 34.144 175.426 34.5062C176.051 32.7501 176.077 30.8365 175.499 29.0641C175.141 27.9675 174.536 26.9675 173.731 26.1407C173.767 26.4611 173.733 26.7855 173.63 27.091C173.527 27.3965 173.358 27.6755 173.134 27.9082C172.911 28.1409 172.639 28.3215 172.338 28.4371C172.037 28.5528 171.715 28.6007 171.393 28.5773C168.9 28.4924 168.43 26.1152 168.43 26.1152C168.43 26.1152 168.43 26.1435 168.43 26.1605C167.343 28.8688 164.185 28.9424 161.921 27.7397C161.118 27.3277 160.413 26.7487 159.852 26.0417C159.21 23.2654 161.499 20.5826 164.14 20.1977C164.196 18.4318 165.484 16.5414 167.222 16.397C167.827 16.3453 168.435 16.4569 168.983 16.7202C169.53 16.9835 169.997 17.3889 170.335 17.8941C170.383 17.9705 170.437 18.0526 170.479 18.1375C171.189 17.1074 172.353 15.9782 173.592 15.8735C174.452 15.8131 175.309 16.0186 176.049 16.4621C176.788 16.9055 177.372 17.5655 177.724 18.3526C177.724 18.2309 178.813 17.7328 178.924 17.6875C179.941 17.3006 181.059 17.2634 182.1 17.5815C183.141 17.8997 184.047 18.5553 184.674 19.4449C184.737 19.6909 184.779 19.9418 184.799 20.1949C184.861 20.9518 184.745 21.7127 184.459 22.4164C184.861 22.5311 185.237 22.7234 185.566 22.9824C186.277 23.5029 186.754 24.2829 186.893 25.153C186.907 25.2408 186.916 25.3285 186.921 25.4162C186.978 26.0793 186.836 26.7443 186.514 27.3265C187.351 27.5656 188.111 28.019 188.719 28.6419C189.327 29.2648 189.762 30.0356 189.981 30.8781C190.05 31.1569 190.096 31.4409 190.119 31.7271C190.216 32.9397 189.868 34.1459 189.14 35.1207C188.413 36.0956 187.356 36.7724 186.166 37.0249Z" fill="#18355D"/>
<path d="M186.165 37.0249L186.182 37.1041C186.319 38.761 185.791 40.4041 184.716 41.672C183.641 42.9399 182.106 43.7287 180.449 43.865C179.388 43.957 178.322 43.7707 177.356 43.3245C178.573 42.4472 179.685 41.2218 179.999 39.7898C180.11 39.2574 180.098 38.7065 179.963 38.1796C179.828 37.6526 179.574 37.1637 179.221 36.7504C179.134 36.1853 178.901 35.6528 178.544 35.2059C178.188 34.759 177.72 34.4134 177.189 34.2034C177.022 34.154 176.85 34.1264 176.676 34.1213C176.844 32.3513 176.428 30.575 175.491 29.0641C175.132 27.9675 174.527 26.9675 173.722 26.1407C173.759 26.461 173.724 26.7855 173.621 27.091C173.518 27.3965 173.349 27.6755 173.126 27.9082C172.902 28.1409 172.631 28.3214 172.33 28.4371C172.029 28.5528 171.706 28.6006 171.384 28.5773C168.891 28.4924 168.421 26.1152 168.421 26.1152C168.421 26.1152 168.421 26.1435 168.421 26.1605C167.335 28.8688 164.176 28.9424 161.912 27.7397C161.11 27.3277 160.404 26.7487 159.844 26.0417C159.201 23.2654 161.491 20.5826 164.131 20.1977C164.188 18.4318 165.475 16.5413 167.213 16.397C167.818 16.3453 168.426 16.4569 168.974 16.7202C169.522 16.9835 169.988 17.3889 170.326 17.8941C170.374 17.9705 170.428 18.0526 170.47 18.1375C171.181 17.1073 172.344 15.9782 173.583 15.8735C174.444 15.8113 175.304 16.0159 176.045 16.4595C176.786 16.9031 177.372 17.5641 177.724 18.3525C177.724 18.2309 178.813 17.7328 178.923 17.6875C179.941 17.3006 181.059 17.2633 182.1 17.5815C183.141 17.8997 184.047 18.5553 184.674 19.4449C184.737 19.6909 184.779 19.9418 184.799 20.1949C184.861 20.9518 184.744 21.7127 184.459 22.4164C184.861 22.5311 185.237 22.7234 185.565 22.9824C185.514 23.3712 185.412 23.7517 185.263 24.1144C185.89 24.2982 186.455 24.6529 186.893 25.1389C186.907 25.2266 186.915 25.3143 186.921 25.4021C186.978 26.0652 186.836 26.7301 186.514 27.3123C186.935 27.4325 187.338 27.6075 187.713 27.833C187.652 28.2468 187.518 28.6464 187.317 29.0132C188.387 29.3141 189.325 29.966 189.98 30.864C190.049 31.1428 190.096 31.4267 190.119 31.713C190.219 32.9278 189.873 34.1375 189.145 35.1154C188.417 36.0932 187.358 36.7721 186.165 37.0249Z" fill="#18355D"/>
<path d="M164.174 31.3536C164.174 31.3536 167.762 31.4045 168.586 34.4326" stroke="black" stroke-width="4.72" stroke-miterlimit="10"/>
<path d="M163.249 40.4265C162.432 40.6279 161.585 40.6693 160.753 40.5482C160.596 40.5214 160.449 40.4571 160.323 40.3608C160.196 40.2645 160.096 40.1391 160.028 39.9952C159.961 39.8514 159.93 39.6935 159.938 39.535C159.945 39.3765 159.991 39.2221 160.071 39.0851C160.818 37.8201 161.587 36.5693 162.425 35.3665C162.556 35.2135 162.637 35.0238 162.657 34.8231C162.657 34.8231 162.312 31.0791 163.068 28.2066" stroke="black" stroke-width="4.72" stroke-miterlimit="10"/>
<path d="M166.072 34.5394C166.148 33.9362 165.794 33.3948 165.28 33.3303C164.767 33.2657 164.289 33.7024 164.214 34.3056C164.138 34.9088 164.492 35.4502 165.006 35.5148C165.519 35.5794 165.997 35.1427 166.072 34.5394Z" fill="black"/>
<path d="M183.027 43.0698C183.104 43.8197 186.469 49.0128 189.511 54.7463C189.509 54.7557 189.509 54.7653 189.511 54.7746C189.567 54.8963 189.624 55.0265 189.689 55.1567" stroke="black" stroke-width="4.72" stroke-linecap="round" stroke-linejoin="round"/>
<path d="M170.89 48.56L171.948 56.0934" stroke="black" stroke-width="4.72" stroke-miterlimit="10"/>
<path d="M161.952 40.6162C161.952 40.6162 163.486 48.076 167.258 49.2052C171.031 50.3344 174.305 45.6281 174.305 45.6281" stroke="black" stroke-width="4.72" stroke-linecap="round" stroke-linejoin="round"/>
<path d="M162.982 43.981C163.484 44.2739 164.05 44.4371 164.63 44.4559C165.21 44.4746 165.786 44.3484 166.305 44.0886" stroke="black" stroke-width="4.72" stroke-linecap="round" stroke-linejoin="round"/>
<path d="M170.066 17.7979C170.021 17.2192 169.826 16.6622 169.5 16.1819C169.085 15.5455 168.469 15.0665 167.751 14.8214C167.032 14.5764 166.251 14.5794 165.534 14.83C164.817 15.0807 164.205 15.5644 163.795 16.204C163.385 16.8436 163.202 17.6021 163.274 18.3582" stroke="black" stroke-width="4.72" stroke-miterlimit="10" stroke-linecap="round"/>
<path d="M168.606 22.9485C168.535 22.131 168.266 21.3431 167.822 20.6529C167.378 19.9626 166.773 19.3907 166.059 18.9865C162.462 16.9743 157.852 20.8826 159.14 24.754C159.593 26.1011 160.671 27.0803 161.899 27.7312C164.163 28.9339 167.333 28.8632 168.408 26.152L168.425 26.1096C168.425 26.1096 168.895 28.4839 171.388 28.5717C171.71 28.5944 172.033 28.5461 172.334 28.4301C172.635 28.3141 172.907 28.1334 173.131 27.9006C173.354 27.6679 173.524 27.3888 173.628 27.0832C173.732 26.7776 173.767 26.453 173.731 26.1322C175.876 28.3396 176.437 31.6394 175.429 34.5005C175.613 33.9855 176.844 34.0789 177.201 34.1977C178.735 34.7326 179.553 36.5466 179.213 38.0861C178.893 39.5266 177.781 40.7435 176.57 41.6265C176.466 41.6981 176.382 41.7937 176.324 41.9051C176.265 42.0165 176.235 42.1403 176.235 42.2661C176.235 42.3918 176.265 42.5156 176.324 42.627C176.382 42.7384 176.466 42.834 176.57 42.9056C177.723 43.6469 179.089 43.9853 180.455 43.8678C182.112 43.7315 183.646 42.9431 184.721 41.6758C185.796 40.4086 186.324 38.7662 186.189 37.1098L186.172 37.0306C187.265 36.8016 188.25 36.2132 188.97 35.3592C189.69 34.5051 190.104 33.4346 190.144 32.3183C190.185 31.2021 189.851 30.1043 189.195 29.2001C188.539 28.2959 187.599 27.6373 186.526 27.3293C186.848 26.7471 186.99 26.0821 186.933 25.4191C186.855 24.5195 186.425 23.6873 185.736 23.104C185.046 22.5208 184.154 22.2339 183.254 22.3061" stroke="black" stroke-width="4.72" stroke-linecap="round" stroke-linejoin="round"/>
<path d="M169.922 16.0461C170.601 14.9141 171.351 14.2802 172.752 14.1641C173.621 14.0931 174.491 14.2956 175.239 14.7431C175.988 15.1907 176.577 15.8609 176.926 16.6602C176.878 16.5498 178.016 16.0319 178.132 15.9867C178.585 15.8133 179.062 15.7083 179.547 15.6754C180.839 15.6058 182.108 16.038 183.089 16.8817C184.071 17.7253 184.688 18.9153 184.813 20.2034C184.876 20.9603 184.759 21.7212 184.474 22.4249" stroke="black" stroke-width="4.72" stroke-linecap="square" stroke-linejoin="round"/>
<path d="M189.511 54.7492C189.511 54.7492 192.154 63.5392 177.042 64.0146" stroke="black" stroke-width="4.72" stroke-miterlimit="10"/>
<path d="M110.936 142.816C110.91 136.389 117.227 134.66 120.252 134.716C139.001 135.073 141.828 104.752 141.828 104.752" stroke="black" stroke-width="4.72" stroke-linecap="round" stroke-linejoin="round"/>
<path d="M209.063 133.293C209.063 133.293 206.85 155.124 209.063 162.47C211.276 169.817 198.55 164.052 198.55 164.052" stroke="black" stroke-width="4.72" stroke-miterlimit="10"/>
<path d="M82.2708 149.747H67.5576" stroke="black" stroke-width="4.72" stroke-linecap="round" stroke-linejoin="round"/>
<path d="M134.988 149.747H106.835" stroke="black" stroke-width="4.72" stroke-linecap="round" stroke-linejoin="round"/>
<path d="M102.797 149.747H86.1768" stroke="black" stroke-width="4.72" stroke-linecap="round" stroke-linejoin="round"/>
<path d="M102.369 142.816H85.9355" stroke="black" stroke-width="4.72" stroke-linecap="round" stroke-linejoin="round"/>
<path d="M115.464 142.816H106.592" stroke="black" stroke-width="4.72" stroke-linecap="round" stroke-linejoin="round"/>
<path d="M138.017 142.816H120.881" stroke="black" stroke-width="4.72" stroke-linecap="round" stroke-linejoin="round"/>
<path d="M81.8293 142.816H78.9229" stroke="black" stroke-width="4.72" stroke-linecap="round" stroke-linejoin="round"/>
<path d="M101.826 142.193H105.627C105.627 142.193 109.982 146.305 105.627 151.012V154.3H101.826" stroke="black" stroke-width="4.72" stroke-linecap="round" stroke-linejoin="round"/>
<path d="M85.0898 142.193C85.0898 142.193 89.4452 146.305 85.0898 151.012V154.3" stroke="black" stroke-width="4.72" stroke-linecap="round" stroke-linejoin="round"/>
<path d="M85.0898 154.3H81.2891V151.012C85.6473 146.305 81.2891 142.193 81.2891 142.193H85.0898" stroke="black" stroke-width="4.72" stroke-linecap="round" stroke-linejoin="round"/>
<path d="M101.826 142.193C101.826 142.193 106.184 146.305 101.826 151.012V154.3" stroke="black" stroke-width="4.72" stroke-linecap="round" stroke-linejoin="round"/>
<path d="M81.2891 151.012H85.0898" stroke="black" stroke-width="4.72" stroke-linecap="round" stroke-linejoin="round"/>
<path d="M101.826 151.012H105.627" stroke="black" stroke-width="4.72" stroke-linecap="round" stroke-linejoin="round"/>
<path d="M116.477 140.716C115.992 141.335 115.647 142.051 115.464 142.816C115.224 143.945 115.134 145.101 115.196 146.254C115.212 147.386 115.354 148.547 116.429 149.141C118.045 150.044 119.987 148.753 120.072 146.902C120.164 145.511 120.436 144.138 120.881 142.816C120.898 142.751 120.918 142.694 120.935 142.64" stroke="black" stroke-width="4.72" stroke-linecap="round" stroke-linejoin="round"/>
<path d="M120.935 142.632C122.282 142.349 124.288 141.61 125.31 139.706" stroke="black" stroke-width="4.72" stroke-linecap="round" stroke-linejoin="round"/>
<path d="M111.742 149.747C111.742 149.747 112.801 152.537 115.464 152.877C118.127 153.216 116.443 149.747 116.443 149.747C116.443 149.747 117.547 152.192 118.882 152.274C120.218 152.356 121.373 151.142 120.911 149.747C120.911 149.747 121.319 151.991 123.294 151.745C125.27 151.498 124.455 149.747 124.455 149.747" stroke="black" stroke-width="4.72" stroke-linecap="round" stroke-linejoin="round"/>
<g opacity="0.54">
<path d="M81.3649 189.494L79.4546 217.081C78.4188 218.954 77.2529 220.613 76.2143 221.637C76.0756 221.586 75.9313 221.535 75.7983 221.473C75.5435 221.385 75.2917 221.283 75.0511 221.19C71.1797 219.492 68.2591 216.331 67.3818 212.762C66.6121 209.624 67.3082 206.233 65.814 203.285C63.9915 199.654 59.022 197.376 58.4249 193.275C57.8589 189.44 61.3086 185.917 60.7511 182.164C60.1059 177.919 54.893 175.395 53.9195 171.243C53.3111 168.662 53.8544 165.702 53.6365 163.036C53.3788 160.066 52.8762 157.122 52.1338 154.235C59.8286 153.669 67.662 157.914 70.1552 163.99C72.1928 168.962 70.9646 174.772 74.154 179.303C75.886 181.757 78.7726 183.591 80.264 186.16C80.7237 186.961 81.0569 187.828 81.2517 188.73C81.2658 188.792 81.2658 188.857 81.2771 188.905C81.2913 189.007 81.3026 189.084 81.3139 189.16C81.3394 189.381 81.3649 189.494 81.3649 189.494Z" fill="#18355D"/>
<path d="M81.3786 189.483H81.3644C81.3644 189.483 81.3389 189.369 81.3135 189.154C81.3375 189.242 81.3546 189.331 81.3644 189.42C81.3786 189.443 81.3786 189.468 81.3786 189.483Z" fill="#18355D"/>
</g>
<path d="M106.802 178.726C105.789 182.306 100.349 184.482 99.69 188.153C99.107 191.404 102.701 194.441 102.107 197.743C101.476 201.289 96.311 203.251 94.4149 206.389C92.8697 208.936 93.5913 211.854 92.7933 214.562C91.8707 217.638 88.8313 220.383 84.7702 221.838C84.5184 221.929 84.2778 222.016 84.0231 222.093C83.8844 222.13 83.7401 222.18 83.5929 222.217C82.2515 221.116 80.7205 219.181 79.4668 217.092L81.377 189.505H81.3912C82.8713 188.252 84.5665 187.1 85.7437 185.707C87.0229 184.202 87.6172 182.558 88.0077 180.837H88.0134V180.647C88.5794 177.925 88.6219 175.078 89.901 172.497C92.4933 167.245 100.63 163.588 108.641 164.069C107.886 166.549 107.369 169.095 107.096 171.673C106.864 173.954 107.436 176.51 106.802 178.726Z" fill="#18355D"/>
<path d="M88.0134 180.625V180.814H87.9766C87.9964 180.749 88.0134 180.687 88.0134 180.625Z" fill="#18355D"/>
<path d="M88.0131 180.625C88.0131 180.687 87.9876 180.749 87.9763 180.814C87.5971 182.535 87.0028 184.179 85.7123 185.685C84.535 187.077 82.8398 188.232 81.3598 189.483C81.3598 189.483 81.3598 189.443 81.3456 189.432C81.3357 189.342 81.3187 189.253 81.2947 189.166C81.2947 189.089 81.272 189.013 81.2579 188.911C81.2579 188.863 81.2579 188.798 81.2324 188.736C81.0377 187.833 80.7045 186.966 80.2447 186.166C78.7533 183.596 75.8667 181.762 74.1348 179.309C74.1348 179.309 74.9187 166.376 81.5352 162.439C87.8206 158.718 88.0131 178.471 88.0131 180.625Z" fill="#18355D"/>
<path d="M88.0134 180.625V180.814H87.9766C87.9964 180.749 88.0134 180.687 88.0134 180.625Z" fill="#18355D"/>
<path d="M81.3654 189.432V189.494C81.3654 189.494 81.3399 189.381 81.3145 189.166C81.3385 189.253 81.3555 189.342 81.3654 189.432Z" fill="#18355D"/>
<path d="M80.7766 189.497C82.251 188.24 83.9603 187.074 85.1432 185.685C88.46 181.768 87.1837 176.765 89.3118 172.472C91.9013 167.225 100.066 163.568 108.058 164.049C107.295 166.528 106.776 169.075 106.507 171.654C106.269 173.949 106.838 176.507 106.224 178.729C105.205 182.306 99.7687 184.476 99.1065 188.15C98.5207 191.399 102.123 194.435 101.526 197.738C100.892 201.284 95.7331 203.242 93.8313 206.381C92.2833 208.928 93.0107 211.845 92.2069 214.559C91.2334 217.831 87.8572 220.723 83.4339 222.084C83.2924 222.132 83.1509 222.18 82.9981 222.217C81.6567 221.116 80.1257 219.183 78.8691 217.092" stroke="black" stroke-width="4.72" stroke-miterlimit="10"/>
<path d="M103.168 168.164C91.2279 181.015 85.6217 208.113 83.4285 222.09C83.2502 223.27 83.0889 224.354 82.9502 225.322" stroke="black" stroke-width="4.72" stroke-miterlimit="10"/>
<path d="M104.268 233.192L98.7668 265.607C98.6369 266.496 98.1959 267.309 97.5221 267.903C96.8484 268.497 95.9857 268.833 95.0878 268.85H66.4029C65.4975 268.83 64.629 268.487 63.9543 267.883C63.2796 267.279 62.8432 266.454 62.7239 265.556L57.6582 233.192H104.268Z" stroke="black" stroke-width="4.72" stroke-miterlimit="10"/>
<path d="M109.487 229.581C109.332 231.624 107.713 233.198 105.771 233.198H56.2464C54.3248 233.198 52.7202 231.658 52.5363 229.638C52.324 227.328 54.0475 225.327 56.2464 225.327H105.771C107.95 225.327 109.665 227.289 109.487 229.581Z" stroke="black" stroke-width="4.72" stroke-miterlimit="10"/>
<path d="M75.6264 221.643C77.7517 219.532 80.3525 214.834 81.5071 210.993C82.4552 207.827 80.7826 204.569 80.4006 201.323C79.8006 196.229 82.3278 190.77 79.6648 186.163C78.1819 183.593 75.2953 181.765 73.5633 179.303C70.3711 174.775 71.5964 168.974 69.556 164.001C67.0713 157.914 59.2378 153.683 51.5459 154.235C52.2812 157.126 52.779 160.073 53.0345 163.045C53.2637 165.702 52.7147 168.662 53.3175 171.252C54.2938 175.403 59.5123 177.916 60.1519 182.17C60.7179 185.931 57.2597 189.449 57.8285 193.278C58.4398 197.384 63.3895 199.654 65.2205 203.29C66.7062 206.245 66.01 209.629 66.7826 212.765C67.7505 216.682 71.1748 220.123 75.6264 221.643Z" stroke="black" stroke-width="4.72" stroke-miterlimit="10"/>
<path d="M56.2402 159.006C67.7017 173.892 73.0957 205.277 75.2012 221.479C75.3824 222.894 75.5437 224.17 75.671 225.322" stroke="black" stroke-width="4.72" stroke-miterlimit="10"/>
<path d="M73.5635 179.303C73.5635 179.303 74.3502 166.37 80.9639 162.436C87.5776 158.503 87.4475 180.554 87.4475 180.554" stroke="black" stroke-width="4.72" stroke-miterlimit="10"/>
<path d="M80.7771 189.497C80.7771 189.497 79.4244 182.096 81.7931 174.823" stroke="black" stroke-width="4.72" stroke-miterlimit="10"/>
<path d="M233.003 149.747H208.243" stroke="black" stroke-width="4.72" stroke-linecap="round" stroke-linejoin="round"/>
<path d="M233.404 142.816H209.035" stroke="black" stroke-width="4.72" stroke-linecap="round" stroke-linejoin="round"/>
<path d="M59.665 268.85H217.347" stroke="black" stroke-width="4.72" stroke-miterlimit="10"/>
</svg>
