<svg width="214" height="160" viewBox="0 0 214 160" fill="none" xmlns="http://www.w3.org/2000/svg">
<g id="sent_illustration">
<g id="freepik--background-complete--inject-128">
<rect id="Rectangle" x="0.561523" y="140.305" width="212.877" height="0.107136" fill="#E0E0E0"/>
<rect id="Rectangle_2" x="146.706" y="144.844" width="14.646" height="0.107136" fill="#E0E0E0"/>
<rect id="Rectangle_3" x="39.5947" y="144.895" width="8.24261" height="0.107136" fill="#E0E0E0"/>
<rect id="Rectangle_4" x="90.7192" y="144.646" width="16.7066" height="0.107136" fill="#E0E0E0"/>
<rect id="Rectangle_5" x="82.8257" y="143.12" width="7.46774" height="0.107136" fill="#E0E0E0"/>
<rect id="Rectangle_6" x="158.759" y="143.177" width="22.5607" height="0.107136" fill="#E0E0E0"/>
<path id="Shape" fill-rule="evenodd" clip-rule="evenodd" d="M19.2564 121.192H101.465C102.808 121.192 103.896 120.096 103.896 118.745V2.44698C103.896 1.09555 102.808 0 101.465 0H19.2564C17.9237 0.00229786 16.8413 1.08417 16.8296 2.42555V118.745C16.8296 120.095 17.9154 121.19 19.2564 121.192ZM16.936 2.42535C16.936 1.13476 17.9742 0.0878678 19.2564 0.0855041H101.465C102.748 0.0878626 103.788 1.13407 103.79 2.42535V118.745C103.788 120.036 102.748 121.082 101.465 121.085H19.2564C17.9742 121.082 16.936 120.035 16.936 118.745V2.42535Z" fill="#E0E0E0"/>
<path id="Shape_2" fill-rule="evenodd" clip-rule="evenodd" d="M111.347 121.192H193.56C194.9 121.187 195.983 120.093 195.983 118.745V2.42555C195.971 1.08583 194.891 0.00464143 193.56 0H111.347C110.014 0.0022726 108.93 1.08348 108.916 2.42555V118.745C108.918 120.095 110.005 121.19 111.347 121.192ZM109.022 2.42535C109.025 1.13407 110.064 0.0878626 111.347 0.0855041H193.56C194.843 0.0878626 195.883 1.13407 195.885 2.42535V118.745C195.883 120.036 194.843 121.082 193.56 121.085H111.347C110.064 121.082 109.025 120.036 109.022 118.745V2.42535Z" fill="#E0E0E0"/>
<path id="Path" d="M187.6 86.6639C182.363 78.6373 187.144 70.0107 186.348 61.0799C185.552 52.149 177.122 50.2034 178.719 42.6525C180.566 33.8759 175.64 25.4551 170.059 25.4551C164.477 25.4551 159.555 33.8545 161.403 42.6397C163 50.2034 154.591 52.1533 153.774 61.067C152.956 69.9807 157.759 78.6373 152.518 86.651C147.277 94.6648 148.656 105.306 151.607 110.581C152.391 111.981 153.337 113.282 154.425 114.459C158.467 118.827 164.131 121.307 170.061 121.307C175.991 121.307 181.655 118.827 185.697 114.459C186.782 113.281 187.726 111.98 188.511 110.581C191.466 105.318 192.841 94.7076 187.6 86.6639Z" fill="#3C8F7C"/>
<path id="Path_2" d="M170.058 92.7539C170.761 92.7539 171.434 93.0347 171.931 93.5346C172.428 94.0345 172.707 94.7125 172.707 95.4194V140.305H167.41V95.4194C167.41 94.7125 167.689 94.0345 168.186 93.5346C168.682 93.0347 169.356 92.7539 170.058 92.7539Z" fill="#F7A491"/>
<path id="Path_3" d="M136.764 140.305H129.565V95.4237C129.57 93.421 131.181 91.7987 133.171 91.7939C135.161 91.7987 136.773 93.421 136.777 95.4237L136.764 140.305Z" fill="#F7A491"/>
<ellipse id="Oval" cx="133.158" cy="105.841" rx="22.2116" ry="22.3571" fill="#96D9C9"/>
<ellipse id="Oval_2" cx="150.763" cy="97.0086" rx="8.80752" ry="8.75686" transform="rotate(-76.05 150.763 97.0086)" fill="#F0F0F0"/>
<ellipse id="Oval_3" cx="115.191" cy="91.7908" rx="5.21449" ry="5.18231" transform="rotate(-80.75 115.191 91.7908)" fill="#50BFA5"/>
<ellipse id="Oval_4" cx="120.829" cy="89.0934" rx="3.63594" ry="3.65976" fill="#50BFA5"/>
<path id="Path_4" d="M87.4154 113.516C83.9615 114.034 80.6608 115.302 77.7423 117.232C77.7167 113.838 77.0994 110.619 75.5156 108.018C73.1058 110.379 71.1516 113.439 69.555 116.73C68.9717 110.563 67.3581 104.564 63.786 100.763C58.4343 104.152 55.6754 109.801 54.3641 115.783C52.1977 111.749 49.0533 108.332 45.2231 105.85C41.9491 109.321 40.9017 114.12 40.9911 119.04C37.27 114.677 33.1402 111.275 29.1126 110.876C28.1206 117.772 30.2323 124.277 32.9188 129.419C36.4734 136.143 43.4335 140.335 51.0006 140.309H68.4949C75.9498 140.309 82.9407 136.306 86.4362 129.676C88.6458 125.477 89.7017 120.073 87.4154 113.516Z" fill="#50BFA5"/>
<path id="Path_5" d="M82.4171 24.4869C84.5757 18.1144 82.8429 13.5762 77.5763 13.5762C74.2639 13.5762 70.1554 15.3632 66.1533 18.2687C65.702 16.6103 64.429 15.6203 62.3811 15.6203C58.775 15.6203 53.8064 18.6887 49.9108 23.017C48.814 21.9681 47.3619 21.3783 45.8491 21.3671C42.3962 21.17 38.2196 22.9356 34.5879 25.8025C34.2186 25.2823 33.6222 24.9742 32.987 24.9754C30.9988 24.864 28.3037 26.6467 26.9711 28.9523C26.8902 29.0937 26.8178 29.2351 26.7412 29.3808H83.4645C83.6348 27.3667 83.2814 25.6868 82.4171 24.4869Z" fill="#9BC1F9"/>
<path id="Path_6" d="M82.5918 63.1803C83.6477 60.0691 82.8089 57.8535 80.2289 57.8535C78.6067 57.8535 76.6014 58.7106 74.6472 60.1462C74.4298 59.3201 73.6485 58.7753 72.8037 58.8606C71.0453 58.8606 68.6185 60.3605 66.7111 62.4775C66.1765 61.9634 65.4665 61.6751 64.7271 61.6718C63.0241 61.5733 61.0018 62.4346 59.2264 63.836C59.0518 63.5847 58.7689 63.4319 58.4643 63.4246C57.4936 63.3689 56.178 64.2388 55.5266 65.3659L55.4116 65.5716H83.1197C83.2356 64.7365 83.0481 63.8874 82.5918 63.1803Z" fill="#F0F0F0"/>
<path id="Path_7" d="M146.497 39.6359C146.279 39.605 146.058 39.5892 145.838 39.5887C146.042 36.4818 144.863 34.4934 142.338 34.4934C140.52 34.4934 138.285 35.5304 136.011 37.2832C136.663 31.2493 134.576 27.3281 129.85 27.3281C126.044 27.3281 121.22 29.8994 116.456 34.0391C116.03 31.6736 114.634 30.2508 112.275 30.2508C108.133 30.2508 102.245 34.6391 97.5229 40.8272C96.4331 39.382 94.7521 38.5108 92.9503 38.4574C89.0078 38.1788 84.1074 40.6987 79.7519 44.8041C79.4286 44.0977 78.7321 43.6398 77.9595 43.6256C75.8009 43.4713 72.8504 45.7383 71.1006 48.7681H149.967C151.819 44.1742 150.346 40.1544 146.497 39.6359Z" fill="#9BC1F9"/>
</g>
<g id="freepik--Shadow--inject-128">
<ellipse id="Oval_5" cx="107" cy="154.807" rx="82.5496" ry="4.85111" fill="#F47458"/>
</g>
<g id="freepik--Mail--inject-128">
<path id="Path_8" d="M21.3638 40.9521L118.423 55.0169L131.447 68.2461L21.3638 40.9521Z" fill="#757479"/>
<path id="Path_9" opacity="0.6" d="M21.3638 40.9521L118.423 55.0169L131.447 68.2461L21.3638 40.9521Z" fill="white"/>
<path id="Path_10" d="M21.3638 40.9521L118.423 55.0169L113.919 74.1471L21.3638 40.9521Z" fill="#757479"/>
<path id="Path_11" opacity="0.2" d="M21.3638 40.9521L118.423 55.0169L113.919 74.1471L21.3638 40.9521Z" fill="black"/>
<path id="Path_12" d="M111.926 18.8046L117.559 45.3742C117.864 46.8188 116.95 48.2394 115.515 48.5497L65.2421 59.349C63.8074 59.6536 62.3977 58.7345 62.0873 57.292L56.4503 30.7223C56.1479 29.2769 57.0634 27.8573 58.4982 27.5468L108.771 16.7476C110.207 16.4432 111.618 17.3647 111.926 18.8088V18.8046Z" fill="#757479"/>
<path id="Path_13" opacity="0.4" d="M111.926 18.8046L117.559 45.3742C117.864 46.8188 116.95 48.2394 115.515 48.5497L65.2421 59.349C63.8074 59.6536 62.3977 58.7345 62.0873 57.292L56.4503 30.7223C56.1479 29.2769 57.0634 27.8573 58.4982 27.5468L108.771 16.7476C110.207 16.4432 111.618 17.3647 111.926 18.8088V18.8046Z" fill="black"/>
<path id="Path_14" d="M110.687 17.0645L93.8911 37.8188C90.6821 41.7829 85.1663 42.9681 80.6288 40.6686L56.876 28.6266C57.2603 28.0709 57.8402 27.6833 58.4981 27.5424L108.771 16.7431C109.427 16.6025 110.112 16.7174 110.687 17.0645Z" fill="#757479"/>
<path id="Path_15" d="M21.3638 40.9521L101.418 60.1037L113.919 74.1471L21.3638 40.9521Z" fill="#757479"/>
<path id="Path_16" opacity="0.6" d="M21.3638 40.9521L101.418 60.1037L113.919 74.1471L21.3638 40.9521Z" fill="white"/>
<path id="Rectangle_7" d="M50.3506 59.781L50.5658 59.4112L59.4745 64.6638L59.2593 65.0335L50.3506 59.781Z" fill="#757479"/>
<path id="Rectangle_8" d="M63.1925 67.3497L63.4077 66.9799L66.6112 68.8687L66.396 69.2384L63.1925 67.3497Z" fill="#757479"/>
<path id="Path_17" d="M21.3638 40.9521L101.418 60.1037L85.8571 78.9811L21.3638 40.9521Z" fill="#757479"/>
<path id="Path_18" d="M128.441 85.8203C128.333 85.8206 128.226 85.8002 128.126 85.7603L115.089 80.5664C114.655 80.3903 114.443 79.8946 114.615 79.4564C114.787 79.0182 115.279 78.802 115.715 78.9722L128.756 84.1661C129.137 84.3175 129.356 84.7201 129.279 85.1246C129.202 85.5292 128.85 85.8213 128.441 85.8203Z" fill="#757479"/>
<path id="Path_19" opacity="0.3" d="M128.441 85.8203C128.333 85.8206 128.226 85.8002 128.126 85.7603L115.089 80.5664C114.655 80.3903 114.443 79.8946 114.615 79.4564C114.787 79.0182 115.279 78.802 115.715 78.9722L128.756 84.1661C129.137 84.3175 129.356 84.7201 129.279 85.1246C129.202 85.5292 128.85 85.8213 128.441 85.8203Z" fill="black"/>
<path id="Path_20" d="M127.67 78.2951C127.564 78.2944 127.458 78.2726 127.36 78.2308L120.356 75.4238C120.071 75.3127 119.867 75.0564 119.822 74.7523C119.776 74.4482 119.896 74.1428 120.136 73.9522C120.375 73.7615 120.698 73.7147 120.982 73.8297L127.985 76.6238C128.422 76.7969 128.638 77.2935 128.466 77.7337C128.344 78.0699 128.026 78.2938 127.67 78.2951Z" fill="#757479"/>
<path id="Path_21" opacity="0.5" d="M127.67 78.2951C127.564 78.2944 127.458 78.2726 127.36 78.2308L120.356 75.4238C120.071 75.3127 119.867 75.0564 119.822 74.7523C119.776 74.4482 119.896 74.1428 120.136 73.9522C120.375 73.7615 120.698 73.7147 120.982 73.8297L127.985 76.6238C128.422 76.7969 128.638 77.2935 128.466 77.7337C128.344 78.0699 128.026 78.2938 127.67 78.2951Z" fill="white"/>
<path id="Path_22" d="M113.029 85.7089C112.923 85.7077 112.817 85.6874 112.718 85.6489L100.001 80.5664C99.716 80.4553 99.512 80.199 99.4665 79.8949C99.421 79.5908 99.5409 79.2854 99.7807 79.0947C100.02 78.9041 100.343 78.8573 100.627 78.9722L113.344 84.0376C113.725 84.189 113.944 84.5915 113.867 84.9961C113.79 85.4006 113.438 85.6928 113.029 85.6918V85.7089Z" fill="#757479"/>
<path id="Path_23" opacity="0.3" d="M113.029 85.7089C112.923 85.7077 112.817 85.6874 112.718 85.6489L100.001 80.5664C99.716 80.4553 99.512 80.199 99.4665 79.8949C99.421 79.5908 99.5409 79.2854 99.7807 79.0947C100.02 78.9041 100.343 78.8573 100.627 78.9722L113.344 84.0376C113.725 84.189 113.944 84.5915 113.867 84.9961C113.79 85.4006 113.438 85.6928 113.029 85.6918V85.7089Z" fill="black"/>
</g>
<g id="freepik--Character--inject-128">
<path id="Path_24" d="M159.07 47.0625C160.198 49.2781 161.233 51.4979 162.216 53.7692C163.2 56.0405 164.115 58.3418 164.916 60.7544L165.205 61.6672C165.256 61.8301 165.329 62.0958 165.371 62.2843C165.414 62.4729 165.452 62.6872 165.473 62.8672C165.571 63.5585 165.621 64.2559 165.622 64.9542C165.629 66.242 165.569 67.5294 165.444 68.8111C165.206 71.2922 164.819 73.7565 164.286 76.1906L161.948 75.9292C161.918 73.5165 161.897 71.0781 161.812 68.6996C161.774 67.5169 161.706 66.3298 161.586 65.2156C161.532 64.6923 161.447 64.1729 161.331 63.66C161.31 63.54 161.276 63.45 161.25 63.3514C161.224 63.2529 161.199 63.2186 161.156 63.09L160.833 62.2801C159.943 60.1116 158.942 57.9261 157.921 55.7491L154.83 49.2181L159.07 47.0625Z" fill="#E4897B"/>
<path id="Path_25" d="M161.982 75.1748L160.892 77.2275L164.375 78.2046C164.375 78.2046 165.039 76.5547 164.247 75.2519L161.982 75.1748Z" fill="#E4897B"/>
<path id="Path_26" d="M159.56 80.1845L162.761 80.4416L164.375 78.2046L160.892 77.2275L159.56 80.1845Z" fill="#E4897B"/>
<path id="Path_27" d="M144.411 32.2524C144.364 32.5053 144.19 32.681 144.028 32.6467C143.866 32.6124 143.777 32.3853 143.828 32.1367C143.879 31.8882 144.049 31.7082 144.211 31.7425C144.373 31.7768 144.466 32.0039 144.411 32.2524Z" fill="#263238"/>
<path id="Path_28" d="M144.215 32.6807C143.765 33.3818 143.223 34.0176 142.602 34.5705C142.895 34.8847 143.31 35.0539 143.738 35.0334L144.215 32.6807Z" fill="#DE5753"/>
<path id="Path_29" d="M145.595 31.0567C145.554 31.0556 145.516 31.0387 145.488 31.0095C145.24 30.7239 144.872 30.5743 144.496 30.6067C144.423 30.6074 144.361 30.555 144.348 30.4828C144.335 30.4106 144.376 30.3397 144.445 30.3153C144.926 30.254 145.405 30.4389 145.722 30.8081C145.779 30.8664 145.779 30.9598 145.722 31.0181C145.688 31.0499 145.641 31.0641 145.595 31.0567Z" fill="#263238"/>
<path id="Path_30" d="M151.453 35.7529C151.006 38.0585 150.559 42.2754 152.16 43.8138C152.16 43.8138 151.534 46.1494 147.281 46.1494C142.598 46.1494 145.05 43.8138 145.05 43.8138C147.604 43.201 147.532 41.294 147.089 39.507L151.453 35.7529Z" fill="#E4897B"/>
<path id="Path_31" d="M152.803 45.2672C153.139 44.1401 153.51 42.8502 152.744 42.4431C151.892 42.0146 147.264 41.5432 145.667 42.3788C144.071 43.2145 144.526 45.5072 144.526 45.5072L152.803 45.2672Z" fill="#263238"/>
<path id="Shape_3" fill-rule="evenodd" clip-rule="evenodd" d="M161.871 152.024C162.084 152.221 162.354 152.308 162.621 152.266C162.896 152.264 163.17 152.229 163.438 152.16C163.467 152.154 163.489 152.128 163.494 152.095C163.497 152.06 163.486 152.026 163.464 152.004C163.463 152.003 163.462 152.002 163.46 152.001C163.387 151.943 162.555 151.279 162.106 151.398C162.006 151.424 161.921 151.499 161.871 151.605C161.795 151.73 161.795 151.899 161.871 152.024ZM162.14 151.56H162.229V151.57C162.591 151.63 162.937 151.785 163.242 152.024C162.774 152.115 162.135 152.115 162.003 151.903C161.978 151.883 161.935 151.822 162.003 151.681C162.031 151.619 162.081 151.574 162.14 151.56Z" fill="#757479"/>
<path id="Shape_4" fill-rule="evenodd" clip-rule="evenodd" d="M163.387 152.056H163.421C163.43 152.057 163.439 152.055 163.447 152.052C163.471 152.038 163.484 152.011 163.481 151.983C163.481 151.945 163.417 151.036 163.055 150.736C162.967 150.664 162.853 150.63 162.74 150.642C162.624 150.642 162.524 150.725 162.502 150.839C162.438 151.199 163.064 151.876 163.387 152.056ZM162.774 150.771H162.791L162.774 150.779C162.847 150.77 162.921 150.79 162.978 150.835C163.196 151.12 163.323 151.463 163.345 151.821C163.025 151.577 162.625 151.058 162.663 150.848C162.664 150.847 162.664 150.846 162.664 150.845C162.669 150.825 162.681 150.771 162.774 150.771Z" fill="#757479"/>
<path id="Shape_5" fill-rule="evenodd" clip-rule="evenodd" d="M142.921 151.99C143.053 152.202 143.44 152.268 143.841 152.268C144.16 152.267 144.48 152.232 144.794 152.162C144.825 152.156 144.849 152.127 144.854 152.091C144.859 152.055 144.845 152.02 144.82 152C144.818 151.999 144.816 151.998 144.813 151.996C144.708 151.927 143.659 151.238 143.159 151.399C143.059 151.427 142.973 151.502 142.921 151.606C142.853 151.722 142.853 151.875 142.921 151.99ZM143.202 151.551C143.248 151.543 143.296 151.543 143.342 151.551V151.561C143.775 151.616 144.194 151.77 144.577 152.015C143.989 152.111 143.198 152.096 143.057 151.864C143.023 151.834 143.002 151.783 143.057 151.672C143.089 151.609 143.141 151.565 143.202 151.551Z" fill="#757479"/>
<path id="Shape_6" fill-rule="evenodd" clip-rule="evenodd" d="M144.756 152.056H144.786C144.805 152.063 144.827 152.062 144.846 152.052C144.867 152.036 144.879 152.01 144.875 151.983C144.875 151.982 144.875 151.981 144.875 151.979C144.867 151.906 144.781 151.089 144.39 150.77C144.274 150.665 144.118 150.618 143.964 150.642C143.76 150.663 143.687 150.766 143.687 150.852C143.632 151.199 144.377 151.889 144.756 152.056ZM143.977 150.77H144.024L144.041 150.779C144.121 150.784 144.197 150.816 144.258 150.869C144.498 151.138 144.647 151.477 144.684 151.837C144.309 151.606 143.798 151.07 143.832 150.856C143.832 150.855 143.833 150.854 143.833 150.853C143.838 150.832 143.852 150.77 143.977 150.77Z" fill="#757479"/>
<path id="Path_32" d="M148.226 151.979H145.096L144.786 144.689H147.915L148.226 151.979Z" fill="#E4897B"/>
<path id="Path_33" d="M167.006 151.979H163.877L162.306 144.689H165.431L167.006 151.979Z" fill="#E4897B"/>
<path id="Path_34" d="M163.655 151.614H167.168C167.297 151.615 167.408 151.706 167.436 151.833L168.053 154.631C168.082 154.769 168.046 154.913 167.957 155.021C167.867 155.13 167.733 155.191 167.593 155.188C166.367 155.167 165.771 155.094 164.226 155.094C163.276 155.094 161.318 155.197 160.002 155.197C158.687 155.197 158.521 153.911 159.057 153.77C161.467 153.238 162.374 152.506 163.144 151.811C163.284 151.684 163.466 151.614 163.655 151.614Z" fill="#263238"/>
<path id="Path_35" d="M145.118 151.614H148.524C148.653 151.615 148.764 151.706 148.792 151.833L149.41 154.631C149.439 154.768 149.406 154.911 149.318 155.02C149.23 155.128 149.097 155.19 148.958 155.188C147.728 155.167 145.948 155.094 144.398 155.094C142.589 155.094 141.022 155.197 138.898 155.197C137.62 155.197 137.259 153.911 137.795 153.77C140.243 153.23 142.24 153.174 144.356 151.863C144.581 151.709 144.846 151.622 145.118 151.614V151.614Z" fill="#263238"/>
<path id="Path_36" d="M143.615 49.3423C141 49.1383 138.397 48.7907 135.819 48.3009C134.542 48.0524 133.239 47.7738 131.945 47.4224C130.618 47.0806 129.316 46.6512 128.045 46.1368C127.717 45.9996 127.385 45.8496 127.057 45.7082C126.688 45.5252 126.333 45.3161 125.993 45.0825C125.38 44.6754 124.852 44.2512 124.328 43.8312C123.285 42.9741 122.319 42.117 121.348 41.2385C119.445 39.4643 117.64 37.6302 115.898 35.7017L117.465 33.9404L123.643 38.4101C124.66 39.1472 125.691 39.8715 126.704 40.5528C127.206 40.8914 127.722 41.2085 128.194 41.4785C128.392 41.5919 128.597 41.6922 128.807 41.7785C129.059 41.877 129.314 41.9756 129.582 42.0699C131.883 42.7831 134.236 43.3132 136.62 43.6555C139.051 44.0412 141.563 44.3583 143.99 44.6154L143.615 49.3423Z" fill="#E4897B"/>
<path id="Path_37" d="M157.759 44.5255C160.692 45.2026 163.655 53.8292 163.655 53.8292L157.622 58.1875C157.622 58.1875 155.919 54.1678 154.276 50.6537C152.556 46.9725 154.761 43.8356 157.759 44.5255Z" fill="#757479"/>
<path id="Path_38" opacity="0.4" d="M157.759 44.5255C160.692 45.2026 163.655 53.8292 163.655 53.8292L157.622 58.1875C157.622 58.1875 155.919 54.1678 154.276 50.6537C152.556 46.9725 154.761 43.8356 157.759 44.5255Z" fill="black"/>
<path id="Path_39" d="M156.068 49.2393L154.872 51.9348C156.111 54.626 157.244 57.2916 157.546 58.003C157.503 54.8189 156.903 50.8677 156.068 49.2393Z" fill="#757479"/>
<path id="Path_40" opacity="0.6" d="M156.068 49.2393L154.872 51.9348C156.111 54.626 157.244 57.2916 157.546 58.003C157.503 54.8189 156.903 50.8677 156.068 49.2393Z" fill="black"/>
<path id="Path_41" d="M140.239 44.6891C140.239 44.6891 136.91 48.4731 140.052 71.9015H156.78C156.899 69.3303 155.285 56.7054 157.759 44.5262C155.91 44.1678 154.04 43.9302 152.16 43.8148C149.792 43.6776 147.418 43.6776 145.05 43.8148C143.426 43.9795 141.818 44.2718 140.239 44.6891Z" fill="#757479"/>
<path id="Path_42" opacity="0.4" d="M140.239 44.6891C140.239 44.6891 136.91 48.4731 140.052 71.9015H156.78C156.899 69.3303 155.285 56.7054 157.759 44.5262C155.91 44.1678 154.04 43.9302 152.16 43.8148C149.792 43.6776 147.418 43.6776 145.05 43.8148C143.426 43.9795 141.818 44.2718 140.239 44.6891Z" fill="black"/>
<path id="Path_43" d="M139 49.2393C138.889 50.1263 138.804 51.1763 138.749 52.4148C140.401 51.9157 141.97 51.1734 143.406 50.2121L139 49.2393Z" fill="#757479"/>
<path id="Path_44" opacity="0.6" d="M139 49.2393C138.889 50.1263 138.804 51.1763 138.749 52.4148C140.401 51.9157 141.97 51.1734 143.406 50.2121L139 49.2393Z" fill="black"/>
<path id="Path_45" d="M146.17 49.7111C143.93 51.7081 135.381 51.5067 135.381 51.5067L135.1 43.1758C137.987 43.5897 140.899 43.8016 143.815 43.81C148.579 43.7115 148.614 47.5084 146.17 49.7111Z" fill="#757479"/>
<path id="Path_46" opacity="0.4" d="M146.17 49.7111C143.93 51.7081 135.381 51.5067 135.381 51.5067L135.1 43.1758C137.987 43.5897 140.899 43.8016 143.815 43.81C148.579 43.7115 148.614 47.5084 146.17 49.7111Z" fill="black"/>
<path id="Path_47" d="M117.546 33.9577L115.417 31.4336L113.123 34.0049C113.123 34.0049 114.536 36.3961 116.78 36.019L117.546 33.9577Z" fill="#E4897B"/>
<path id="Path_48" d="M112.369 28.4893L111.543 31.7848L113.105 33.9875L115.4 31.4333L112.369 28.4893Z" fill="#E4897B"/>
<path id="Path_49" d="M144.786 144.693L144.947 148.447H148.077L147.915 144.693H144.786Z" fill="#CE6F64"/>
<path id="Path_50" d="M165.435 144.693H162.306L163.115 148.447H166.244L165.435 144.693Z" fill="#CE6F64"/>
<path id="Path_51" d="M146.668 29.141C143.862 27.8554 142.977 22.1429 151.049 23.5699C151.049 23.5699 149.831 24.9241 152.301 25.7812C154.77 26.6383 152.705 31.9308 146.668 29.141Z" fill="#263238"/>
<path id="Path_52" d="M152.765 33.4268C151.96 36.4266 151.645 38.2522 149.784 39.5078C147 41.3934 143.539 39.2292 143.428 36.028C143.33 33.1525 144.663 28.6999 147.877 28.0914C149.32 27.8067 150.806 28.296 151.802 29.3839C152.799 30.4718 153.163 32.0024 152.765 33.4268Z" fill="#E4897B"/>
<path id="Path_53" d="M150.938 25.0704C152.849 26.1417 155.438 26.7846 155.195 28.3102C154.876 30.1743 156.758 29.0087 156.319 31.7814C156.034 33.5941 152.713 39.088 150.359 38.8223C146.842 38.3938 147.289 33.0113 147.276 30.1743C147.268 28.4987 147.191 22.9577 150.938 25.0704Z" fill="#263238"/>
<path id="Path_54" d="M146.855 27.4736C146.004 27.675 144.875 32.6161 148.175 33.0704C151.968 33.5889 146.855 27.4736 146.855 27.4736Z" fill="#263238"/>
<path id="Path_55" d="M146.94 29.227C145.897 29.3213 143.534 28.0571 143.824 26.1544C143.824 26.1415 145.318 28.3785 146.94 29.227Z" fill="#263238"/>
<path id="Path_56" d="M148.49 33.4652C148.17 34.1717 147.626 34.7518 146.944 35.1151C146.046 35.5865 145.539 34.9008 145.744 33.9923C145.927 33.178 146.617 31.9481 147.54 31.8496C148.464 31.751 148.86 32.6081 148.49 33.4652Z" fill="#E4897B"/>
<path id="Path_57" d="M153.173 29.9977C154.466 29.4331 155.39 28.2531 155.634 26.8564C155.634 26.8564 157.039 30.7862 153.173 29.9977Z" fill="#263238"/>
<path id="Path_58" d="M156.724 29.9343C156.122 29.5275 155.358 29.4518 154.689 29.7329C154.689 29.7329 156 28.023 156.724 29.9343Z" fill="#263238"/>
<path id="Path_59" d="M145.986 71.9009C145.986 71.9009 149.537 95.9593 151.483 104.972C153.612 114.828 161.658 147.723 161.658 147.723H167.385C167.385 147.723 162.084 115.638 160.866 105.85C159.547 95.2437 156.779 71.8838 156.779 71.8838L145.986 71.9009Z" fill="#757479"/>
<path id="Path_60" opacity="0.5" d="M145.986 71.9009C145.986 71.9009 149.537 95.9593 151.483 104.972C153.612 114.828 161.658 147.723 161.658 147.723H167.385C167.385 147.723 162.084 115.638 160.866 105.85C159.547 95.2437 156.779 71.8838 156.779 71.8838L145.986 71.9009Z" fill="white"/>
<path id="Path_61" d="M160.743 145.597C160.718 145.597 161.335 147.812 161.335 147.812H167.781L167.662 145.837L160.743 145.597Z" fill="#757479"/>
<path id="Path_62" opacity="0.1" d="M160.743 145.597C160.718 145.597 161.335 147.812 161.335 147.812H167.781L167.662 145.837L160.743 145.597Z" fill="black"/>
<path id="Path_63" d="M148.231 80.4723C152.335 81.2822 151.901 96.6883 151.407 104.612C150.223 99.011 148.49 88.2332 147.307 80.5837C147.593 80.4417 147.919 80.4023 148.231 80.4723Z" fill="#757479"/>
<path id="Path_64" opacity="0.4" d="M148.231 80.4723C152.335 81.2822 151.901 96.6883 151.407 104.612C150.223 99.011 148.49 88.2332 147.307 80.5837C147.593 80.4417 147.919 80.4023 148.231 80.4723Z" fill="white"/>
<path id="Path_65" d="M140.051 71.9014C140.051 71.9014 139.626 95.437 139.962 105.041C140.315 115.026 143.794 147.723 143.794 147.723H149.09C149.09 147.723 149.286 115.608 149.516 105.803C149.776 95.1113 151.057 71.9014 151.057 71.9014L140.051 71.9014Z" fill="#757479"/>
<path id="Path_66" opacity="0.5" d="M140.051 71.9014C140.051 71.9014 139.626 95.437 139.962 105.041C140.315 115.026 143.794 147.723 143.794 147.723H149.09C149.09 147.723 149.286 115.608 149.516 105.803C149.776 95.1113 151.057 71.9014 151.057 71.9014L140.051 71.9014Z" fill="white"/>
<path id="Path_67" d="M144.893 143.892C144.866 143.892 144.844 143.872 144.841 143.845C143.905 134.794 141.704 112.896 141.435 105.04C141.15 97.0224 141.41 79.0321 141.495 73.7096C141.495 73.6812 141.518 73.6582 141.546 73.6582C141.575 73.6581 141.599 73.6805 141.601 73.7096C141.516 79.0321 141.257 97.0224 141.542 105.036C141.819 112.891 144.02 134.781 144.948 143.832C144.948 143.862 144.926 143.888 144.897 143.892H144.893Z" fill="#757479"/>
<path id="Path_68" opacity="0.4" d="M144.893 143.892C144.866 143.892 144.844 143.872 144.841 143.845C143.905 134.794 141.704 112.896 141.435 105.04C141.15 97.0224 141.41 79.0321 141.495 73.7096C141.495 73.6812 141.518 73.6582 141.546 73.6582C141.575 73.6581 141.599 73.6805 141.601 73.7096C141.516 79.0321 141.257 97.0224 141.542 105.036C141.819 112.891 144.02 134.781 144.948 143.832C144.948 143.862 144.926 143.888 144.897 143.892H144.893Z" fill="white"/>
<path id="Path_69" d="M142.764 145.597C142.742 145.597 143.066 147.812 143.066 147.812H149.508L149.682 145.837L142.764 145.597Z" fill="#757479"/>
<path id="Path_70" opacity="0.1" d="M142.764 145.597C142.742 145.597 143.066 147.812 143.066 147.812H149.508L149.682 145.837L142.764 145.597Z" fill="black"/>
</g>
</g>
</svg>
